SplineFontDB: 3.0
FontName: ORI-AsikaNormal
FullName: ORI Asika Normal
FamilyName: ORI Asika
Weight: Book
Copyright: Copyright (c) 2009-2015, NLCI (http://www.nlci.in/fonts/)
Version: 1.0 Thu Sep 12 14:47:21 1996
ItalicAngle: 0
UnderlinePosition: -269
UnderlineWidth: 19
Ascent: 800
Descent: 200
LayerCount: 3
Layer: 0 0 "Back"  1
Layer: 1 0 "Fore"  0
Layer: 2 0 "Fusion"  1
NeedsXUIDChange: 1
XUID: [1021 952 137685758 15238446]
FSType: 0
OS2Version: 1
OS2_WeightWidthSlopeOnly: 0
OS2_UseTypoMetrics: 1
CreationTime: 1257818330
ModificationTime: 1258717813
PfmFamily: 81
TTFWeight: 400
TTFWidth: 5
LineGap: 0
VLineGap: 0
Panose: 5 0 0 0 0 0 0 0 0 0
OS2TypoAscent: 181
OS2TypoAOffset: 1
OS2TypoDescent: -231
OS2TypoDOffset: 1
OS2TypoLinegap: 0
OS2WinAscent: -391
OS2WinAOffset: 1
OS2WinDescent: -30
OS2WinDOffset: 1
HheadAscent: -391
HheadAOffset: 1
HheadDescent: 30
HheadDOffset: 1
OS2SubXSize: 700
OS2SubYSize: 650
OS2SubXOff: 0
OS2SubYOff: 143
OS2SupXSize: 700
OS2SupYSize: 650
OS2SupXOff: 0
OS2SupYOff: 453
OS2StrikeYSize: 50
OS2StrikeYPos: 259
OS2Vendor: 'Alts'
OS2CodePages: 80000001.00000000
OS2UnicodeRanges: 00000000.00000000.00000000.00000000
Lookup: 4 0 0 "'nukt' Nukta Forms in Oriya lookup 0"  {"'nukt' Nukta Forms in Oriya lookup 0 subtable"  } ['nukt' ('orya' <'dflt' > ) ]
Lookup: 4 0 0 "'akhn' Akhand in Oriya lookup 1"  {"'akhn' Akhand in Oriya lookup 1 subtable"  } ['akhn' ('orya' <'dflt' > ) ]
Lookup: 4 0 0 "'rphf' Reph Form in Oriya lookup 2"  {"'rphf' Reph Form in Oriya lookup 2 subtable"  } ['rphf' ('orya' <'dflt' > ) ]
Lookup: 4 0 0 "'blwf' Below Base Forms in Oriya lookup 3"  {"'blwf' Below Base Forms in Oriya lookup 3 subtable"  } ['blwf' ('orya' <'dflt' > ) ]
Lookup: 4 0 0 "'pstf' Post Base Forms in Oriya lookup 4"  {"'pstf' Post Base Forms in Oriya lookup 4 subtable"  } ['pstf' ('orya' <'dflt' > ) ]
Lookup: 4 0 0 "'abvs' Above Base Substitutions in Oriya lookup 6"  {"'abvs' Above Base Substitutions in Oriya lookup 6 subtable"  } ['abvs' ('orya' <'dflt' > ) ]

StartChar: exclam
Encoding: 4 33 4
Width: 405
Flags: MW
LayerCount: 3
Fore
SplineSet
241.97 709.5 m 1
 220.009 181.5 l 1
 183.991 181.5 l 1
 162.03 709.5 l 1
 241.97 709.5 l 1
236.5 12.5 m 1
 161.5 12.5 l 1
 161.5 82.5 l 1
 236.5 82.5 l 1
 236.5 12.5 l 1
EndSplineSet
EndChar

StartChar: quotedbl
Encoding: 5 34 5
Width: 472
Flags: MW
LayerCount: 3
Fore
SplineSet
378.462 709.5 m 1
 357.458 446.5 l 1
 320.542 446.5 l 1
 299.538 709.5 l 1
 378.462 709.5 l 1
172.462 709.5 m 1
 151.458 446.5 l 1
 114.542 446.5 l 1
 93.5381 709.5 l 1
 172.462 709.5 l 1
EndSplineSet
EndChar

StartChar: numbersign
Encoding: 6 35 6
Width: 760
Flags: MW
LayerCount: 3
Fore
SplineSet
686.13 500.5 m 1
 672.738 456.5 l 1
 530.777 456.5 l 1
 481.058 295.5 l 1
 622.13 295.5 l 1
 608.738 251.5 l 1
 467.674 251.5 l 1
 396.674 12.5 l 1
 348.753 12.5 l 1
 419.753 251.5 l 1
 263.711 251.5 l 1
 191.711 12.5 l 1
 143.82 12.5 l 1
 215.82 251.5 l 1
 73.8701 251.5 l 1
 87.2617 295.5 l 1
 229.223 295.5 l 1
 278.942 456.5 l 1
 137.87 456.5 l 1
 151.262 500.5 l 1
 292.245 500.5 l 1
 356.245 709.5 l 1
 405.021 709.5 l 1
 340.021 500.5 l 1
 497.245 500.5 l 1
 561.245 709.5 l 1
 609.1 709.5 l 1
 545.1 500.5 l 1
 686.13 500.5 l 1
434.223 295.5 m 1
 483.942 456.5 l 1
 326.842 456.5 l 1
 275.938 295.5 l 1
 434.223 295.5 l 1
EndSplineSet
EndChar

StartChar: dollar
Encoding: 7 36 7
Width: 519
Flags: MW
LayerCount: 3
Fore
SplineSet
48.7891 522 m 0
 48.7891 602.633 94.0684 701.5 238.426 701.5 c 2
 249.53 701.5 l 1
 249.53 782.5 l 1
 272.625 782.5 l 1
 272.625 702.5 l 1
 283.729 702.5 l 2
 386.01 702.5 445.06 637.227 449.517 536.5 c 1
 373.598 536.5 l 1
 371.389 605.163 350.5 639.5 283.729 639.5 c 2
 272.625 639.5 l 1
 272.625 397.93 l 1
 281.366 395.786 l 2
 340.611 381.258 382.66 367.033 401.777 355.33 c 0
 453.172 323.867 478.789 270.444 478.789 195 c 0
 478.789 69.6543 409.714 7.00781 283.115 -0.519531 c 2
 272.625 -1.17188 l 1
 272.625 -91.5 l 1
 249.53 -91.5 l 1
 249.53 -1.5 l 1
 238.426 -1.5 l 2
 116.564 -1.5 44.3682 68.6816 40 196.5 c 1
 116.045 196.5 l 1
 120.518 89.6064 180.358 60.5 238.426 60.5 c 2
 249.53 60.5 l 1
 249.53 331.76 l 1
 241.119 334.127 l 2
 131.476 364.088 48.7891 387.964 48.7891 522 c 0
238.426 639.5 m 2
 136.356 639.5 125.789 586.084 125.789 519 c 0
 125.789 480.605 135.563 450.884 159.597 435.442 c 0
 160.056 435.143 160.487 434.875 160.648 434.774 c 0
 161.024 434.54 161.17 434.454 161.554 434.236 c 0
 161.916 434.03 161.796 434.091 162.462 433.739 c 0
 176.177 426.496 227.983 410.352 235.395 407.975 c 2
 249.53 403.459 l 1
 249.53 639.5 l 1
 238.426 639.5 l 2
283.911 61.502 m 2
 377.948 63.1982 401.789 112.913 401.789 187 c 0
 401.789 236.638 390.707 273.942 364.22 295.662 c 0
 351.489 306.854 325.893 317.507 286.538 329.094 c 2
 272.625 333.189 l 1
 272.625 61.293 l 1
 283.911 61.502 l 2
EndSplineSet
EndChar

StartChar: percent
Encoding: 8 37 8
Width: 892
Flags: MW
LayerCount: 3
Fore
SplineSet
670.565 367.5 m 0
 767.883 367.5 835 303.646 835 188 c 0
 835 43.1211 736.276 8.5 670.565 8.5 c 0
 570.953 8.5 512.414 78.417 512.414 188 c 0
 512.414 297.491 570.866 367.5 670.565 367.5 c 0
627.826 723.5 m 1
 666.288 723.5 l 1
 272.774 -1.5 l 1
 234.312 -1.5 l 1
 627.826 723.5 l 1
220.48 713.5 m 0
 315.449 713.5 379.586 649.646 379.586 534 c 0
 379.586 389.121 285.246 354.5 220.48 354.5 c 0
 118.26 354.5 57 424.417 57 534 c 0
 57 643.491 118.168 713.5 220.48 713.5 c 0
774 188 m 0
 774 279.504 737.89 327.5 670.565 327.5 c 0
 604.274 327.5 569.75 279.503 569.75 188 c 0
 569.75 67.3096 630.239 49.5 670.565 49.5 c 0
 710.891 49.5 774 67.3096 774 188 c 0
321.295 534 m 0
 321.295 625.504 286.788 673.5 220.48 673.5 c 0
 153.129 673.5 117 625.503 117 534 c 0
 117 413.31 180.153 395.5 220.48 395.5 c 0
 260.806 395.5 321.295 413.31 321.295 534 c 0
EndSplineSet
EndChar

StartChar: ampersand
Encoding: 9 38 9
Width: 777
Flags: MW
LayerCount: 3
Fore
SplineSet
647.472 409.5 m 1
 646.937 299.235 636.303 232.332 591.043 144.242 c 1
 624.713 104.966 663.804 66.7065 726.243 12.5 c 1
 630.392 12.5 l 1
 613.258 26.5782 580.828 57.0531 548.63 87.6436 c 1
 478.459 30.422 408.33 -0.5 314 -0.5 c 0
 180.004 -0.5 81.5 86.7568 81.5 207 c 0
 81.5 336.527 165.607 378.556 247.092 416.582 c 1
 208.347 462.463 160.5 513.433 160.5 578 c 0
 160.5 664.948 233.907 723.5 328 723.5 c 0
 428.916 723.5 497.5 673.3 497.5 598 c 0
 497.5 502.378 410.326 456.97 335.041 414.688 c 1
 374.119 365.844 416.778 319.156 548.888 185.231 c 1
 552.716 197.926 574.5 262.493 574.5 314 c 0
 574.5 321.611 571.501 360.823 567.558 409.5 c 1
 647.472 409.5 l 1
432.348 553.758 m 0
 438.261 566.639 440.5 578.399 440.5 589 c 0
 440.5 639.385 392.187 673.5 340 673.5 c 0
 246.75 673.5 234.5 617.763 234.5 585 c 0
 234.5 530.492 278.319 476.901 301.333 448.73 c 1
 371.181 479.46 407.831 500.348 432.348 553.758 c 0
155.5 210 m 0
 155.5 144.151 228.852 59.5 317 59.5 c 0
 435.741 59.5 489.4 109.311 514.901 132.146 c 1
 489.295 154.371 408.832 220.88 278.666 377.96 c 1
 194.85 358.01 155.5 269.949 155.5 210 c 0
EndSplineSet
EndChar

StartChar: quotesingle
Encoding: 10 39 10
Width: 405
Flags: MW
LayerCount: 3
Fore
SplineSet
241.462 709.5 m 1
 220.458 446.5 l 1
 183.542 446.5 l 1
 162.538 709.5 l 1
 241.462 709.5 l 1
EndSplineSet
EndChar

StartChar: parenleft
Encoding: 11 40 11
Width: 384
Flags: MW
LayerCount: 3
Fore
SplineSet
262.416 -119.5 m 1
 223.432 -119.5 l 1
 151.389 14.1836 115.5 154.46 115.5 302 c 0
 115.5 469.992 161.779 609.661 223.415 723.5 c 1
 262.393 723.5 l 1
 211.217 574.615 185.5 434.101 185.5 302 c 0
 185.5 170.509 211.227 30.001 262.416 -119.5 c 1
EndSplineSet
EndChar

StartChar: parenright
Encoding: 12 41 12
Width: 384
Flags: MW
LayerCount: 3
Fore
SplineSet
268.5 302 m 0
 268.5 154.46 232.611 14.1836 160.568 -119.5 c 1
 121.584 -119.5 l 1
 172.773 30.001 198.5 170.509 198.5 302 c 0
 198.5 434.101 172.783 574.615 121.607 723.5 c 1
 160.585 723.5 l 1
 222.221 609.661 268.5 469.992 268.5 302 c 0
EndSplineSet
EndChar

StartChar: asterisk
Encoding: 13 42 13
Width: 689
Flags: MW
LayerCount: 3
Fore
SplineSet
532.5 502.191 m 5
 352.181 525.142 l 5
 462.37 378.949 l 5
 414.965 352.613 l 5
 345 513.314 l 5
 275.003 352.54 l 5
 226.681 379.018 l 5
 336.819 525.142 l 5
 156.5 502.191 l 5
 156.5 555.809 l 5
 336.819 532.858 l 5
 226.774 678.858 l 5
 274.976 704.609 l 5
 345 544.865 l 5
 414.993 704.537 l 5
 462.276 678.926 l 5
 352.181 532.858 l 5
 532.5 555.809 l 5
 532.5 502.191 l 5
EndSplineSet
EndChar

StartChar: plus
Encoding: 14 43 14
Width: 1054
Flags: MW
LayerCount: 3
Fore
SplineSet
814.5 281.5 m 1
 545.5 281.5 l 1
 545.5 12.5 l 1
 508.5 12.5 l 1
 508.5 281.5 l 1
 239.5 281.5 l 1
 239.5 318.5 l 1
 508.5 318.5 l 1
 508.5 587.5 l 1
 545.5 587.5 l 1
 545.5 318.5 l 1
 814.5 318.5 l 1
 814.5 281.5 l 1
EndSplineSet
EndChar

StartChar: comma
Encoding: 15 44 15
Width: 288
Flags: MW
LayerCount: 3
Fore
SplineSet
214.844 110.5 m 1
 115.844 -114.5 l 1
 69.8545 -114.5 l 1
 123.854 110.5 l 1
 214.844 110.5 l 1
EndSplineSet
EndChar

StartChar: hyphen
Encoding: 16 45 16
Width: 332
Flags: MW
LayerCount: 3
Fore
SplineSet
273.5 215.5 m 1
 58.5 215.5 l 1
 58.5 272.5 l 1
 273.5 272.5 l 1
 273.5 215.5 l 1
EndSplineSet
EndChar

StartChar: period
Encoding: 17 46 17
Width: 299
Flags: MW
LayerCount: 3
Fore
SplineSet
206.5 12.5 m 1
 123.5 12.5 l 1
 123.5 110.5 l 1
 206.5 110.5 l 1
 206.5 12.5 l 1
EndSplineSet
EndChar

StartChar: slash
Encoding: 18 47 18
Width: 407
Flags: MW
LayerCount: 3
Fore
SplineSet
339.208 723.5 m 1
 110.695 -39.5 l 1
 67.792 -39.5 l 1
 296.305 723.5 l 1
 339.208 723.5 l 1
EndSplineSet
EndChar

StartChar: zero
Encoding: 19 48 19
Width: 573
Flags: MW
LayerCount: 3
Fore
SplineSet
287 723.5 m 0
 460.2 723.5 503.5 587.229 503.5 375 c 0
 503.5 159.386 460.031 -1.5 287 -1.5 c 0
 114.039 -1.5 69.5 161.599 69.5 375 c 0
 69.5 583.93 113 723.5 287 723.5 c 0
141.5 375 m 0
 141.5 240.079 150.079 57.5 287 57.5 c 0
 422.286 57.5 431.5 238.8 431.5 375 c 0
 431.5 510.438 423.002 664.5 287 664.5 c 0
 150.563 664.5 141.5 514.245 141.5 375 c 0
EndSplineSet
EndChar

StartChar: one
Encoding: 20 49 20
Width: 602
Flags: MW
LayerCount: 3
Fore
SplineSet
384.5 12.5 m 1
 316.5 12.5 l 1
 316.5 628.688 l 1
 288.831 605.629 228.124 552.406 160.5 534.576 c 1
 160.5 593.114 l 1
 218.18 614.228 266.177 653.438 303.742 709.5 c 1
 384.5 709.5 l 1
 384.5 12.5 l 1
EndSplineSet
EndChar

StartChar: two
Encoding: 21 50 21
Width: 577
Flags: MW
LayerCount: 3
Fore
SplineSet
493.5 540 m 0
 493.5 395.361 435.814 296.866 145.232 65.5 c 1
 493.5 65.5 l 1
 493.5 12.5 l 1
 83.5 12.5 l 1
 83.5 86.8203 l 1
 392.831 323.671 418.5 435.754 418.5 526 c 0
 418.5 634.537 369.5 665.5 296 665.5 c 0
 247.486 665.5 187.414 644.273 171.996 538.5 c 1
 94.7041 538.5 l 1
 108.053 661.188 172.656 723.5 296 723.5 c 0
 423.298 723.5 493.5 633.564 493.5 540 c 0
EndSplineSet
EndChar

StartChar: three
Encoding: 22 51 22
Width: 569
Flags: MW
LayerCount: 3
Fore
SplineSet
505.5 193 m 0
 505.5 78.6602 410.728 -1.5 281 -1.5 c 0
 145.599 -1.5 69.5713 75.7666 63.8486 177.5 c 1
 145.856 177.5 l 1
 157.428 92.457 205.5 50.5 284 50.5 c 0
 357.473 50.5 430.5 109.465 430.5 185 c 0
 430.5 297.982 387.033 344.91 283.5 348.301 c 1
 283.5 403.7 l 1
 376.506 406.773 418.5 445.681 418.5 553 c 0
 418.5 626.938 363.088 671.5 281 671.5 c 0
 215.498 671.5 173.706 628.493 156.669 546.5 c 1
 80.3818 546.5 l 1
 99.041 664.129 163.163 723.5 279 723.5 c 0
 418.521 723.5 493.5 639.721 493.5 546 c 0
 493.5 432.075 441.148 400.562 408.399 379.165 c 1
 466.108 340.246 505.5 320.666 505.5 193 c 0
EndSplineSet
EndChar

StartChar: four
Encoding: 23 52 23
Width: 567
Flags: MW
LayerCount: 3
Fore
SplineSet
520.5 188.5 m 1
 431.5 188.5 l 1
 431.5 12.5 l 1
 363.5 12.5 l 1
 363.5 188.5 l 1
 46.5 188.5 l 1
 46.5 277.151 l 1
 340.615 709.5 l 1
 431.5 709.5 l 1
 431.5 246.5 l 1
 520.5 246.5 l 1
 520.5 188.5 l 1
90.5518 246.5 m 1
 363.5 246.5 l 1
 363.5 653.043 l 1
 90.5518 246.5 l 1
EndSplineSet
EndChar

StartChar: five
Encoding: 24 53 24
Width: 573
Flags: MW
LayerCount: 3
Fore
SplineSet
315.755 467.505 m 1
 441.472 462.575 497.875 355.596 500.508 237.139 c 1
 495.213 117.997 407.653 -0.5 297 -0.5 c 0
 168.979 -0.5 79.0039 51.2998 72.8379 163.5 c 1
 152.94 163.5 l 1
 159.102 78.1865 228.916 54.5029 286.189 54.5029 c 1
 383.289 57.4453 424.5 153.868 424.5 235 c 0
 424.5 366.711 372.3 418.5 294 418.5 c 0
 238.032 418.5 186.754 390.677 152.766 314.5 c 1
 83.8926 314.5 l 1
 96.1191 709.5 l 1
 454.5 709.5 l 1
 454.5 651.5 l 1
 170.144 651.5 l 1
 155.381 372.238 l 1
 187.487 414.309 217.638 467.505 315.755 467.505 c 1
EndSplineSet
EndChar

StartChar: six
Encoding: 25 54 25
Width: 569
Flags: MW
LayerCount: 3
Fore
SplineSet
304 433.5 m 0
 437.253 433.5 504.5 354.688 504.5 216 c 0
 504.5 125.971 464.319 -1.5 293 -1.5 c 0
 194.142 -1.5 131.598 27.959 100.966 83.999 c 0
 77.5186 126.895 64.5 212.061 64.5 343 c 0
 64.5 622.622 157.1 723.5 296 723.5 c 0
 418.379 723.5 466.226 666.749 482.611 562.5 c 1
 412.334 562.5 l 1
 403.321 635.541 361.751 671.5 294 671.5 c 0
 170.451 671.5 137.26 517.056 137.26 375.173 c 0
 137.26 363.729 137.278 363.725 138.307 317.956 c 1
 191.964 388.556 212.995 433.5 304 433.5 c 0
289 50.5 m 0
 344.4 50.5 427.5 71.4814 427.5 216 c 0
 427.5 360.519 344.4 381.5 289 381.5 c 0
 233.2 381.5 149.5 360.606 149.5 216 c 0
 149.5 71.3936 233.2 50.5 289 50.5 c 0
EndSplineSet
EndChar

StartChar: seven
Encoding: 26 55 26
Width: 573
Flags: MW
LayerCount: 3
Fore
SplineSet
496.5 624.282 m 1
 265.36 12.5 l 1
 182.415 12.5 l 1
 437.415 654.5 l 1
 76.5 654.5 l 1
 76.5 709.5 l 1
 496.5 709.5 l 1
 496.5 624.282 l 1
EndSplineSet
EndChar

StartChar: eight
Encoding: 27 56 27
Width: 571
Flags: MW
LayerCount: 3
Fore
SplineSet
287 723.5 m 0
 401.689 723.5 489.5 658.83 489.5 559 c 0
 489.5 446.392 412.621 410.132 353.676 382.657 c 1
 409.775 358.037 510.5 317.36 510.5 185 c 0
 510.5 61.3955 408.163 -0.5 287 -0.5 c 0
 164.83 -0.5 61.5 61.7529 61.5 185 c 0
 61.5 304.249 137.544 347.74 215.819 382.595 c 1
 166.664 406.103 83.5 441.856 83.5 559 c 0
 83.5 659.139 171.88 723.5 287 723.5 c 0
150.5 539 m 0
 150.5 459.247 211.675 407.5 287 407.5 c 0
 362.325 407.5 423.5 459.247 423.5 539 c 0
 423.5 619.842 373.561 671.5 287 671.5 c 0
 200.397 671.5 150.5 619.866 150.5 539 c 0
438.5 205 m 0
 438.5 296.023 380.604 355.5 287 355.5 c 0
 190.067 355.5 131.5 294.085 131.5 205 c 0
 131.5 109.27 179.575 51.5 287 51.5 c 0
 381.437 51.5 438.5 99.0107 438.5 205 c 0
EndSplineSet
EndChar

StartChar: nine
Encoding: 28 57 28
Width: 569
Flags: MW
LayerCount: 3
Fore
SplineSet
64.5 506 m 0
 64.5 596.029 104.681 723.5 276 723.5 c 0
 369.473 723.5 436.074 697.466 468.029 639.009 c 0
 491.622 595.848 504.5 510.683 504.5 379 c 0
 504.5 99.3779 411.9 -1.5 273 -1.5 c 0
 150.621 -1.5 102.775 55.251 86.3896 159.5 c 1
 156.666 159.5 l 1
 165.679 86.459 207.249 50.5 275 50.5 c 0
 350.086 50.5 397.326 108.013 419.227 213.403 c 0
 427.13 251.438 431.75 295.457 431.75 346.16 c 0
 431.75 357.737 431.734 357.741 430.693 404.045 c 1
 377.038 333.444 356.005 288.5 265 288.5 c 4
 131.747 288.5 64.5 367.312 64.5 506 c 0
280 340.5 m 0
 335.8 340.5 419.5 361.394 419.5 506 c 0
 419.5 650.606 335.8 671.5 280 671.5 c 0
 224.6 671.5 141.5 650.519 141.5 506 c 0
 141.5 361.481 224.6 340.5 280 340.5 c 0
EndSplineSet
EndChar

StartChar: colon
Encoding: 29 58 29
Width: 299
Flags: MW
LayerCount: 3
Fore
SplineSet
206.5 389.5 m 1
 123.5 389.5 l 1
 123.5 487.5 l 1
 206.5 487.5 l 1
 206.5 389.5 l 1
206.5 12.5 m 1
 123.5 12.5 l 1
 123.5 110.5 l 1
 206.5 110.5 l 1
 206.5 12.5 l 1
EndSplineSet
EndChar

StartChar: semicolon
Encoding: 30 59 30
Width: 288
Flags: MW
LayerCount: 3
Fore
SplineSet
199.5 389.5 m 1
 116.5 389.5 l 1
 116.5 487.5 l 1
 199.5 487.5 l 1
 199.5 389.5 l 1
214.844 110.5 m 1
 115.844 -114.5 l 1
 69.8545 -114.5 l 1
 123.854 110.5 l 1
 214.844 110.5 l 1
EndSplineSet
EndChar

StartChar: less
Encoding: 31 60 31
Width: 1054
Flags: MW
LayerCount: 3
Fore
SplineSet
814.5 57.1787 m 1
 239.5 277.596 l 1
 239.5 322.404 l 1
 814.5 542.821 l 1
 814.5 507.692 l 1
 255.086 300 l 1
 814.5 92.3076 l 1
 814.5 57.1787 l 1
EndSplineSet
EndChar

StartChar: equal
Encoding: 32 61 32
Width: 1054
Flags: MW
LayerCount: 3
Fore
SplineSet
814.5 372.5 m 1
 239.5 372.5 l 1
 239.5 409.5 l 1
 814.5 409.5 l 1
 814.5 372.5 l 1
814.5 190.5 m 1
 239.5 190.5 l 1
 239.5 227.5 l 1
 814.5 227.5 l 1
 814.5 190.5 l 1
EndSplineSet
EndChar

StartChar: greater
Encoding: 33 62 33
Width: 1054
Flags: MW
LayerCount: 3
Fore
SplineSet
814.5 277.596 m 1
 239.5 57.1787 l 1
 239.5 92.3076 l 1
 798.914 300 l 1
 239.5 507.692 l 1
 239.5 542.821 l 1
 814.5 322.404 l 1
 814.5 277.596 l 1
EndSplineSet
EndChar

StartChar: question
Encoding: 34 63 34
Width: 527
Flags: MW
LayerCount: 3
Fore
SplineSet
237 723.5 m 0
 354.568 723.5 450.5 656.1 450.5 555 c 0
 450.5 518.007 435.096 481.436 401.739 444.396 c 0
 393.375 435.107 344.5 394.33 305.898 361.519 c 0
 273.291 333.802 249.5 304.439 249.5 277 c 2
 249.5 177.5 l 1
 194.5 177.5 l 1
 194.5 293 l 2
 194.5 330.726 283.361 387.408 326.294 433.644 c 1
 355.453 467.146 376.5 508.317 376.5 558 c 0
 376.5 615.99 319.775 654.65 246.77 654.65 c 0
 244.045 654.65 241.308 654.593 238.532 654.491 c 0
 163.545 651.759 125.908 641.646 89.6006 580.616 c 1
 44.5361 609.293 l 1
 87.3818 685.18 150.734 723.5 237 723.5 c 0
259.5 12.5 m 1
 184.5 12.5 l 1
 184.5 82.5 l 1
 259.5 82.5 l 1
 259.5 12.5 l 1
EndSplineSet
EndChar

StartChar: at
Encoding: 35 64 35
Width: 1018
Flags: MW
LayerCount: 3
Fore
SplineSet
500 703.5 m 0
 771.8 703.5 936.5 560.226 936.5 298 c 0
 936.5 149.704 851.76 33.5 748 33.5 c 0
 665.368 33.5 637.519 97.1221 616.012 143.56 c 1
 592.681 101.565 560.592 38.5 465 38.5 c 0
 373.292 38.5 299.5 130.161 299.5 259 c 0
 299.5 393.369 365.7 479.5 465 479.5 c 0
 551.143 479.5 556.743 456.699 618.5 396.285 c 1
 618.5 472.5 l 1
 683.5 472.5 l 1
 683.5 147.362 l 1
 693.453 110.017 711.862 94.6162 761.589 94.6162 c 4
 802.753 94.6162 864.5 144.298 864.5 298 c 0
 864.5 471.663 793.2 638.5 508 638.5 c 0
 303.021 638.5 152.5 517.271 152.5 291 c 0
 152.5 42.4453 281.745 -100.5 519 -100.5 c 0
 578.849 -100.5 631.653 -95.373 677.5 -84.9365 c 1
 677.5 -142.973 l 1
 630.656 -157.975 580.883 -165.5 528 -165.5 c 0
 322.044 -165.5 81.5 -77.5889 81.5 290 c 0
 81.5 416.235 124.734 517.835 211.356 595.704 c 0
 296.577 672.313 395.293 703.5 500 703.5 c 0
369.5 266 m 0
 369.5 134.082 418.5 82.5 492 82.5 c 0
 565.5 82.5 614.5 158.963 614.5 266 c 0
 614.5 357.611 577.283 434.5 492 434.5 c 0
 406.435 434.5 369.5 356.308 369.5 266 c 0
EndSplineSet
EndChar

StartChar: A
Encoding: 36 65 36
Width: 704
Flags: MW
LayerCount: 3
Fore
SplineSet
387.9 709.5 m 1
 674.3 12.5 l 1
 595.629 12.5 l 1
 519.702 205.5 l 1
 169.841 205.5 l 1
 92.8086 12.5 l 1
 17 12.5 l 1
 299.758 709.5 l 1
 387.9 709.5 l 1
489.775 265.5 m 1
 341.802 643.957 l 1
 197.045 265.5 l 1
 489.775 265.5 l 1
EndSplineSet
EndChar

StartChar: B
Encoding: 37 66 37
Width: 644
Flags: MW
LayerCount: 3
Fore
SplineSet
354.808 709.5 m 2
 465.502 709.5 549 651.557 549 544 c 0
 549 455.644 489.387 416.928 436.145 396.739 c 2
 404.881 384.124 l 1
 436.629 373.079 l 2
 507.564 350.107 575 304.247 575 201 c 0
 575 93.5684 482.431 12.5 378.382 12.5 c 2
 92 12.5 l 1
 92 709.5 l 1
 354.808 709.5 l 2
481 530 m 0
 481 600.5 435.73 647.5 327.606 647.5 c 2
 168 647.5 l 1
 168 407.5 l 1
 325.793 407.5 l 2
 435.175 407.5 481 456.5 481 530 c 0
325.793 74.5 m 2
 427.093 74.5 503 129.5 503 212 c 0
 503 294.5 448.606 349.5 321.259 349.5 c 2
 168 349.5 l 1
 168 74.5 l 1
 325.793 74.5 l 2
EndSplineSet
EndChar

StartChar: C
Encoding: 38 67 38
Width: 648
Flags: MW
LayerCount: 3
Fore
SplineSet
146 355.756 m 0
 146 115.496 225.239 42 338.626 42 c 0
 447.776 42 497.719 91.8906 502.607 168 c 1
 578.608 168 l 1
 571.973 62.9941 481.298 -14 339.541 -14 c 0
 155.748 -14 69 133.677 69 355.827 c 0
 69 584.271 156.876 736 341.371 736 c 0
 471.497 736 568.589 677.116 574.694 554 c 1
 498.634 554 l 1
 495.31 609.372 467.289 682 342.286 682 c 0
 226.704 682 146 591.766 146 355.756 c 0
EndSplineSet
EndChar

StartChar: D
Encoding: 39 68 39
Width: 691
Flags: MW
LayerCount: 3
Fore
SplineSet
297.159 709.5 m 2
 556.484 709.5 622 525.259 622 362 c 0
 622 205.823 555.257 12.5 297.159 12.5 c 2
 92 12.5 l 1
 92 709.5 l 1
 297.159 709.5 l 2
299 74.5 m 2
 452.847 74.5 548 183.313 548 362 c 0
 548 541.499 454.172 647.5 299 647.5 c 2
 168 647.5 l 1
 168 74.5 l 1
 299 74.5 l 2
EndSplineSet
EndChar

StartChar: E
Encoding: 40 69 40
Width: 579
Flags: MW
LayerCount: 3
Fore
SplineSet
499 74.5 m 1
 499 12.5 l 1
 92 12.5 l 1
 92 709.5 l 1
 489 709.5 l 1
 489 647.5 l 1
 168 647.5 l 1
 168 400.5 l 1
 479 400.5 l 1
 479 338.5 l 1
 168 338.5 l 1
 168 74.5 l 1
 499 74.5 l 1
EndSplineSet
EndChar

StartChar: F
Encoding: 41 70 41
Width: 542
Flags: MW
LayerCount: 3
Fore
SplineSet
462 709.5 m 1
 462 647.5 l 1
 168 647.5 l 1
 168 400.5 l 1
 442 400.5 l 1
 442 338.5 l 1
 168 338.5 l 1
 168 12.5 l 1
 92 12.5 l 1
 92 709.5 l 1
 462 709.5 l 1
EndSplineSet
EndChar

StartChar: G
Encoding: 42 71 42
Width: 730
Flags: MW
LayerCount: 3
Fore
SplineSet
147 389.104 m 0
 147 190.719 222.985 49 387.648 49 c 0
 458.189 49 504.872 59.1232 564 77.5312 c 1
 564 310.5 l 1
 408.583 310.5 l 1
 408.583 372.5 l 1
 640 372.5 l 1
 640 33.79 l 1
 554.069 1.86328 473.985 -14 397.883 -14 c 0
 205.562 -14 69 92.6143 69 391 c 0
 69 590.595 202.245 736 390.44 736 c 0
 549.826 736 636.424 637.37 643.387 567 c 5
 566.617 567 l 1
 556.435 614.548 492.895 674 398.814 674 c 0
 238.591 674 147 569.059 147 389.104 c 0
EndSplineSet
EndChar

StartChar: H
Encoding: 43 72 43
Width: 683
Flags: MW
LayerCount: 3
Fore
SplineSet
591 709.5 m 1
 591 12.5 l 1
 515 12.5 l 1
 515 338.5 l 1
 168 338.5 l 1
 168 12.5 l 1
 92 12.5 l 1
 92 709.5 l 1
 168 709.5 l 1
 168 400.5 l 1
 515 400.5 l 1
 515 709.5 l 1
 591 709.5 l 1
EndSplineSet
EndChar

StartChar: I
Encoding: 44 73 44
Width: 260
Flags: MW
LayerCount: 3
Fore
SplineSet
168 709.5 m 1
 168 12.5 l 1
 92 12.5 l 1
 92 709.5 l 1
 168 709.5 l 1
EndSplineSet
EndChar

StartChar: J
Encoding: 45 74 45
Width: 540
Flags: MW
LayerCount: 3
Fore
SplineSet
256.954 49 m 0
 321.89 49 371.702 109.896 371.702 202.5 c 2
 371.702 697 l 1
 447.702 697 l 1
 447.702 202.5 l 2
 447.702 71.8389 363.252 -14 252.718 -14 c 0
 148.808 -14 74.2627 59.7578 69 169 c 1
 142.303 169 l 1
 148.271 88.4756 192.557 49 256.954 49 c 0
EndSplineSet
EndChar

StartChar: K
Encoding: 46 75 46
Width: 607
Flags: HMW
LayerCount: 3
Fore
SplineSet
168.058 387 m 1
 462.279 12.5 l 1
 564.737 12.5 l 1
 249.687 411.692 l 1
 524.597 709.5 l 1
 436.584 709.5 l 1
 168.105 408.8 l 1
 168 709.5 l 1
 92 709.5 l 1
 92 12.5 l 1
 168 12.5 l 1
 168.058 387 l 1
EndSplineSet
EndChar

StartChar: L
Encoding: 47 76 47
Width: 496
Flags: MW
LayerCount: 3
Fore
SplineSet
462 74.5 m 1
 462 12.5 l 1
 92 12.5 l 1
 92 709.5 l 1
 168 709.5 l 1
 168 74.5 l 1
 462 74.5 l 1
EndSplineSet
EndChar

StartChar: M
Encoding: 48 77 48
Width: 824
Flags: MW
LayerCount: 3
Fore
SplineSet
732 709.5 m 1
 732 12.5 l 1
 656 12.5 l 1
 656 425.1 655.96 631.838 655.759 631.288 c 9
 440.658 12.5 l 1
 381.449 12.5 l 1
 177.376 599.991 168 622 168 622 c 9
 168 12.5 l 1
 92 12.5 l 1
 92 709.5 l 1
 204.771 709.5 l 1
 411 103.171 l 1
 619.202 709.5 l 1
 732 709.5 l 1
EndSplineSet
EndChar

StartChar: N
Encoding: 49 78 49
Width: 697
Flags: MW
LayerCount: 3
Fore
SplineSet
605 709.5 m 1
 605 12.5 l 1
 481.312 12.5 l 1
 168 641.686 l 1
 168 12.5 l 1
 92 12.5 l 1
 92 709.5 l 1
 214.781 709.5 l 1
 529 80.4512 l 1
 529 709.5 l 1
 605 709.5 l 1
EndSplineSet
EndChar

StartChar: O
Encoding: 50 79 50
Width: 742
Flags: MW
LayerCount: 3
Fore
SplineSet
371.936 736 m 0
 563.092 736 673 596.724 673 375.482 c 0
 673 148.686 558.914 -14 371.936 -14 c 0
 184.316 -14 69 146.902 69 375.482 c 0
 69 598.111 179.887 736 371.936 736 c 0
371.936 49 m 0
 528.649 49 595 185.507 595 375.562 c 0
 595 590.548 504.155 674 371.936 674 c 0
 238.594 674 147 590.732 147 375.562 c 0
 147 186.227 215.137 49 371.936 49 c 0
EndSplineSet
EndChar

StartChar: P
Encoding: 51 80 51
Width: 594
Flags: MW
LayerCount: 3
Fore
SplineSet
275.3 709.5 m 2
 418.171 709.5 525 670.4 525 514 c 0
 525 357.6 418.171 318.5 275.3 318.5 c 2
 168 318.5 l 1
 168 12.5 l 1
 92 12.5 l 1
 92 709.5 l 1
 275.3 709.5 l 2
277.956 381.5 m 2
 413.458 381.5 453 434.5 453 514 c 0
 453 594.1 412.301 647.5 277.956 647.5 c 2
 168 647.5 l 1
 168 381.5 l 1
 277.956 381.5 l 2
EndSplineSet
EndChar

StartChar: Q
Encoding: 52 81 52
Width: 748
Flags: MW
LayerCount: 3
Fore
SplineSet
373.134 736 m 0
 564.889 736 673 596.724 673 375.482 c 0
 673 157.162 591.017 89.1169 548.193 46 c 5
 714 46 l 1
 714 0.482422 l 1
 460.649 0.0830078 l 1
 426.791 -9.38281 397.538 -14 373.134 -14 c 0
 184.316 -14 69 146.902 69 375.482 c 0
 69 598.111 179.887 736 373.134 736 c 0
373.134 49 m 0
 530.873 49 595 185.507 595 375.562 c 0
 595 590.548 506.218 674 373.134 674 c 0
 238.919 674 147 590.732 147 375.562 c 0
 147 186.227 215.309 49 373.134 49 c 0
EndSplineSet
EndChar

StartChar: R
Encoding: 53 82 53
Width: 597
Flags: MW
LayerCount: 3
Fore
SplineSet
298.327 709.5 m 2
 436.646 709.5 531 669.546 531 525 c 0
 531 470.617 491.56 422.21 405.358 380.295 c 2
 380.223 366.975 l 1
 406.612 357.142 l 2
 448.46 342.504 478.31 316.69 489.877 287.401 c 0
 505.877 246.89 509.217 122.531 544.137 12.5 c 1
 470.056 12.5 l 1
 433.609 223.507 414.173 291.749 385.763 316.813 c 0
 368.463 332.076 330.93 340.5 262.544 340.5 c 2
 168 340.5 l 1
 168 12.5 l 1
 92 12.5 l 1
 92 709.5 l 1
 298.327 709.5 l 2
455 525 m 0
 455 598.5 407.512 647.5 295.643 647.5 c 2
 168 647.5 l 1
 168 402.5 l 1
 295.643 402.5 l 2
 407.512 402.5 455 451.5 455 525 c 0
EndSplineSet
EndChar

StartChar: S
Encoding: 54 83 54
Width: 630
Flags: MW
LayerCount: 3
Fore
SplineSet
531.388 565 m 1
 455.47 565 l 1
 450.584 651.885 385.698 674 295.631 674 c 0
 173.953 674 154.722 595.237 154.722 542.73 c 0
 154.722 470.443 215.32 437.994 268.21 422.255 c 2
 457.011 366.507 l 1
 527.41 332.87 560.722 276.195 560.722 196.136 c 0
 560.722 50.2314 438.587 -14 285.625 -14 c 0
 165.894 -14 74.6494 64.1436 69 190 c 1
 146.166 190 l 1
 151.724 112.158 207.194 49 282.896 49 c 0
 425.897 49 484.722 103.586 484.722 185.466 c 0
 484.722 255.771 443.91 303.272 370.224 325.701 c 1
 181.973 374.305 l 1
 95.043 411.01 78.7217 484.048 78.7217 543.495 c 0
 78.7217 657.017 189.441 736 301.089 736 c 0
 398.996 736 523.985 701.398 531.388 565 c 1
EndSplineSet
EndChar

StartChar: T
Encoding: 55 84 55
Width: 569
Flags: MW
LayerCount: 3
Fore
SplineSet
546 709.5 m 1
 546 647.5 l 1
 319.416 647.5 l 1
 319.416 12.5 l 1
 249.584 12.5 l 1
 249.584 647.5 l 1
 23 647.5 l 1
 23 709.5 l 1
 546 709.5 l 1
EndSplineSet
EndChar

StartChar: U
Encoding: 56 85 56
Width: 711
Flags: MW
LayerCount: 3
Fore
SplineSet
355.04 49 m 0
 465.7 49 543 101.1 543 309.5 c 2
 543 697 l 1
 619 697 l 1
 619 309.5 l 2
 619 97.7803 553.487 -14 355.04 -14 c 0
 156.704 -14 92 97.7256 92 309.5 c 2
 92 697 l 1
 168 697 l 1
 168 309.5 l 2
 168 101.489 244.931 49 355.04 49 c 0
EndSplineSet
EndChar

StartChar: V
Encoding: 57 86 57
Width: 608
Flags: MW
LayerCount: 3
Fore
SplineSet
494.268 709.5 m 1
 580.564 709.5 l 1
 341.652 12.5 l 1
 255.913 12.5 l 1
 17 709.5 l 1
 103.297 709.5 l 1
 298.782 90.7695 l 1
 494.268 709.5 l 1
EndSplineSet
EndChar

StartChar: W
Encoding: 58 87 58
Width: 926
Flags: MW
LayerCount: 3
Fore
SplineSet
820.854 709.5 m 1
 900.516 709.5 l 1
 697.164 12.5 l 1
 628.662 12.5 l 1
 458.758 648.762 l 1
 288.854 12.5 l 1
 220.352 12.5 l 1
 17 709.5 l 1
 96.6621 709.5 l 1
 254.724 101.477 l 1
 410.254 709.5 l 1
 507.261 709.5 l 1
 662.791 101.477 l 1
 820.854 709.5 l 1
EndSplineSet
EndChar

StartChar: X
Encoding: 59 88 59
Width: 660
Flags: MW
LayerCount: 3
Fore
SplineSet
361.419 384.972 m 1
 609.392 12.5 l 1
 511.971 12.5 l 1
 312.102 336.944 l 1
 115.399 12.5 l 1
 28 12.5 l 1
 275.081 384.985 l 1
 61.9443 709.5 l 1
 158.64 709.5 l 1
 325.387 432.739 l 1
 487.287 709.5 l 1
 574.499 709.5 l 1
 361.419 384.972 l 1
EndSplineSet
EndChar

StartChar: Y
Encoding: 60 89 60
Width: 620
Flags: MW
LayerCount: 3
Fore
SplineSet
498.92 709.5 m 1
 583.278 709.5 l 1
 334.991 290.541 l 1
 334.991 12.5 l 1
 264.4 12.5 l 1
 264.4 290.53 l 1
 17 709.5 l 1
 110.456 709.5 l 1
 305.808 349.921 l 1
 498.92 709.5 l 1
EndSplineSet
EndChar

StartChar: Z
Encoding: 61 90 61
Width: 578
Flags: MW
LayerCount: 3
Fore
SplineSet
527 74.5 m 1
 527 12.5 l 1
 51 12.5 l 1
 51 105.73 l 1
 444.969 647.5 l 1
 71 647.5 l 1
 71 709.5 l 1
 517 709.5 l 1
 517 616.27 l 1
 123.031 74.5 l 1
 527 74.5 l 1
EndSplineSet
EndChar

StartChar: bracketleft
Encoding: 62 91 62
Width: 425
Flags: MW
LayerCount: 3
Fore
SplineSet
293.5 -185.5 m 1
 132.5 -185.5 l 1
 132.5 709.5 l 1
 293.5 709.5 l 1
 293.5 683.5 l 1
 193.5 683.5 l 1
 193.5 -159.5 l 1
 293.5 -159.5 l 1
 293.5 -185.5 l 1
EndSplineSet
EndChar

StartChar: backslash
Encoding: 63 92 63
Width: 407
Flags: MW
LayerCount: 3
Fore
SplineSet
339.208 -39.5 m 1
 296.305 -39.5 l 1
 67.792 723.5 l 1
 110.695 723.5 l 1
 339.208 -39.5 l 1
EndSplineSet
EndChar

StartChar: bracketright
Encoding: 64 93 64
Width: 425
Flags: MW
LayerCount: 3
Fore
SplineSet
293.5 -185.5 m 1
 132.5 -185.5 l 1
 132.5 -159.5 l 1
 231.5 -159.5 l 1
 231.5 683.5 l 1
 132.5 683.5 l 1
 132.5 709.5 l 1
 293.5 709.5 l 1
 293.5 -185.5 l 1
EndSplineSet
EndChar

StartChar: asciicircum
Encoding: 65 94 65
Width: 490
Flags: MW
LayerCount: 3
Fore
SplineSet
241.267 758 m 1
 93.874 427.5 l 1
 76.5283 427.5 l 1
 231.001 762.5 l 1
 258.999 762.5 l 1
 413.471 427.5 l 1
 396.126 427.5 l 1
 248.617 758 l 1
 241.267 758 l 1
EndSplineSet
EndChar

StartChar: underscore
Encoding: 66 95 66
Width: 557
Flags: MW
LayerCount: 3
Fore
SplineSet
544.5 -352.5 m 1
 12.5 -352.5 l 1
 12.5 -300.5 l 1
 544.5 -300.5 l 1
 544.5 -352.5 l 1
EndSplineSet
EndChar

StartChar: grave
Encoding: 67 96 67
Width: 235
Flags: MW
LayerCount: 3
Fore
SplineSet
151.21 612.5 m 1
 117.921 612.5 l 1
 -1.61133 758.5 l 1
 65.8291 758.5 l 1
 151.21 612.5 l 1
EndSplineSet
EndChar

StartChar: a
Encoding: 68 97 68
Width: 515
Flags: MW
LayerCount: 3
Fore
SplineSet
260.393 471 m 0
 205.844 471 157.578 446.047 150.74 390 c 1
 82.4004 390 l 1
 87.2891 464.308 137.602 513 256.96 513 c 0
 350.702 513 407.659 483.806 426.856 432.108 c 0
 447.116 377.549 426.964 103.03 446.326 0.648438 c 1
 382.765 0.648438 l 1
 377.519 30.7781 373.834 66.403 370.425 96.2285 c 1
 317.122 28.1617 296.822 -13 225.206 -13 c 0
 138.822 -13 55 42.1797 55 124.948 c 0
 55 267.79 186.725 303.5 293.863 303.5 c 0
 315.962 303.5 338.062 301.5 367.527 301.5 c 1
 370.775 316.118 374 331.27 374 351.117 c 0
 374 412.578 347.028 471 260.393 471 c 0
123 137.324 m 0
 123 73.6963 170.7 29 226.064 29 c 0
 278.719 29 316.243 51.0488 340.161 95.5527 c 1
 361.569 132.793 369 184.684 369 257.376 c 1
 348.35 259.011 319.056 261.5 307.595 261.5 c 0
 229.233 261.5 123 231.052 123 137.324 c 0
EndSplineSet
EndChar

StartChar: b
Encoding: 69 98 69
Width: 557
Flags: MW
LayerCount: 3
Fore
SplineSet
308.439 513 m 0
 436.976 513 500 391.357 500 272.048 c 0
 500 76.9605 386.644 -13 311.073 -13 c 0
 230.199 -13 186.566 36.8066 145 79.835 c 1
 145 0.458008 l 1
 80 0.458008 l 1
 80 722 l 1
 142 722 l 1
 142 401.791 l 1
 172.82 448.593 205.268 513 308.439 513 c 0
286.488 29 m 0
 368.41 29 429 125.462 429 262.44 c 0
 429 384.965 382.846 480 289.122 480 c 0
 198.548 480 143 379.563 143 262.44 c 0
 143 94.4658 204.566 29 286.488 29 c 0
EndSplineSet
EndChar

StartChar: c
Encoding: 70 99 70
Width: 485
Flags: MW
LayerCount: 3
Fore
SplineSet
252.128 30 m 0
 313.421 30 358.497 78.082 363.529 144 c 1
 427.689 144 l 1
 422.523 41.6064 353.125 -13 251.289 -13 c 0
 140.4 -13 57 55.334 57 250 c 0
 57 454.509 136.8 513 243.734 513 c 0
 326.03 513 428.681 482.903 423.816 368 c 1
 360.78 368 l 1
 363.955 415.743 339.383 470 237.858 470 c 0
 173 470 122 408.838 122 250 c 0
 122 91.7744 179.35 30 252.128 30 c 0
EndSplineSet
EndChar

StartChar: d
Encoding: 71 100 71
Width: 558
Flags: MW
LayerCount: 3
Fore
SplineSet
57 237.453 m 0
 57 392.522 125.24 513 242.459 513 c 0
 355.083 513 383.83 450.342 413 404.837 c 1
 413 722 l 1
 478 722 l 1
 478 0 l 1
 413 0 l 1
 413 75.6377 l 1
 374.364 35.2718 333.03 -13 264.425 -13 c 0
 211.715 -13 167.709 12.5312 126.491 55.1836 c 0
 78.709 107.486 57 169.105 57 237.453 c 0
267.939 34 m 0
 349.389 34 410 121.632 410 245.403 c 0
 410 367.317 345.172 478 257.396 478 c 0
 167.435 478 124 364.948 124 251.762 c 0
 124 140.457 179.831 34 267.939 34 c 0
EndSplineSet
EndChar

StartChar: e
Encoding: 72 101 72
Width: 521
Flags: MW
LayerCount: 3
Fore
SplineSet
266.154 513 m 0
 424.688 513 464 388.515 464 284.711 c 0
 464 271.624 463.466 259.546 462.419 248.5 c 1
 129 248.5 l 1
 129 58.6939 208.683 27 261.805 27 c 0
 348.752 27 379.099 95.0146 387.1 134 c 1
 457.696 134 l 1
 444.318 84.4326 401.095 -13 260.935 -13 c 0
 128.636 -13 57 112.287 57 250 c 0
 57 362.5 101.5 513 266.154 513 c 0
391 327.004 m 0
 391 416.681 340.727 474 262.674 474 c 0
 173.025 474 141.368 393.382 127.197 288.5 c 1
 387.09 288.5 l 1
 389.056 300.3 391 310.111 391 327.004 c 0
EndSplineSet
EndChar

StartChar: f
Encoding: 73 102 73
Width: 306
Flags: MW
LayerCount: 3
Fore
SplineSet
111 587.5 m 2
 111 708.434 161.683 732 253.5 732 c 0
 272.822 732 290.291 729.731 306 725.314 c 1
 306 678.66 l 1
 291.53 682.963 274.234 685.617 256.858 685.617 c 0
 192.172 685.617 176 649.992 176 585.5 c 2
 176 500 l 1
 296 500 l 1
 296 460 l 1
 176 460 l 1
 176 25 l 1
 111 25 l 1
 111 460 l 1
 11 460 l 1
 11 500 l 1
 111 500 l 1
 111 587.5 l 2
EndSplineSet
EndChar

StartChar: g
Encoding: 74 103 74
Width: 557
Flags: MW
LayerCount: 3
Fore
SplineSet
248.856 513 m 0
 363.914 513 374.231 474.891 412 415.987 c 1
 412 499.526 l 1
 477 499.526 l 1
 477 25.3535 l 2
 477 -113.479 391.388 -198 261.51 -198 c 0
 136.732 -198 88.7861 -121.576 82.6855 -65 c 1
 151.727 -65 l 1
 158.598 -123.097 209.987 -161 276.875 -161 c 0
 394.9 -161 412 -52.0067 412 125.18 c 1
 379.338 80.9291 339.224 20.7412 256.99 20.7412 c 0
 140.4 20.7412 57 85.5811 57 270.506 c 0
 57 409.554 137.11 513 248.856 513 c 0
267.837 78 m 0
 364.718 78 410.192 160.86 410.192 277.5 c 0
 410.192 418.45 351.442 474 263.317 474 c 0
 183.327 474 125 418.967 125 279.5 c 0
 125 168.938 170.174 78 267.837 78 c 0
EndSplineSet
EndChar

StartChar: h
Encoding: 75 104 75
Width: 543
Flags: MW
LayerCount: 3
Fore
SplineSet
297.461 513 m 0
 396.265 513 463 474.016 463 323.5 c 2
 463 25 l 1
 398 25 l 1
 398 327.5 l 2
 398 413.331 351 473 289.801 473 c 0
 203.948 473 145 408.191 145 353.5 c 2
 145 25 l 1
 80 25 l 1
 80 722 l 1
 145 722 l 1
 145 404.707 l 1
 175.01 454.29 200.829 513 297.461 513 c 0
EndSplineSet
EndChar

StartChar: i
Encoding: 76 105 76
Width: 221
Flags: MW
LayerCount: 3
Fore
SplineSet
146 722 m 1
 146 655 l 1
 75 655 l 1
 75 722 l 1
 146 722 l 1
143 487.5 m 1
 143 12.5 l 1
 78 12.5 l 1
 78 487.5 l 1
 143 487.5 l 1
EndSplineSet
EndChar

StartChar: j
Encoding: 77 106 77
Width: 266
Flags: MW
LayerCount: 3
Fore
SplineSet
185.363 722 m 1
 185.363 655 l 1
 114.363 655 l 1
 114.363 722 l 1
 185.363 722 l 1
182.363 -92.5 m 2
 182.363 -171.098 150.616 -211 78.8633 -211 c 0
 49.5732 -211 -0.305664 -197.535 -34 -170.041 c 1
 4.45605 -131.584 l 1
 21.0479 -147.653 41.5537 -157 64.8633 -157 c 0
 96.3633 -157 117.363 -130.799 117.363 -62.5 c 2
 117.363 475 l 1
 182.363 475 l 1
 182.363 -92.5 l 2
EndSplineSet
EndChar

StartChar: k
Encoding: 78 107 78
Width: 432
Flags: MW
LayerCount: 3
Fore
SplineSet
144.968 262.332 m 1
 308.755 12.5 l 1
 396.18 12.5 l 1
 205.776 282.724 l 1
 377.068 487.5 l 1
 298.012 487.5 l 1
 144.96 294.5 l 1
 145 722 l 1
 80 722 l 1
 80 25 l 1
 145 25 l 1
 144.968 262.332 l 1
EndSplineSet
EndChar

StartChar: l
Encoding: 79 108 79
Width: 225
Flags: MW
LayerCount: 3
Fore
SplineSet
145 722 m 1
 145 25 l 1
 80 25 l 1
 80 722 l 1
 145 722 l 1
EndSplineSet
EndChar

StartChar: m
Encoding: 80 109 80
Width: 866
Flags: MW
LayerCount: 3
Fore
SplineSet
299.105 513 m 0
 399.825 513 423.555 476.841 460.639 413.854 c 1
 479.564 441.875 522.745 513 615.904 513 c 0
 732.075 513 786 452.467 786 335.5 c 2
 786 25 l 1
 721 25 l 1
 721 335.5 l 2
 721 446.3 658.193 474 598.728 474 c 0
 522.695 474 464.661 398.129 464.661 335.5 c 2
 464.661 25 l 1
 402.637 25 l 1
 402.637 335.5 l 2
 402.637 406.396 359.319 474 284.792 474 c 0
 200.916 474 145 393.646 145 335.5 c 2
 145 25 l 1
 80 25 l 1
 80 500 l 1
 145 500 l 1
 145 405.248 l 1
 164.389 433.018 207.194 513 299.105 513 c 0
EndSplineSet
EndChar

StartChar: n
Encoding: 81 110 81
Width: 544
Flags: MW
LayerCount: 3
Fore
SplineSet
273.373 478 m 0
 205.071 478 145 422.779 145 335.5 c 2
 145 25 l 1
 80 25 l 1
 80 500 l 1
 145 500 l 1
 145 417.325 l 1
 197.315 478.951 211.799 513 291.141 513 c 0
 402.958 513 464 459.277 464 341.5 c 2
 464 25 l 1
 400 25 l 1
 400 343.5 l 2
 400 421.639 336.916 478 273.373 478 c 0
EndSplineSet
EndChar

StartChar: o
Encoding: 82 111 82
Width: 556
Flags: MW
LayerCount: 3
Fore
SplineSet
278 513 m 0
 411.091 513 499 414.748 499 250 c 0
 499 80.707 405.266 -13 278 -13 c 0
 143.417 -13 57 88.2295 57 250 c 0
 57 415.135 144.819 513 278 513 c 0
278 27 m 0
 371.742 27 430 128.843 430 249.971 c 0
 430 371.431 372.293 474 278 474 c 0
 183.851 474 126 371.637 126 249.971 c 0
 126 131.999 181.672 27 278 27 c 0
EndSplineSet
EndChar

StartChar: p
Encoding: 83 112 83
Width: 566
Flags: MW
LayerCount: 3
Fore
SplineSet
299.654 513 m 0
 465.3 513 509 379.587 509 250.025 c 0
 509 120.76 465.3 -14 299.654 -14 c 0
 238.108 -14 187.179 28.6813 145 65.2188 c 1
 145 -198 l 1
 80 -198 l 1
 80 499.526 l 1
 145 499.526 l 1
 145 417.757 l 1
 186.969 461.668 237.388 513 299.654 513 c 0
288.77 26 m 0
 387.296 26 438 125.684 438 250 c 0
 438 374.73 387.445 474 288.77 474 c 0
 190.243 474 144 374.316 144 250 c 0
 144 125.27 190.095 26 288.77 26 c 0
EndSplineSet
EndChar

StartChar: q
Encoding: 84 113 84
Width: 566
Flags: MW
LayerCount: 3
Fore
SplineSet
57 250.025 m 0
 57 380.304 100.7 513 266.346 513 c 0
 329.01 513 379.852 460.808 421 417.757 c 1
 421 499.526 l 1
 486 499.526 l 1
 486 -198 l 1
 421 -198 l 1
 421 65.2188 l 1
 378.743 28.6143 328.207 -14 266.346 -14 c 0
 100.7 -14 57 120.76 57 250.025 c 0
277.23 26 m 0
 375.757 26 422 125.684 422 250 c 0
 422 374.73 375.905 474 277.23 474 c 0
 178.704 474 128 374.316 128 250 c 0
 128 125.27 178.556 26 277.23 26 c 0
EndSplineSet
EndChar

StartChar: r
Encoding: 85 114 85
Width: 351
Flags: MW
LayerCount: 3
Fore
SplineSet
328 487.426 m 1
 328 432.333 l 1
 197.006 428.778 145 368.73 145 280 c 2
 145 12.5 l 1
 80 12.5 l 1
 80 487.5 l 1
 145 487.5 l 1
 145 385.764 l 1
 183.604 451.942 189.627 485.732 328 487.426 c 1
EndSplineSet
EndChar

StartChar: s
Encoding: 86 115 86
Width: 467
Flags: MW
LayerCount: 3
Fore
SplineSet
328.124 391 m 1
 324.83 426.433 305.05 474 230.351 474 c 0
 181.593 474 135.688 437.528 135.688 382.819 c 0
 135.688 306.642 211.785 295.067 340.016 255.448 c 1
 398.571 227.31 409.688 180.499 409.688 142.481 c 0
 409.688 18.0967 297.911 -13 219.712 -13 c 0
 106.536 -13 61.1191 39.6885 57 120 c 1
 124.269 120 l 1
 129.359 60.3418 167.378 27 228.715 27 c 0
 287.211 27 342.688 69.3799 342.688 132.95 c 0
 342.688 184.277 297.646 207.463 261.448 218.486 c 0
 238.308 225.825 152.952 251.896 138.94 256.885 c 1
 77.2402 287.953 68.6875 343.204 68.6875 380.694 c 0
 68.6875 433.617 97.5127 513 231.988 513 c 0
 325.424 513 390.198 485.111 395.354 391 c 1
 328.124 391 l 1
EndSplineSet
EndChar

StartChar: t
Encoding: 87 116 87
Width: 333
Flags: MW
LayerCount: 3
Fore
SplineSet
252.5 31 m 0
 262.632 31 277.473 31.5557 299 35.8662 c 1
 299 -3.30664 l 1
 277.172 -9.66211 250.827 -14 222.5 -14 c 0
 163.4 -14 124 2.87207 124 124.095 c 2
 124 454.999 l 1
 34 454.999 l 1
 34 495.646 l 1
 124 495.646 l 1
 124 603.124 l 1
 189 629.846 l 1
 189 494.343 l 1
 299 494.343 l 1
 299 453.645 l 1
 189 453.645 l 1
 189 122.312 l 2
 189 43.4639 227.1 31 252.5 31 c 0
EndSplineSet
EndChar

StartChar: u
Encoding: 88 117 88
Width: 543
Flags: MW
LayerCount: 3
Fore
SplineSet
266.818 23 m 0
 332.26 23 398 78.2207 398 165.5 c 2
 398 475 l 1
 463 475 l 1
 463 0 l 1
 398 0 l 1
 398 94.4258 l 1
 366.939 45.6159 337.749 -13 249.795 -13 c 0
 140.752 -13 80 40.6777 80 158.5 c 2
 80 475 l 1
 145 475 l 1
 145 156.5 l 2
 145 77.8154 207.61 23 266.818 23 c 0
EndSplineSet
EndChar

StartChar: v
Encoding: 89 118 89
Width: 489
Flags: MW
LayerCount: 3
Fore
SplineSet
391.84 487.5 m 1
 459.627 487.5 l 1
 272.241 12.5 l 1
 205.231 12.5 l 1
 17 487.5 l 1
 94.7725 487.5 l 1
 243.228 75.6758 l 1
 391.84 487.5 l 1
EndSplineSet
EndChar

StartChar: w
Encoding: 90 119 90
Width: 768
Flags: MW
LayerCount: 3
Fore
SplineSet
671.857 487.5 m 1
 741.16 487.5 l 1
 582.601 12.5 l 1
 514.222 12.5 l 1
 379.08 455.958 l 1
 243.938 12.5 l 1
 175.559 12.5 l 1
 17 487.5 l 1
 86.3027 487.5 l 1
 209.82 66.8369 l 1
 330.848 487.5 l 1
 427.312 487.5 l 1
 548.34 66.8369 l 1
 671.857 487.5 l 1
EndSplineSet
EndChar

StartChar: x
Encoding: 91 120 91
Width: 503
Flags: MW
LayerCount: 3
Fore
SplineSet
272.879 259.017 m 1
 454.264 12.5 l 1
 371.927 12.5 l 1
 232.759 218.183 l 1
 96.2334 12.5 l 1
 23 12.5 l 1
 204.357 258.976 l 1
 37.9023 487.5 l 1
 120.318 487.5 l 1
 245.402 299.728 l 1
 368.061 487.5 l 1
 441.194 487.5 l 1
 272.879 259.017 l 1
EndSplineSet
EndChar

StartChar: y
Encoding: 92 121 92
Width: 489
Flags: MW
LayerCount: 3
Fore
SplineSet
389.616 475 m 1
 459.741 475 l 1
 239.743 -118.945 l 2
 223.448 -165.722 201.708 -204 141.498 -204 c 0
 103.515 -204 57.5684 -190.972 25.6836 -130.929 c 1
 74.6602 -105.406 l 1
 96.9258 -142.683 129.003 -151.347 141.149 -149.985 c 0
 162.724 -147.577 178.679 -122.421 195.525 -72.9268 c 6
 215.801 -12.1924 l 1
 17 475 l 1
 94.7178 475 l 1
 246.919 76.9736 l 1
 389.616 475 l 1
EndSplineSet
EndChar

StartChar: z
Encoding: 93 122 93
Width: 432
Flags: MW
LayerCount: 3
Fore
SplineSet
375 57.5 m 1
 375 12.5 l 1
 57 12.5 l 1
 57 78.7598 l 1
 310.832 442.5 l 1
 77 442.5 l 1
 77 487.5 l 1
 375 487.5 l 1
 375 421.265 l 1
 119.052 57.5 l 1
 375 57.5 l 1
EndSplineSet
EndChar

StartChar: braceleft
Encoding: 94 123 94
Width: 512
Flags: MW
LayerCount: 3
Fore
SplineSet
289.45 -38.3926 m 0
 289.45 -118.215 313.455 -173.775 407.5 -178.213 c 1
 407.5 -227.418 l 1
 277.816 -225.643 226.819 -193.798 225.5 -6.93848 c 0
 224.987 65.7236 221.627 114.234 211.79 142.152 c 0
 195.296 188.963 159.208 219.449 104.5 233.001 c 1
 104.5 286.293 l 1
 203.344 313.447 224.5 381.143 224.5 490 c 0
 224.5 504 224.5 518 224.5 532 c 0
 224.5 717.512 289.286 745.73 407.5 747.415 c 1
 407.5 698.213 l 1
 312.695 693.729 288.118 637.037 288.5 551.94 c 0
 288.84 476.268 289.938 449.101 289.497 444.609 c 0
 280.753 355.351 267.393 327.071 199.223 258.9 c 1
 252.212 207.084 278.406 179.875 289.5 74.3467 c 1
 289.501 -15.8447 289.45 -27.1187 289.45 -38.3926 c 0
EndSplineSet
EndChar

StartChar: bar
Encoding: 95 124 95
Width: 383
Flags: MW
LayerCount: 3
Fore
SplineSet
204.5 -245.5 m 1
 178.5 -245.5 l 1
 178.5 783.5 l 1
 204.5 783.5 l 1
 204.5 -245.5 l 1
EndSplineSet
EndChar

StartChar: braceright
Encoding: 96 125 96
Width: 512
Flags: MW
LayerCount: 3
Fore
SplineSet
104.5 747.418 m 1
 234.184 745.643 285.181 713.798 286.5 526.938 c 0
 287.013 454.276 290.373 405.766 300.21 377.848 c 0
 316.704 331.037 352.792 300.551 407.5 286.999 c 1
 407.5 233.707 l 1
 308.656 206.553 287.5 138.857 287.5 30 c 0
 287.5 16 287.5 2 287.5 -12 c 0
 287.5 -197.512 222.714 -225.73 104.5 -227.415 c 1
 104.5 -178.213 l 1
 199.305 -173.729 223.882 -117.037 223.5 -31.9404 c 0
 223.16 43.7324 222.062 70.8994 222.503 75.3906 c 0
 231.247 164.649 244.607 192.929 312.777 261.1 c 1
 259.788 312.916 233.594 340.125 222.5 445.653 c 1
 222.499 535.845 222.55 547.119 222.55 558.393 c 0
 222.55 638.215 198.545 693.775 104.5 698.213 c 1
 104.5 747.418 l 1
EndSplineSet
EndChar

StartChar: quotedblright
Encoding: 101 8221 101
Width: 534
Flags: MW
LayerCount: 3
Fore
SplineSet
154 300.5 m 0
 247.678 300.5 329.189 260.5 368 260.5 c 0
 399.97 260.5 426.96 277.229 448.837 302.5 c 1
 517.103 302.5 l 1
 499.178 261.419 438.125 210.5 378 210.5 c 0
 282.6 210.5 211.05 250.5 166 250.5 c 0
 133.913 250.5 107.315 234.665 84.9678 207.5 c 1
 16.8516 207.5 l 1
 35.0693 249.717 97.7236 300.5 154 300.5 c 0
EndSplineSet
EndChar

StartChar: u0964
Encoding: 102 2404 102
Width: 168
Flags: MW
LayerCount: 3
Fore
SplineSet
58 0 m 1
 0 0 l 1
 0 770 l 1
 58 770 l 1
 58 0 l 1
EndSplineSet
EndChar

StartChar: u0B01
Encoding: 103 2817 103
Width: 14
Flags: HMW
LayerCount: 3
Fore
SplineSet
-127 1050.67 m 4
 -127 1078.08 -105.795 1100.33 -79.667 1100.33 c 4
 -53.5391 1100.33 -32.333 1078.08 -32.333 1050.67 c 4
 -32.333 1023.25 -53.5391 1001 -79.667 1001 c 4
 -105.795 1001 -127 1023.25 -127 1050.67 c 4
-77 899 m 0
 -15.3333 899 34 957 64 1042 c 1
 120 1025 l 1
 93 939 23.3333 841 -75 841 c 0
 -173.333 841 -247 939 -277 1028 c 1
 -223 1046 l 1
 -202.667 976 -148 899 -77 899 c 0
EndSplineSet
EndChar

StartChar: u0B02
Encoding: 104 2818 104
Width: 367
Flags: MW
LayerCount: 3
Fore
SplineSet
169 770 m 0
 258 770 317 699 317 588 c 0
 317 495.667 260.667 407 169 407 c 0
 90 407 20 479.111 20 588 c 0
 20 671.998 66.667 770 169 770 c 0
170 465 m 0
 226.667 465 258 529.471 258 588 c 0
 258 649 226.667 712 168 712 c 0
 108.381 712 80 649 80 587 c 0
 80 521.675 116 465 170 465 c 0
EndSplineSet
EndChar

StartChar: u0B03
Encoding: 105 2819 105
Width: 376
Flags: HMW
LayerCount: 3
Fore
SplineSet
266 589 m 0
 266 483.333 215 420 179 390 c 1
 238 340.75 266 273 266 201 c 0
 266 85.3486 210.333 12 132 12 c 0
 79.5996 12 0 53.5312 0 191 c 0
 0 285.732 36.8076 337.188 83 388 c 1
 38.1631 438.175 0 490.552 0 590 c 0
 0 663.565 49.1689 758 131 758 c 0
 206.162 758 266 679.5 266 589 c 0
131.6 422.197 m 257
 163.6 444.2 214.898 511.045 215 581 c 24
 215.081 636.628 188 697 132 697 c 0
 98.6045 697 53 655.177 53 580 c 0
 53 505.919 104.4 441 131.6 422.197 c 257
134 76 m 0
 165.882 76 216.61 110.038 215 197 c 1
 215 292.139 166.6 340 134 355 c 1
 104.2 342.8 53 280.31 53 209 c 0
 53 148.229 77.7988 76 134 76 c 0
EndSplineSet
EndChar

StartChar: u0B05
Encoding: 106 2821 106
Width: 620
Flags: HMW
LayerCount: 3
Fore
SplineSet
510 0 m 1
 452 0 l 1
 452 84 l 1
 412.382 48.7842 339.8 1 265 1 c 0
 119.113 1 0 81.9619 0 230 c 0
 0 284 19.333 330.333 58 369 c 0
 113.56 426.194 233.294 469.491 287 517 c 0
 318.333 546.333 333.722 582.668 334 626 c 0
 334.333 678 313 712.667 283 713 c 0
 256.333 713.296 227.678 698.66 228 669 c 2
 229 577 l 1
 171 577 l 1
 171 672 l 2
 171 693.333 156.992 712.115 116 713 c 0
 69.667 714 57 657.65 57 625 c 0
 57 567.112 77.8213 558.236 100 548 c 1
 80.002 500.002 l 1
 34.0225 518.642 0 562.211 0 625 c 0
 0 710.637 55.6641 769.881 112 770 c 0
 163.667 770.109 189 755.333 203 733 c 1
 217.667 755.333 249.667 770 286 770 c 0
 340.992 770 395 709.717 395 626 c 0
 395 570 376.333 523 339 485 c 0
 281.171 425.519 191.155 398.696 108 337 c 0
 77 314 58 272.667 58 228 c 0
 58 121.973 151.296 58 265 58 c 0
 337.516 58 403.425 105.317 452 163 c 1
 452 770 l 1
 510 770 l 1
 510 0 l 1
EndSplineSet
EndChar

StartChar: u0B06
Encoding: 107 2822 107
Width: 748
Flags: MW
LayerCount: 3
Fore
SplineSet
510 0 m 1
 452 0 l 1
 452 84 l 1
 412.382 48.7842 339.8 1 265 1 c 0
 119.113 1 0 81.9619 0 230 c 0
 0 284 19.333 330.333 58 369 c 0
 113.56 426.194 233.294 469.491 287 517 c 0
 318.333 546.333 333.722 582.668 334 626 c 0
 334.333 678 313 712.667 283 713 c 0
 256.333 713.296 227.678 698.66 228 669 c 2
 229 577 l 1
 171 577 l 1
 171 672 l 2
 171 693.333 156.992 712.115 116 713 c 0
 69.667 714 57 657.65 57 625 c 0
 57 567.112 77.8213 558.236 100 548 c 1
 80.002 500.002 l 1
 34.0225 518.642 0 562.211 0 625 c 0
 0 710.637 55.6641 769.881 112 770 c 0
 163.667 770.109 189 755.333 203 733 c 1
 217.667 755.333 249.667 770 286 770 c 0
 340.992 770 395 709.717 395 626 c 0
 395 570 376.333 523 339 485 c 0
 281.171 425.519 191.155 398.696 108 337 c 0
 77 314 58 272.667 58 228 c 0
 58 121.973 151.296 58 265 58 c 0
 337.516 58 403.425 105.317 452 163 c 1
 452 770 l 1
 510 770 l 1
 510 0 l 1
638 0 m 1
 580 0 l 1
 580 770 l 1
 638 770 l 1
 638 0 l 1
EndSplineSet
EndChar

StartChar: u0B07
Encoding: 108 2823 108
Width: 706
Flags: MW
LayerCount: 3
Fore
SplineSet
596 406 m 4
 596.333 276 562.808 175.575 540 133 c 5
 626 -18 l 5
 575 -46 l 5
 476 131 l 5
 500.031 180.778 540.333 275.333 540 407 c 4
 539.345 665.749 377.883 712 277 712 c 4
 147.4 712 61 603.016 61 484 c 4
 61 390.188 105.882 347.33 127 333 c 1
 139.667 341 153 345.333 167 346 c 0
 196.333 346 228 329 247 289 c 1
 265 330 294.667 346 324 346 c 0
 393 346 433 271.707 433 174 c 0
 433 68.874 388 0 323 0 c 0
 295 0 268 19 245 58 c 1
 226 20.5 194.333 0 165 0 c 0
 113.772 0 58 68.7637 58 174 c 0
 58 216.667 67 255 85 289 c 1
 60.5674 307.51 0 366.6 0 483 c 4
 0 637.179 116.705 770 275 770 c 4
 413.122 770 595.255 696.668 596 406 c 4
327 57 m 0
 364.419 57 380 126.535 380 172 c 0
 380 217.6 367.8 286 327 286 c 0
 307.8 286 279 260.8 279 172 c 0
 279 129.316 289.435 57 327 57 c 0
169 56 m 0
 199 56 219 103 219 171 c 0
 219 216.6 208.8 285 168 285 c 0
 148.4 285 116 262.2 116 171 c 0
 116 112.5 135.5 56 169 56 c 0
EndSplineSet
EndChar

StartChar: u0B08
Encoding: 109 2824 109
Width: 706
Flags: HMW
LayerCount: 3
Fore
SplineSet
277 712 m 0
 377.883 712 539.345 665.749 540 407 c 0
 540.333 275.333 500.031 180.778 476 131 c 1
 575 -46 l 1
 626 -18 l 1
 540 133 l 1
 562.808 175.575 596.333 276 596 406 c 0
 595.255 696.668 413.122 770 275 770 c 0
 198.5 770 78 727.667 77.8701 629.333 c 0
 77.8481 612.696 78.6667 594.667 80.3271 577.994 c 1
 32.3333 557 -1 512.667 0 450 c 0
 1.38379 363.312 43.667 311.333 85 289 c 1
 67 255 58 216.667 58 174 c 0
 58 68.7637 113.772 0 165 0 c 0
 194.333 0 226 20.5 245 58 c 1
 268 19 295 0 323 0 c 0
 388 0 433 68.874 433 174 c 0
 433 271.707 393 346 324 346 c 0
 294.667 346 265 330 247 289 c 1
 228 329 196.333 346 167 346 c 0
 153 345.333 139.667 341 127 333 c 1
 91 352 61 388.663 61 450 c 0
 61 490 91.876 532.923 142 533.132 c 0
 173.323 533.263 204.021 513.315 220 500 c 1
 255 547 l 1
 219.667 573 179.5 587 139 587 c 1
 136.673 598.006 137 605.333 137 618 c 0
 137 685.333 205.432 712 277 712 c 0
327 57 m 0
 289.435 57 279 129.316 279 172 c 0
 279 260.8 307.8 286 327 286 c 0
 367.8 286 380 217.6 380 172 c 0
 380 126.535 364.419 57 327 57 c 0
169 56 m 0
 135.5 56 116 112.5 116 171 c 0
 116 262.2 148.4 285 168 285 c 0
 208.8 285 219 216.6 219 171 c 0
 219 103 199 56 169 56 c 0
EndSplineSet
EndChar

StartChar: u0B09
Encoding: 110 2825 110
Width: 676
Flags: HMW
LayerCount: 3
Fore
SplineSet
262 711.999 m 0
 380 712 510 659 510 407 c 0
 510 275.333 470.031 180.778 446 131 c 1
 545 -46 l 1
 596 -18 l 1
 510 133 l 1
 532.808 175.575 566 276 566 406 c 0
 566 690 416 770 260 769.998 c 0
 110 769.996 0 638.179 0 484 c 0
 0 396.524 36.0225 326.831 82 292 c 1
 66.667 252 59 215 59 181 c 0
 59 36.2002 160.439 0 224 0 c 0
 327.716 0 386 73.2217 386 181 c 0
 386 232.548 347.736 292.698 318 315 c 1
 371 392 l 1
 321 425 l 1
 184 224 l 1
 233 191 l 1
 286 269 l 1
 313.223 247.509 327 207.529 327 181 c 0
 327 110.106 290.995 59 224 59 c 0
 183.85 59 116 83.4004 116 181 c 0
 116 224.6 134.333 299.688 210 399 c 1
 210 399 162.5 434.5 163 435 c 1
 141 409 122 376.667 108 346 c 1
 68.6667 395.333 59 429.692 59 482 c 0
 59 601.016 139 711.998 262 711.999 c 0
EndSplineSet
EndChar

StartChar: u0B0A
Encoding: 111 2826 111
Width: 758
Flags: HMW
LayerCount: 3
Fore
SplineSet
537.002 473.996 m 0
 536.775 424 534 381 528 345 c 1
 606.667 358 658 316.031 658 226 c 0
 658 205.667 644.667 140.667 598 109 c 1
 670 -18 l 1
 619 -46 l 1
 522 124 l 1
 586 162 599.115 204.8 599 225 c 0
 598.667 283.333 566.667 298.667 518.666 284.667 c 1
 518.666 284.667 508.667 246 502 229 c 1
 501.667 228.667 448.333 247.333 448 247 c 1
 466.667 306 480.413 365.752 480.002 470.999 c 0
 479.333 642 376 711.333 261.999 711.992 c 0
 139.001 712.703 58.999 601.009 58.999 481.993 c 0
 59 429.692 68.6667 395.333 108 346 c 1
 122 376.667 142 408 163 435 c 1
 162.5 434.5 210 399 210 399 c 1
 134.333 299.688 116 224.6 116 181 c 0
 116 83.4004 183.85 59 224 59 c 0
 290.995 59 327 110.106 327 181 c 0
 327 207.529 313.223 247.509 286 269 c 1
 233 191 l 1
 184 224 l 1
 321 425 l 1
 371 392 l 1
 318 315 l 1
 347.736 292.698 386 232.548 386 181 c 0
 386 73.2217 327.716 0 224 0 c 0
 160.439 0 59 36.2002 59 181 c 0
 59 215 66.667 252 82 292 c 1
 36.0225 326.831 0 396.524 -0.000976562 483.993 c 0
 -0.000976562 638.172 109.999 769.982 259.999 769.991 c 0
 402.667 770 538 694 537.002 473.996 c 0
EndSplineSet
EndChar

StartChar: u0B0B
Encoding: 112 2827 112
Width: 748
Flags: HMW
LayerCount: 3
Fore
SplineSet
58.9951 481.986 m 0
 58.9796 601.009 134.001 712.703 256.999 711.992 c 0
 371 711.333 469.333 642 470.002 470.999 c 0
 470.413 365.752 456.667 306 438 247 c 1
 438.333 247.333 491.667 228.667 492 229 c 1
 498.667 246 508.666 284.667 508.666 284.667 c 1
 556.667 298.667 588.667 283.333 589 225 c 0
 589.115 204.8 576 162 512 124 c 1
 609 -46 l 1
 660 -18 l 1
 588 109 l 1
 634.667 140.667 648 205.667 648 226 c 0
 648 316.031 596.667 358 518 345 c 1
 524 381 526.775 424 527.002 473.996 c 0
 528 694 397.667 770 254.999 769.991 c 0
 104.999 769.982 -0.007316 638.172 -0.00292969 483.984 c 0
 0 381 68.5 301.5 111 281 c 1
 93.667 251.667 85 217 85 177 c 0
 85 106.625 112.2 0 221 0 c 0
 313.582 0 366 72.541 366 170 c 0
 366 266.471 316.893 347 228 347 c 0
 198.667 347 173.333 340 152 326 c 1
 73 361.5 59 444.5 58.9951 481.986 c 0
223 57 m 0
 158.2 57 142 121.944 142 177 c 0
 142 242.721 172.826 286 229 286 c 0
 293.046 286 309 229.137 309 169 c 0
 309.998 121.073 291.8 57 223 57 c 0
EndSplineSet
EndChar

StartChar: u0B0C
Encoding: 113 2828 113
Width: 457
Flags: HMW
LayerCount: 3
Fore
SplineSet
275 236 m 4
 318 237 356 210 356 144 c 4
 356 81 300 43 199 43 c 4
 113 43 0 110 -0 251 c 4
 0 341 79 399 161 449 c 4
 261 510 300 530 300 603 c 4
 300 646 274 679 212 679 c 4
 167 679 145 661 145 625 c 4
 145 595 183 580 192 575 c 5
 173 531 l 5
 155 539 92 568 92 625 c 4
 92 674 116 732 212 732 c 4
 302 732 351 679 352 601 c 4
 354 505 270 459 196 413 c 4
 128 371 54 326 54 251 c 4
 54 161 109 87 222 91 c 5
 209 108 201 130 201 151 c 4
 201 200 235 235 275 236 c 4
305 146 m 4
 305 172 296 184 277 184 c 4
 263 184 254 173 254 151 c 4
 254 136 259 118 271 103 c 5
 294 109 304 131 305 146 c 4
EndSplineSet
EndChar

StartChar: u0B0F
Encoding: 114 2831 114
Width: 629
Flags: MW
LayerCount: 3
Fore
SplineSet
519 -47 m 5
 -15 487 l 1
 27 527 l 1
 460 93 l 5
 460 671 l 5
 249 460 l 5
 207 502 l 5
 519 812 l 5
 519 -47 l 5
EndSplineSet
EndChar

StartChar: u0B10
Encoding: 115 2832 115
Width: 757
Flags: MW
LayerCount: 3
Fore
SplineSet
519 358.999 m 1
 588 359 l 5
 588 0 l 5
 647 0 l 5
 647 744 l 5
 664.5 774 673 803.096 673 830 c 4
 674.136 875.442 646.874 950 531 950 c 4
 448.523 950 379 878 301 878 c 4
 244.113 878 213.691 922.844 201 937 c 5
 152 907 l 5
 205.064 829.818 269.95 820 301 820 c 4
 379.883 820 436 894 531 894 c 4
 592.5 894 615 858 615 828 c 4
 615 799.5 597.5 770 588 755 c 5
 588 417 l 5
 519 417.001 l 1
 519 812 l 5
 207 502 l 1
 249 460 l 1
 460 671 l 1
 460 93 l 1
 27 527 l 1
 -15 487 l 1
 519 -47 l 1
 519 358.999 l 1
EndSplineSet
EndChar

StartChar: u0B13
Encoding: 116 2835 116
Width: 634
Flags: MW
LayerCount: 3
Fore
SplineSet
454 454 m 5
 506.71 401.29 524.219 341.068 524 261 c 4
 523.5 78 369.557 0 262 0 c 4
 96.2285 0 0 142.961 0 318 c 4
 0 505.6 114.64 741.626 135 787 c 5
 186 761 l 5
 144.996 668.742 59 482.209 59 319 c 4
 59 103.152 196.219 59 264 59 c 4
 369.03 59 469 132.375 469 262 c 4
 469 353.2 432.059 396.256 412 414 c 5
 358 372 l 5
 323 422 l 5
 346.056 436.966 457 498.8 457 614 c 4
 457 672.237 419.8 713 364 713 c 4
 314.8 713 282 673.4 282 614 c 5
 224 614 l 5
 224 692.67 270.677 770 364 770 c 4
 453.625 770 515 709.487 515 614 c 4
 515 544.289 489.874 491.111 454 454 c 5
EndSplineSet
EndChar

StartChar: u0B14
Encoding: 117 2836 117
Width: 757
Flags: MW
LayerCount: 3
Fore
SplineSet
511.682 359.001 m 1
 520.539 329.659 524.099 297.378 524 261 c 0
 523.5 78 369.557 0 262 0 c 0
 96.2285 0 0 142.961 0 318 c 0
 0 505.6 114.64 741.626 135 787 c 1
 186 761 l 1
 144.996 668.742 59 482.209 59 319 c 0
 59 103.152 196.219 59 264 59 c 0
 369.03 59 469 132.375 469 262 c 0
 469 353.2 432.059 396.256 412 414 c 1
 358 372 l 1
 323 422 l 1
 346.056 436.966 457 498.8 457 614 c 0
 457 672.237 419.8 713 364 713 c 0
 314.8 713 282 673.4 282 614 c 1
 224 614 l 1
 224 692.67 270.677 770 364 770 c 0
 453.625 770 515 709.487 515 614 c 0
 515 544.289 489.874 491.111 454 454 c 1
 465.903 442.097 476.011 429.811 484.524 417.001 c 1
 588 417 l 1
 588 755 l 1
 597.5 770 615 799.5 615 828 c 0
 615 858 592.5 894 531 894 c 0
 436 894 379.883 820 301 820 c 0
 269.95 820 205.064 829.818 152 907 c 1
 201 937 l 1
 213.691 922.844 244.113 878 301 878 c 0
 379 878 448.523 950 531 950 c 0
 646.874 950 674.136 875.442 673 830 c 0
 673 803.096 664.5 774 647 744 c 1
 647 0 l 1
 588 0 l 1
 588 359 l 1
 511.682 359.001 l 1
EndSplineSet
EndChar

StartChar: u0B15
Encoding: 118 2837 118
Width: 698
Flags: MW
LayerCount: 3
Fore
SplineSet
304 770 m 0
 486.688 770 590.604 641.476 588 510 c 0
 588 454.4 568.159 398.027 560 371 c 1
 506 392 l 1
 517.959 435.351 530 474.807 530 509 c 0
 530 617.203 448.791 715 303 715 c 0
 152.604 715 58 611.625 58 499 c 0
 58 460.49 66.3252 364.28 152 326 c 1
 173.333 340 198.667 347 228 347 c 0
 268 347 300 333 324 305 c 1
 341.667 331.333 370.333 347.333 415 347 c 0
 494.332 346.408 522 290.825 522 240 c 2
 522 0 l 1
 464 0 l 1
 464 240 l 2
 464 272 447.667 288 415 288 c 0
 383.667 288 368 272 368 240 c 2
 368 0 l 1
 310 0 l 1
 310 29 l 1
 286 9.66699 256.333 0 221 0 c 0
 112.2 0 85 106.625 85 177 c 0
 85 217 93.667 251.667 111 281 c 1
 69.9297 305.307 0 367 0 496 c 0
 0 639.616 120.016 770 304 770 c 0
225 54 m 0
 293.8 54 311.998 118.073 311 166 c 0
 311 226.137 295.046 283 231 283 c 0
 174.826 283 144 239.721 144 174 c 0
 144 118.944 160.2 54 225 54 c 0
EndSplineSet
EndChar

StartChar: u0B16
Encoding: 119 2838 119
Width: 638
Flags: MW
LayerCount: 3
Fore
SplineSet
469 561.997 m 1
 436.872 505.777 401.2 491 356 491 c 0
 267.192 491 227 575.2 227 642 c 0
 227 663.333 231 687 239 711 c 1
 120 688.667 58 599.912 58 499 c 0
 58 460.49 66.3252 364.28 152 326 c 1
 173.333 340 198.667 346.901 228 347 c 0
 326.667 347.333 369.789 256.141 367.997 167.326 c 24
 366.245 80.4814 327.333 0 221 0 c 0
 112.2 0 85 106.625 85 177 c 0
 85 217 93.667 251.667 111 281 c 1
 69.9297 305.307 0 367 0 496 c 0
 0 639.616 105.016 769.997 289.006 769.999 c 0
 311.173 769.999 320.667 770 334.658 766.002 c 1
 288.667 725.333 284.373 668.998 284 639 c 0
 283.333 585.333 312.335 547.551 357 548 c 0
 423.333 548.667 462 633.333 470 676.989 c 9
 470 770 l 1
 528 770 l 1
 528 0 l 1
 469 0 l 1
 469 561.997 l 1
225 54 m 0
 293.8 54 311.998 118.073 311 166 c 0
 311 226.137 295.046 283 231 283 c 0
 174.826 283 144 239.721 144 174 c 0
 144 118.944 160.2 54 225 54 c 0
EndSplineSet
EndChar

StartChar: u0B17
Encoding: 120 2839 120
Width: 638
Flags: MW
LayerCount: 3
Fore
SplineSet
225 54 m 0
 293.8 54 311.998 118.073 311 166 c 0
 311 226.137 295.046 283 231 283 c 0
 174.826 283 144 239.721 144 174 c 0
 144 118.944 160.2 54 225 54 c 0
288.002 714.999 m 0
 137.403 715.974 58 611.625 58 499 c 0
 58 460.49 66.3252 364.28 152 326 c 1
 173.333 340 198.667 346.901 228 347 c 0
 326.667 347.333 369.789 256.141 367.997 167.326 c 24
 366.245 80.4814 327.333 0 221 0 c 0
 112.2 0 85 106.625 85 177 c 0
 85 217 93.667 251.667 111 281 c 1
 69.9297 305.307 0 367 0 496 c 0
 0 639.616 105.016 769.997 289.006 769.999 c 0
 367.333 770 424.667 739.333 470 699 c 1
 470 770 l 1
 528 770 l 1
 528 0 l 1
 469 0 l 1
 469 626 l 1
 400.095 699.713 339.333 714.667 288.002 714.999 c 0
EndSplineSet
EndChar

StartChar: u0B18
Encoding: 121 2840 121
Width: 638
Flags: MW
LayerCount: 3
Fore
SplineSet
138.667 332 m 5
 150.67 353.332 166.333 376.333 185 395 c 5
 225 353 l 5
 196.004 324.004 160 264.8 160 206 c 4
 160 171.678 173.4 127 227 127 c 4
 258.333 127 309 157.667 309 188 c 6
 309 325 l 5
 367 325 l 5
 367 188 l 6
 367 155.667 398.563 127.41 424 127 c 4
 444.667 126.667 466 143.333 469 157.329 c 5
 469 626 l 5
 400.095 699.713 339.333 714.667 288.002 714.999 c 4
 137.403 715.974 58 611.625 58 499 c 4
 58 460.49 68 371.333 138.667 332 c 5
114.667 279.331 m 5
 73.3333 302 0 367 0 496 c 4
 0 639.616 105.016 769.997 289.006 769.999 c 4
 367.333 770 424.667 739.333 470 699 c 5
 470 770 l 5
 528 770 l 5
 528 0 l 5
 469 0 l 5
 469 87 l 5
 456.667 76 438.667 70 424 70 c 4
 382.626 70 347.333 101.333 337 121 c 5
 324.667 101.333 283.333 70 227 70 c 4
 143.665 70 102 131.076 102 208 c 4
 102 232.667 104.667 252.664 114.667 279.331 c 5
EndSplineSet
EndChar

StartChar: u0B19
Encoding: 122 2841 122
Width: 754
Flags: MW
LayerCount: 3
Fore
SplineSet
260 769.998 m 0
 110 769.996 0 638.179 0 484 c 0
 0 396.524 36.0225 326.831 82 292 c 1
 66.667 252 59 215 59 181 c 0
 59 36.2002 160.439 0 224 0 c 0
 327.716 0 386 73.2217 386 181 c 0
 386 232.548 347.736 292.698 318 315 c 1
 371 392 l 1
 321 425 l 1
 184 224 l 1
 233 191 l 1
 286 269 l 1
 313.223 247.509 327 207.529 327 181 c 0
 327 110.106 290.995 59 224 59 c 0
 183.85 59 116 83.4004 116 181 c 0
 116 224.6 134.333 299.688 210 399 c 1
 210 399 162.5 434.5 163 435 c 1
 141 409 122 376.667 108 346 c 1
 68.6667 395.333 59 429.692 59 482 c 0
 59 601.016 139 711.998 262 711.999 c 0
 367 712 435 606.768 435 519 c 1
 433 491 l 0
 430 438 453.407 356.98 535 358 c 0
 615 359 644 418.318 644 483 c 24
 644 548.846 610 616 540 616 c 0
 516.667 616 496.667 610.667 480 600 c 1
 436 730 348.709 769.998 260 769.998 c 0
536 419 m 256
 499.2 419 490 457.722 490 493 c 0
 490 521.95 497.2 559 538 559 c 0
 574.38 559 588 519.109 588 488 c 0
 589.27 449.91 571.043 419 536 419 c 256
EndSplineSet
EndChar

StartChar: u0B1A
Encoding: 123 2842 123
Width: 651
Flags: MW
LayerCount: 3
Fore
SplineSet
58 499 m 4
 58 460.487 66.3252 364.28 152 326 c 1
 173.333 340 198.667 346.901 228 347 c 0
 326.667 347.333 369.789 256.141 367.997 167.326 c 24
 366.245 80.4814 327.333 0 221 0 c 0
 112.2 0 85 106.625 85 177 c 0
 85 217 93.667 251.667 111 281 c 1
 69.9297 305.307 0 366.998 0 496 c 4
 0 615.998 92 770 274.006 769.999 c 4
 417 769.998 541 656 541 512 c 4
 541 450.858 527 414 514 370 c 5
 460 388 l 5
 475.333 437.333 483 478.667 483 512 c 4
 483 635 368 715 273.002 714.999 c 260
 136 714.998 58 611.622 58 499 c 4
225 54 m 0
 293.8 54 311.998 118.073 311 166 c 0
 311 226.137 295.046 283 231 283 c 0
 174.826 283 144 239.721 144 174 c 0
 144 118.944 160.2 54 225 54 c 0
EndSplineSet
EndChar

StartChar: u0B1B
Encoding: 124 2843 124
Width: 617
Flags: MW
LayerCount: 3
Fore
SplineSet
388 244 m 0
 475.633 244 507 171.855 507 123 c 0
 507 81.2373 483.2 0 388 0 c 0
 350 0 304.667 26.333 252 79 c 1
 219.813 45.0732 170.4 0 116 0 c 0
 23.2002 0 0 84.7998 0 122 c 0
 0 162.38 23.2002 243 116 243 c 0
 132 242 l 1
 130 253.333 128 274 128 293 c 0
 128 322.333 133.333 349 144 373 c 1
 76.417 408.199 24 472.881 24 557 c 0
 24 699.36 148.737 770 262 770 c 0
 356 770 498 702.805 498 555 c 0
 498 521 490.667 484.667 476 444 c 1
 422 465 l 1
 434.667 502.333 441 532 441 556 c 0
 441 662.449 341.5 711.5 263 712 c 0
 182.08 712.515 83 668.744 83 559 c 0
 83 499.132 122.9 442.367 184 422 c 1
 205.333 436 229.333 443 256 443 c 0
 336.88 443 378 373.785 378 287 c 0
 378 275 376.333 260.333 373 243 c 1
 388 244 l 0
253 172 m 1
 302.667 210.667 320.667 247.333 320 294 c 0
 319.477 330.663 307 384 255 384 c 256
 198.2 384 184 329.518 184 295 c 0
 184 255.4 206 206 253 172 c 1
389 59 m 0
 433.333 58.667 449.333 95.333 449 123 c 0
 448.635 153.333 431.333 185.333 389 185 c 0
 357.412 184.751 327.291 157.852 294 122 c 1
 324.227 87.1221 355.979 59.248 389 59 c 0
57 123 m 0
 57 83.1006 78.1064 60 114 60 c 0
 152.8 60 179.536 90.6621 211 123 c 1
 187.908 146.092 155.932 185 115 185 c 0
 80.2002 185 57 160.2 57 123 c 0
EndSplineSet
EndChar

StartChar: u0B1C
Encoding: 125 2844 125
Width: 651
Flags: MW
LayerCount: 3
Fore
SplineSet
57.7773 313.556 m 1
 43.3652 280.516 37 247.257 37 212 c 0
 37 35.4873 131.8 0 195 0 c 0
 270.823 0 296.369 53.9971 302 73 c 1
 266.011 94.3984 229 131 229 218 c 0
 229 346.475 298 375 344 375 c 1
 344 0 l 1
 402 0 l 1
 402 427 l 1
 274 445 171 387.44 171 217 c 0
 171 137.35 204.055 80.8965 225 59 c 1
 165 47.5 97 65 97 211 c 0
 97 291 145.544 363.192 195 411 c 1
 156 455 l 1
 133.778 434.444 105.556 402 87.7031 373.105 c 1
 64 406.667 58 446.072 58 499.003 c 0
 58 611.625 136 714.998 273.002 714.999 c 256
 368 715 483 635 483 512 c 0
 483 478.667 475.333 437.333 460 388 c 1
 514 370 l 1
 527 414 541 450.858 541 512 c 0
 541 656 417 769.998 274.006 769.999 c 0
 92 770 0 616 0 496.002 c 0
 -2.54313e-06 413.917 21.1035 353.546 57.7773 313.556 c 1
EndSplineSet
EndChar

StartChar: u0B1D
Encoding: 126 2845 126
Width: 613
Flags: MW
LayerCount: 3
Fore
SplineSet
357 548 m 0
 312.345 549.063 283.333 585.333 284 639 c 0
 284.373 668.998 288.667 725.333 334.658 766.002 c 1
 320.667 770 311.173 769.999 289.006 769.999 c 0
 105.016 769.997 0 639.616 0 496 c 0
 0 366.998 69.9297 305.307 111 281 c 1
 93.667 251.667 85 217 85 177 c 0
 85 106.625 112.2 0 221 0 c 0
 279.227 -1.27157e-06 317.237 24.1327 340 60.2285 c 1
 399 -46 l 1
 450 -18 l 1
 365.004 131.5 l 1
 366.782 143.183 367.752 155.193 367.997 167.326 c 8
 369.789 256.141 326.667 347.333 228 347 c 0
 198.667 346.901 173.333 340 152 326 c 1
 66.3252 364.28 58 460.487 58 499 c 0
 58 599.912 120 688.667 239 711 c 1
 231 687 227 663.333 227 642 c 0
 227 575.2 267.192 491 356 491 c 0
 424.4 491 494 524 523 708 c 1
 469 721 l 1
 460.199 679.931 441 546 357 548 c 0
225 54 m 0
 160.2 54 144 118.944 144 174 c 0
 144 239.721 174.826 283 231 283 c 0
 295.046 283 311 226.137 311 166 c 0
 311.998 118.073 293.8 54 225 54 c 0
EndSplineSet
EndChar

StartChar: u0B1E
Encoding: 127 2846 127
Width: 678
Flags: MW
LayerCount: 3
Fore
SplineSet
445 770 m 0
 543.441 769.969 573.012 683.47 568 611 c 0
 563.296 542.974 524 488.333 480 449 c 1
 526.092 419.524 561.489 372.534 562 261 c 0
 562.667 115.333 462 0 293 0 c 0
 126 0 0 107.333 0 254 c 0
 0 368 21.3333 417.333 31.9932 435.996 c 1
 86 413 l 1
 73.3333 394 58 348.667 58 252 c 0
 58 135.333 170.667 58 291 58 c 0
 420.002 58 500.667 126.667 501 261 c 0
 501.297 380.753 446.013 407.045 424 413 c 1
 405.637 404.363 385.646 397.354 364 392 c 1
 356 384.333 349 366.612 349 351 c 2
 349 251 l 1
 292 251 l 1
 292 350 l 2
 292 364.736 283.333 380.333 271 390 c 1
 249.333 393 223.333 402.333 209 410 c 1
 183.871 402.4 157.714 380.2 158 336 c 0
 158.129 316.112 164.112 300.859 172 288 c 1
 124 259 l 1
 118.61 270.976 92.8809 314.627 103.685 365.744 c 0
 108.926 390.54 124.894 422.046 152 441.667 c 1
 106 470.333 45 539.333 45 615 c 1
 46 707.333 75.6 754.4 91 770 c 1
 141 750 l 1
 122.4 730.4 100.667 691.333 101 616 c 0
 101.416 522.001 217.14 440.042 325 444 c 0
 430.618 447.876 506.532 538.523 510 613 c 0
 512.181 659.824 499.489 710.673 446 710 c 0
 421.684 709.694 393 693.267 393 668 c 2
 393 605 l 1
 336 605 l 1
 336 668 l 2
 336 694.405 302.05 712.885 267 711 c 0
 225.229 708.754 217.558 678.861 217 667 c 0
 217.16 644.154 223.256 634.34 228 629 c 1
 190 586.6 l 1
 166.925 608.166 156.648 640.077 158 668 c 0
 160.835 726.568 216.058 768.574 267 770 c 0
 295.113 770.787 336.205 760.418 361 734 c 1
 367.096 743.234 386.975 770.019 445 770 c 0
EndSplineSet
EndChar

StartChar: u0B1F
Encoding: 128 2847 128
Width: 638
Flags: MW
LayerCount: 3
Fore
SplineSet
225 54 m 4
 293.8 54 311.998 118.073 311 166 c 4
 311 226.137 295.046 283 231 283 c 4
 174.826 283 144 239.721 144 174 c 4
 144 118.944 160.2 54 225 54 c 4
469 583.796 m 5
 440 665.333 352.162 714.999 273.002 714.999 c 260
 122.403 715.974 58 611.625 58 499 c 4
 58 460.49 66.3252 364.28 152 326 c 5
 173.333 340 198.667 346.901 228 347 c 4
 326.667 347.333 369.789 256.141 367.997 167.326 c 28
 366.245 80.4814 327.333 0 221 0 c 4
 112.2 0 85 106.625 85 177 c 4
 85 217 93.667 251.667 111 281 c 5
 69.9297 305.307 0 367 0 496 c 4
 0 639.616 90.0156 769.997 274.006 769.999 c 4
 341.291 769.999 416 748 470 698 c 5
 470 770 l 5
 528 770 l 5
 527 376 l 5
 469 376 l 5
 469 583.796 l 5
EndSplineSet
EndChar

StartChar: u0B20
Encoding: 129 2848 129
Width: 717
Flags: MW
LayerCount: 3
Fore
SplineSet
607 387 m 0
 607 176.438 477.022 0 303 0 c 0
 141.264 0 -3.61532e-18 167.476 0 387 c 256
 0 598.203 131.891 770 303 770 c 256
 469.792 770 608.371 607.575 607 387 c 0
551 387 m 0
 551 568.241 443.639 711 304 711 c 0
 182.3 711 60 584.056 60 387 c 0
 60 215.161 157.6 58 304 58 c 0
 436.427 58 551 202.837 551 387 c 0
EndSplineSet
EndChar

StartChar: u0B21
Encoding: 130 2849 130
Width: 651
Flags: MW
LayerCount: 3
Fore
SplineSet
0 496.002 m 0
 0 616 92 770 274.006 769.999 c 0
 417 769.998 541 656 541 512 c 0
 541 450.858 527 414 514 370 c 1
 460 388 l 1
 475.333 437.333 483 478.667 483 512 c 0
 483 635 368 715 273.002 714.999 c 256
 136 714.998 58 611.625 58 499.003 c 0
 58 434 65.3333 396.667 108 346 c 1
 122 376.667 141 409 163 435 c 1
 162.5 434.5 210 399 210 399 c 1
 134.333 299.688 116 224.6 116 181 c 0
 116 83.4004 183.85 59 224 59 c 0
 290.995 59 327 110.106 327 181 c 0
 327 207.529 313.223 247.509 286 269 c 1
 233 191 l 1
 184 224 l 1
 321 425 l 1
 371 392 l 1
 318 315 l 1
 347.736 292.698 386 232.548 386 181 c 0
 386 73.2217 327.716 0 224 0 c 0
 160.439 0 59 36.2002 59 181 c 0
 59 215 66.667 252 82 292 c 1
 32 330 0 398 0 496.002 c 0
EndSplineSet
EndChar

StartChar: u0B22
Encoding: 131 2850 131
Width: 651
Flags: MW
LayerCount: 3
Fore
SplineSet
116.001 181.999 m 0
 116 84.4004 208.875 60 253 60 c 0
 283.667 60 311 70 335 90 c 1
 297 116 245 171.333 245 238 c 0
 245 331 278 388 345 388 c 0
 424 388 452 323.483 452 236 c 0
 452 175 438 132 416 101 c 1
 448.667 84.333 480.333 73.333 511 68 c 1
 504 11 l 1
 462 16.333 421.667 31.333 383 56 c 1
 347.667 18.667 304.333 0 253 0 c 0
 190.884 0 59 36.2002 59 181 c 0
 59 215 66.667 252 82 292 c 1
 32 330 0 398 0 496.002 c 0
 0 616 92 770 274.006 769.999 c 0
 417 769.998 541 656 541 512 c 0
 541 450.858 527 414 514 370 c 1
 460 388 l 1
 475.333 437.333 483 478.667 483 512 c 0
 483 635 368 715 273.002 714.999 c 256
 136 714.998 58 611.625 58 499.003 c 0
 58 434 65.333 396.667 108 346 c 1
 122 376.667 142 406 163 435 c 1
 162.5 434.5 210 399 210 399 c 1
 134.333 299.688 116.001 225.599 116.001 181.999 c 0
351 329 m 0
 323 329 304 300 304 236 c 0
 304 191.333 339 151 371 130 c 1
 386 154 398 190 397.455 238 c 0
 396.9 286.808 393 329 351 329 c 0
EndSplineSet
EndChar

StartChar: u0B23
Encoding: 132 2851 132
Width: 621
Flags: MW
LayerCount: 3
Fore
SplineSet
282 770 m 0
 307.451 770 374.532 767.749 453 698 c 1
 453 770 l 1
 511 770 l 1
 510 0 l 1
 452 0 l 1
 452 610 l 1
 419.348 660.938 360.967 711 281 711 c 0
 216.41 711 177 671.234 177 604 c 0
 177 577.333 182 560.333 192 553 c 1
 226.272 533.809 265.629 498.932 294 474 c 1
 252 432 l 1
 235.66 447.173 202.36 480.321 163 500 c 1
 95.1367 500 70.4688 442.127 61 379 c 1
 242.566 379 393 333.4 393 151 c 0
 393 55.375 330.885 0 249 0 c 0
 112.396 0 0 136.836 0 317 c 0
 0 441.007 33.9844 525.286 131 552 c 1
 128.369 569.702 123.855 585.521 125 607 c 0
 125 675.725 156.4 770 282 770 c 0
249 53 m 0
 290.496 53 335.473 83.1133 334 145 c 0
 334 285 208.667 320 101 320 c 0
 78.6567 320 65.3333 318.667 59 318 c 1
 59 162.043 138.934 53 249 53 c 0
EndSplineSet
EndChar

StartChar: u0B24
Encoding: 133 2852 133
Width: 651
Flags: MW
LayerCount: 3
Fore
SplineSet
261 0 m 0
 373.333 0 446 75.4 446 184 c 0
 446 289.333 394 350 346 377 c 1
 318 324 l 1
 352 308 388 253.333 388 185 c 0
 388 105.7 338.667 57.001 260 57.001 c 0
 172.667 57.001 116 91.3333 116 181 c 0
 116 224.6 134.333 299.688 210 399 c 1
 210 399 162.5 434.5 163 435 c 1
 141 409 122 376.667 108 346 c 1
 65.3333 396.667 58 434 58 499.003 c 4
 58 611.625 136 714.998 273.002 714.999 c 260
 368 715 483 635 483 512 c 4
 483 478.667 475.333 437.333 460 388 c 5
 514 370 l 5
 527 414 541 450.858 541 512 c 4
 541 656 417 769.998 274.006 769.999 c 4
 92 770 0 616 0 496.002 c 4
 0 398 32 330 82 292 c 1
 66.667 252 59 215 59 181 c 0
 59 61.3333 128.667 0 261 0 c 0
EndSplineSet
EndChar

StartChar: u0B25
Encoding: 134 2853 134
Width: 620
Flags: MW
LayerCount: 3
Fore
SplineSet
325 619 m 4
 325 575.667 309.333 546.333 278 517 c 4
 224.294 469.491 113.56 426.194 58 369 c 4
 19.333 330.333 0 284 0 230 c 4
 0 81.9619 119.113 1 265 1 c 4
 339.8 1 412.382 48.7842 452 84 c 5
 452 0 l 5
 510 0 l 5
 510 770 l 5
 452 770 l 5
 452 163 l 5
 403.425 105.317 337.516 58 265 58 c 4
 151.296 58 58 121.973 58 228 c 4
 58 272.667 77 314 108 337 c 4
 191.155 398.696 272.171 425.519 330 485 c 4
 367.333 523 386.266 563.001 386.008 619 c 260
 385.5 729 303.5 765 227.008 765 c 4
 123.069 765 70.0078 683.302 70.0078 576 c 5
 128.008 576 l 5
 128.008 658.267 167.61 705.488 227.008 706 c 4
 285 706.5 325 683.5 325 619 c 4
EndSplineSet
EndChar

StartChar: u0B26
Encoding: 135 2854 135
Width: 651
Flags: MW
LayerCount: 3
Fore
SplineSet
116 181 m 0
 116 224.6 134.333 299.688 210 399 c 1
 210 399 162.5 434.5 163 435 c 1
 141 409 122 376.667 108 346 c 1
 65.3333 396.667 58 434 58 499.003 c 0
 58 611.625 136 714.998 273.002 714.999 c 256
 368 715 483 635 483 512 c 0
 483 478.667 475.333 437.333 460 388 c 1
 514 370 l 1
 527 414 541 450.858 541 512 c 0
 541 656 417 769.998 274.006 769.999 c 0
 92 770 0 616 0 496.002 c 0
 0 398 32 330 82 292 c 1
 66.667 252 59 215 59 181 c 0
 59 -0.4 203.2 0 242 0 c 0
 286.8 0 330 12.8 356 26 c 1
 356 0 l 1
 413 0 l 1
 413 350 l 1
 356 350 l 1
 356 94 l 1
 332.571 72.2857 283.6 58.4 244.8 58.4 c 0
 185.6 58.4 116 88.4 116 181 c 0
EndSplineSet
EndChar

StartChar: u0B27
Encoding: 136 2855 136
Width: 625
Flags: MW
LayerCount: 3
Fore
SplineSet
248 62 m 0
 336.029 62 413 113 458 166 c 1
 458 770 l 1
 515 770 l 1
 514 0 l 1
 457 0 l 1
 457 82 l 1
 410.574 43.6982 334.786 0 247 0 c 0
 118.359 0 0 114.098 0 281 c 0
 0 443.575 100.55 490 185 490 c 1
 -5 728 l 1
 41 764 l 1
 285 461 l 1
 245 420 l 1
 233 429.333 214.667 434 190 434 c 0
 138 434 60 407.05 60 283 c 0
 60 153.641 145.222 62 248 62 c 0
EndSplineSet
EndChar

StartChar: u0B28
Encoding: 137 2856 137
Width: 651
Flags: MW
LayerCount: 3
Fore
SplineSet
0 496.002 m 0
 0 616 92 770 274.006 769.999 c 0
 417 769.998 541 656 541 512 c 0
 541 450.858 527 414 514 370 c 1
 460 388 l 1
 475.333 437.333 483 478.667 483 512 c 0
 483 635 368 715 273.002 714.999 c 256
 136 714.998 58 611.625 58 499.003 c 0
 58 410.336 91.6 362.8 160 327 c 1
 216.551 391.63 300.891 447 421 447 c 1
 423 0 l 1
 365 0 l 1
 363 389 l 1
 217.793 368.644 111 204.716 111 73 c 1
 53 73 l 1
 53 142.333 77 212.333 125 283 c 1
 49.6 328.8 0 388 0 496.002 c 0
EndSplineSet
EndChar

StartChar: u0B2A
Encoding: 138 2858 138
Width: 620
Flags: MW
LayerCount: 3
Fore
SplineSet
241 770 m 4
 371.2 770 434.799 706.94 451 693 c 5
 451 770 l 5
 509 770 l 5
 510 0 l 5
 452 0 l 5
 452 75 l 5
 405.859 37.1406 338.084 0 259 0 c 4
 151.137 0 71 83.2471 71 200 c 4
 71 260.879 79.7988 286.598 102 331 c 5
 60.3008 353.935 0 412.2 0 534 c 4
 0 668.667 120 770 241 770 c 4
128 199 m 0
 128 117.932 179.6 57 257 57 c 0
 367.499 57 436.628 140.022 451 154 c 1
 451 614 l 1
 390.039 677.864 327.8 711 241 711 c 0
 132 711 58 612.667 58 534 c 0
 58 442.2 102.701 398.915 130 381 c 1
 130 381 149.556 410.444 156 417 c 1
 199 378 l 1
 179.793 348.915 128 282.954 128 199 c 0
EndSplineSet
EndChar

StartChar: u0B2B
Encoding: 139 2859 139
Width: 775
Flags: MW
LayerCount: 3
Fore
SplineSet
0 534 m 0
 0 412.2 60.3008 353.935 102 331 c 1
 79.7988 286.598 71 260.879 71 200 c 0
 71 83.2471 151.137 0 259 0 c 0
 338.084 0 405.859 37.1406 452 75 c 5
 452 0 l 5
 510 0 l 5
 509 546 l 5
 531.724 525.342 557.001 505.264 589 505 c 4
 649.5 504.5 685.401 560.877 685 619 c 4
 684.5 691.5 643.5 743 577 743 c 4
 546.65 743 526.5 729.5 509 710.5 c 5
 509 770 l 5
 451 770 l 5
 451 693 l 5
 434.799 706.94 371.2 770 241 770 c 0
 120 770 0 668.667 0 534 c 0
58 534 m 0
 58 612.667 132 711 241 711 c 0
 327.8 711 390.039 677.864 451 614 c 5
 451 154 l 5
 436.628 140.022 367.499 57 257 57 c 0
 179.6 57 128 117.932 128 199 c 0
 128 282.954 179.793 348.915 199 378 c 1
 156 417 l 1
 149.556 410.444 130 381 130 381 c 1
 102.701 398.915 58 442.2 58 534 c 0
578 561 m 4
 557 561 533.801 591.845 512 617 c 5
 521.368 636.321 537.086 685.456 573 686 c 4
 606 686.5 625 653.674 625 622 c 4
 625 592 614.503 561 578 561 c 4
EndSplineSet
EndChar

StartChar: u0B2C
Encoding: 140 2860 140
Width: 651
Flags: MW
LayerCount: 3
Fore
SplineSet
367.997 167.326 m 2
 367.437 260.794 326.667 347.333 228 347 c 0
 198.667 346.901 173.333 340 152 326 c 1
 66.3252 364.28 58 460.487 58 499 c 0
 58 611.622 136 714.998 273.002 714.999 c 256
 368 715 483 635 483 512 c 0
 483 478.667 475.333 437.333 460 388 c 1
 514 370 l 1
 527 414 541 450.858 541 512 c 0
 541 656 417 769.998 274.006 769.999 c 0
 92 770 0 615.998 0 496 c 0
 0 366.998 69.9297 305.307 111 281 c 1
 93.667 251.667 85 217 85 177 c 0
 85 106.625 112.2 0 221 0 c 0
 260.272 1.90735e-06 288.597 9.77832 311 28 c 1
 311 0 l 1
 369 0 l 1
 367.997 167.326 l 2
225 54 m 0
 160.2 54 144 118.944 144 174 c 0
 144 239.721 174.826 283 231 283 c 0
 295.046 283 311 226.137 311 166 c 0
 311.998 118.073 293.8 54 225 54 c 0
EndSplineSet
EndChar

StartChar: u0B2D
Encoding: 141 2861 141
Width: 706
Flags: MW
LayerCount: 3
Fore
SplineSet
224 58.999 m 0
 183.85 58.9986 116 83.4004 116 181 c 0
 116 256.5 158.062 338.999 208.728 399.999 c 1
 208.728 399.999 162.5 434.5 163 435 c 1
 147 415 122 376.667 108 346 c 1
 68.6667 395.333 59 429.692 59 482 c 0
 59 601.016 155 711.998 282 711.999 c 0
 404 712 540 632 540 407 c 0
 540 275.333 500.031 180.778 476 131 c 1
 575 -46 l 1
 626 -18 l 1
 540 133 l 1
 562.808 175.575 596 276 596 406 c 0
 596 666 443 770 280 769.998 c 0
 127.667 769.996 0 638.179 0 484 c 0
 0 396.524 36.0225 326.831 82 292 c 1
 66.667 252 59 215 59 181 c 0
 59 36.2002 160.439 0 224 0 c 0
 372 0 419.229 116.661 420 215 c 0
 420.667 300 413.333 344.667 407 374 c 1
 350 360 l 1
 355.333 336.667 360.861 293.344 360 246 c 0
 359.333 209.333 333.6 176.8 292 177 c 0
 259.6 177.156 238 201.333 238 239 c 0
 238 293.104 259.611 327.409 279.168 361.75 c 1
 279.25 362 238.25 392.5 238.335 392.666 c 1
 222.5 371.75 178.837 304.25 179 234 c 0
 179.2 148 242.006 118.281 283 119 c 0
 317.2 119.6 344 136.4 350.804 145.199 c 1
 339 108 312 59 224 58.999 c 0
EndSplineSet
EndChar

StartChar: u0B2E
Encoding: 142 2862 142
Width: 624
Flags: MW
LayerCount: 3
Fore
SplineSet
259 770 m 0
 341.625 770 407.509 743.409 456 703 c 1
 456 770 l 1
 513 770 l 1
 514 0 l 1
 457 0 l 1
 457 617 l 1
 437.952 646.074 378.6 711 261 711 c 0
 180.904 711 60 644.472 60 482 c 0
 60 374 118.5 308.5 197 281 c 5
 326.994 391.401 l 5
 365.998 347.333 l 5
 50.5 80.75 l 5
 14.5 126 l 5
 149.5 239.5 l 5
 58.04 277.608 0 360.5 0 482 c 0
 0 683.87 153.2 770 259 770 c 0
EndSplineSet
EndChar

StartChar: u0B2F
Encoding: 143 2863 143
Width: 677
Flags: HMW
LayerCount: 3
Fore
SplineSet
57 534 m 4
 57 428.638 102.123 370.819 141.295 342.286 c 5
 0 221.75 l 5
 36 176.5 l 5
 133.535 259.714 l 5
 129.667 245.333 128 224.396 128 200 c 4
 128 83.2471 208.137 0 316 0 c 4
 395.084 0 462.859 37.1406 509 75 c 5
 509 0 l 5
 567 0 l 5
 566 770 l 5
 508 770 l 5
 508 693 l 5
 491.799 706.904 428.2 770.326 298 770 c 4
 177 770 57 668.667 57 534 c 4
115 534 m 4
 115 612.667 189 711 298 711 c 4
 384.8 711 447.039 677.864 508 614 c 5
 508 154 l 5
 493.628 140.022 424.499 57 314 57 c 4
 236.6 57 185 117.932 185 199 c 4
 185 258.365 210.896 308.733 232.86 343.431 c 5
 261.428 367.354 l 5
 222.424 411.422 l 5
 187 381 l 5
 159.701 398.915 115 442.2 115 534 c 4
EndSplineSet
EndChar

StartChar: u0B30
Encoding: 144 2864 144
Width: 676
Flags: MW
LayerCount: 3
Fore
SplineSet
58.9248 481.383 m 0
 58.9229 600.4 149 711.998 272 711.999 c 0
 378 712 509.333 648.667 510 407 c 0
 510.363 275.333 470.031 180.778 446 131 c 1
 545 -46 l 1
 596 -18 l 1
 510 133 l 1
 532.808 175.575 566 276 566 406 c 0
 566 678 410.667 770 270 769.998 c 0
 120 769.996 -0.00227921 638.179 -0.000976562 483.991 c 0
 0 368.4 75.2 301.2 111 281 c 1
 93.667 251.667 85 217 85 177 c 0
 85 106.625 112.2 0 221 0 c 0
 327.333 0 366.245 80.4814 367.997 167.326 c 24
 369.789 256.141 326.667 347.333 228 347 c 0
 198.667 346.901 173.333 340 152 326 c 1
 73.6 364 58.9248 442.87 58.9248 481.383 c 0
225 54 m 0
 160.2 54 144 118.944 144 174 c 0
 144 239.721 174.826 283 231 283 c 0
 295.046 283 311 226.137 311 166 c 0
 311.998 118.073 293.8 54 225 54 c 0
EndSplineSet
EndChar

StartChar: u0B32
Encoding: 145 2866 145
Width: 696
Flags: MW
LayerCount: 3
Fore
SplineSet
586.002 406 m 0
 586 678 421.333 769.996 270 769.998 c 0
 114 770 0 638.179 0 484 c 0
 0 377.488 78.1918 291.687 130 270 c 1
 130 0 l 1
 187 0 l 1
 187 262 l 2
 187 277.333 197.8 290 214 290 c 0
 232 290.667 242 278 242 262 c 2
 242 0 l 1
 299 0 l 1
 299 262 l 18
 299 277.333 309.987 290 327 290 c 0
 344 290 355 278.667 355 262 c 2
 355 0 l 1
 412 0 l 1
 412 262 l 2
 412 308 388.667 348.667 327 349 c 0
 303 349.13 283.667 343 269 331 c 1
 253.667 343 235 349 213 349 c 0
 183.667 349 162 340.667 148 324 c 1
 99.909 346.631 59 409.832 59 482 c 0
 59 601.016 145.333 711.333 272 711.999 c 0
 387.332 712.605 530 645.333 529.999 407 c 0
 530.362 275.334 490.031 180.778 466 131 c 1
 565 -46 l 1
 616 -18 l 1
 530 133 l 1
 552.808 175.575 586.002 276 586.002 406 c 0
EndSplineSet
EndChar

StartChar: u0B33
Encoding: 146 2867 146
Width: 651
Flags: MW
LayerCount: 3
Fore
SplineSet
58.001 491.999 m 0
 58 618 136 714.998 273.002 714.999 c 256
 368 715 483 635 483 512 c 0
 483 478.667 475.333 437.333 460 388 c 1
 514 370 l 1
 527 414 541 450.858 541 512 c 0
 541 656 417 769.998 274.006 769.999 c 0
 92 770 0 634 0 488.998 c 0
 0 382.486 78.1918 291.687 130 270 c 1
 130 0 l 1
 187 0 l 1
 187 262 l 2
 187 277.333 197.8 290 214 290 c 0
 232 290.667 242 278 242 262 c 2
 242 0 l 1
 299 0 l 1
 299 262 l 18
 299 277.333 309.987 290 327 290 c 0
 344 290 355 278.667 355 262 c 2
 355 0 l 1
 412 0 l 1
 412 262 l 2
 412 308 388.667 348.667 327 349 c 0
 303 349.13 283.667 343 269 331 c 1
 253.667 343 235 349 213 349 c 0
 183.667 349 162 340.667 148 324 c 1
 99.909 346.631 58.0015 419.831 58.001 491.999 c 0
EndSplineSet
EndChar

StartChar: u0B36
Encoding: 147 2870 147
Width: 659
Flags: MW
LayerCount: 3
Fore
SplineSet
244 54 m 0
 179.2 54 163 119.944 163 175 c 0
 163 240.721 193.826 286 250 286 c 0
 314.046 286 330 227.137 330 167 c 0
 330.998 119.073 312.8 54 244 54 c 0
171 329 m 1
 65.0605 364.592 55 432 55 457 c 0
 55 488.844 71.4326 548 138 548 c 0
 156.667 548 173.333 543 188 533 c 1
 302 444 l 1
 338 490 l 1
 229 576 l 1
 219.667 588 215 602.333 215 619 c 0
 215 679 257.667 711 319 711 c 0
 398.967 711 456.5 661.5 490 613 c 1
 490 0 l 1
 548 0 l 1
 549 770 l 1
 491 770 l 1
 491 698 l 1
 449 736 389 770 320 770 c 0
 196.333 770 163 683 163 622 c 0
 163 615.745 163.285 609.975 163.754 604.5 c 1
 145 606 l 0
 47 606.5 0 536.806 0 456 c 0
 0 383.5 49.4971 319.935 130 284 c 1
 112.667 254.667 104 218 104 178 c 0
 104 107.625 131.2 0 240 0 c 0
 346.333 0 385.254 81.1875 386.997 168.326 c 24
 388.786 257.758 345.667 350.333 247 350 c 0
 217.667 349.901 192.333 343 171 329 c 1
EndSplineSet
EndChar

StartChar: u0B37
Encoding: 148 2871 148
Width: 620
Flags: MW
LayerCount: 3
Fore
SplineSet
241 770 m 4
 371.2 770 434.799 706.94 451 693 c 5
 451 770 l 5
 509 770 l 5
 510 0 l 5
 452 0 l 5
 452 75 l 5
 405.859 37.1406 338.084 0 259 0 c 4
 151.137 0 71 83.2471 71 200 c 4
 71 260.879 79.7988 286.598 102 331 c 5
 60.3008 353.935 0 412.2 0 534 c 4
 0 668.667 120 770 241 770 c 4
58 534 m 4
 58 442.2 102.701 398.915 130 381 c 5
 130 381 149.556 410.444 156 417 c 5
 199 378 l 5
 179.793 348.915 128 282.954 128 199 c 4
 128 117.932 179.6 57 257 57 c 4
 367.499 57 436.628 140.022 451 154 c 5
 451 186 l 5
 93.3242 633.5 l 5
 70.6988 602.551 58 566.588 58 534 c 4
241 711 m 4
 200.032 711 164.009 697.109 135 675.592 c 5
 451 279.5 l 5
 451 614 l 5
 390.039 677.864 327.8 711 241 711 c 4
EndSplineSet
EndChar

StartChar: u0B38
Encoding: 149 2872 149
Width: 623
Flags: MW
LayerCount: 3
Fore
SplineSet
457 54 m 1
 457 55 287.32 151.251 127.339 249.104 c 1
 344.998 433.333 l 1
 305.994 477.401 l 1
 147 343 l 1
 103 360 60 417 60 482 c 0
 60 644.472 180.904 711 261 711 c 0
 378.6 711 437.952 646.074 457 617 c 1
 457 54 l 1
513 -47 m 1
 513 770 l 1
 456 770 l 1
 456 703 l 1
 407.509 743.409 341.625 770 259 770 c 0
 153.2 770 0 683.87 0 482 c 0
 0 399 49 330 99.5 301.5 c 1
 28.5 241 l 1
 188.481 143.147 513 -46 513 -47 c 1
EndSplineSet
EndChar

StartChar: u0B39
Encoding: 150 2873 150
Width: 651
Flags: MW
LayerCount: 3
Fore
SplineSet
144.183 18.2568 m 1
 182.83 -0.0871131 223.893 4.45048e-06 242 0 c 0
 286.8 0 330 12.8 356 26 c 1
 356 0 l 1
 413 0 l 1
 413 350 l 1
 356 350 l 1
 356 94 l 1
 332.571 72.2857 283.6 58.4 244.8 58.4 c 0
 185.6 58.4 116 88.4 116 181 c 0
 116 224.6 134.333 299.688 210 399 c 1
 210 399 162.5 434.5 163 435 c 1
 141 409 122 376.667 108 346 c 1
 65.3333 396.667 58 434 58 499.003 c 0
 58 611.625 136 714.998 273.002 714.999 c 256
 368 715 483 635 483 512 c 0
 483 478.667 475.333 437.333 460 388 c 1
 514 370 l 1
 527 414 541 450.858 541 512 c 0
 541 656 417 769.998 274.006 769.999 c 0
 92 770 0 616 0 496.002 c 0
 0 398 32 330 82 292 c 1
 66.667 252 59 215 59 181 c 0
 59 122.649 73.9208 83.1088 95.457 56.3184 c 1
 27 -110 l 1
 235 -151 l 1
 247 -96 l 1
 109 -67 l 1
 144.183 18.2568 l 1
EndSplineSet
EndChar

StartChar: u0B3C
Encoding: 151 2876 151
Width: 14
Flags: MW
LayerCount: 3
Fore
SplineSet
-281 -60 m 4
 -259.4 -60 -235 -81.2002 -235 -116 c 260
 -235 -146.4 -254.046 -175 -281 -175 c 4
 -307.043 -175 -329.184 -146.004 -329 -116 c 260
 -328.8 -83.4 -307.059 -60 -281 -60 c 4
EndSplineSet
EndChar

StartChar: u0B3D
Encoding: 152 2877 152
Width: 285
Flags: MW
LayerCount: 3
Fore
SplineSet
128 385 m 1
 22 557 l 1
 164 789 l 1
 217 764 l 1
 94 557 l 1
 197 385 l 1
 94 213 l 1
 217 6 l 1
 164 -19 l 1
 22 213 l 1
 128 385 l 1
EndSplineSet
EndChar

StartChar: u0B3E
Encoding: 153 2878 153
Width: 258
Flags: MW
LayerCount: 3
Fore
SplineSet
147 0 m 1
 90 0 l 1
 90 770 l 1
 148 770 l 1
 147 0 l 1
EndSplineSet
EndChar

StartChar: u0B3F
Encoding: 154 2879 154
Width: 14
Flags: HW
LayerCount: 3
Fore
SplineSet
-113 826 m 5
 -159 793 l 5
 -200.667 858.667 -262 953 -371 953 c 4
 -492.41 953 -550.667 862 -600 791 c 5
 -647 827 l 5
 -594.667 899.333 -515.819 1011 -370 1011 c 4
 -238 1011 -155.333 892.667 -113 826 c 5
EndSplineSet
EndChar

StartChar: u0B40
Encoding: 155 2880 155
Width: 295
Flags: HW
LayerCount: 3
Fore
SplineSet
185 0 m 1
 184 776 l 1
 -17.5 575.5 l 1
 24.5 533.5 l 1
 125 635 l 1
 125 0 l 1
 185 0 l 1
EndSplineSet
EndChar

StartChar: u0B43
Encoding: 156 2883 156
Width: 20
Flags: HMW
LayerCount: 3
Fore
SplineSet
4.49902 -332.942 m 0
 4.49902 -406 -34.6667 -457.5 -123 -457.5 c 0
 -218.148 -457.5 -278.5 -385.045 -278.5 -283 c 0
 -278.5 -180.667 -188.667 -138.333 -163 -130.5 c 1
 -163 -130.667 -128.626 -143.667 -128.626 -143 c 1
 -169.227 -165.263 -230.5 -206.333 -230.5 -283 c 0
 -230.5 -352.422 -189.046 -405.5 -123 -405.5 c 0
 -72.0449 -405.5 -44.5 -372.667 -44.5 -333 c 0
 -44.5 -284.667 -59.3333 -270 -85 -270 c 0
 -107.055 -270 -129.333 -284.667 -134.381 -307.048 c 1
 -182.016 -293.754 l 1
 -168.292 -238.835 -123.647 -221.5 -86 -221.5 c 0
 -24 -221.5 4.49902 -262.5 4.49902 -332.942 c 0
EndSplineSet
EndChar

StartChar: u0B47
Encoding: 157 2887 157
Width: 536
Flags: HMW
LayerCount: 3
Fore
SplineSet
426 182 m 0
 426 68.2246 354 0 239 0 c 0
 79.667 0 0 129 0 387 c 0
 0 662.667 92.6667 770 231 770 c 0
 347.333 770 393.333 709.333 429 652 c 1
 386.666 612.666 l 1
 346.829 671.093 317.531 704 231 704 c 0
 122.68 704 59 584 59 385 c 1
 92.6667 396.667 155.333 419 232 419 c 0
 355.333 419 426 321.528 426 182 c 0
240 66 m 0
 322 66 368.419 113.328 367 180 c 0
 367 289.321 311.322 352.722 234 354 c 0
 153.333 355.333 91.3333 330 66 319 c 1
 66 178.516 116.086 66 240 66 c 0
EndSplineSet
EndChar

StartChar: u0B41
Encoding: 158 2884 158
Width: 14
Flags: MW
LayerCount: 3
Fore
SplineSet
-145 -164 m 1
 -109.28 -218.196 -69.4 -255 44 -255 c 1
 47 -305 l 1
 11.1445 -305 -99.6433 -309.908 -165 -213 c 1
 -183.5 -244 -212 -287 -267 -287 c 0
 -338.35 -287 -377 -230.858 -377 -180 c 0
 -377 -114.5 -336.888 -77 -273 -77 c 0
 -219 -77 -193 -100 -174 -123 c 1
 -166.975 -84.3585 -162.703 -42.9641 -161 1 c 1
 -117 1 l 1
 -117 -58.8 -127.2 -132.4 -145 -164 c 1
-335 -176 m 0
 -335 -203.65 -314.375 -237 -270 -237 c 0
 -231 -237 -209.705 -207.99 -193 -171 c 1
 -210.532 -145.676 -231.511 -118 -275 -118 c 0
 -312.536 -118 -335 -140.96 -335 -176 c 0
EndSplineSet
EndChar

StartChar: u0B4D
Encoding: 162 2893 162
Width: 14
Flags: MW
LayerCount: 3
Fore
SplineSet
49 -315 m 1
 9 -338 l 1
 -146 -66 l 1
 -104 -44 l 1
 49 -315 l 1
EndSplineSet
EndChar

StartChar: u0B56
Encoding: 163 2902 163
Width: 14
Flags: MW
LayerCount: 3
Fore
SplineSet
-86 744 m 5
 -68.5 774 -60 818.096 -60 845 c 4
 -58.8643 890.442 -86.126 980 -202 980 c 4
 -284.477 980 -354 908 -432 908 c 4
 -488.887 908 -519.309 952.844 -532 967 c 5
 -581 937 l 5
 -527.936 859.818 -463.05 850 -432 850 c 4
 -353.117 850 -297 924 -202 924 c 4
 -140.5 924 -118 873 -118 843 c 4
 -118 814.5 -135.5 770 -145 755 c 5
 -144.75 754.75 -86 744 -86 744 c 5
EndSplineSet
EndChar

StartChar: u0B57
Encoding: 164 2903 164
Width: 305
Flags: MW
LayerCount: 3
Fore
SplineSet
110 0 m 1
 169 0 l 1
 169 744 l 1
 186.5 774 195 818.096 195 845 c 0
 196.136 890.442 168.874 980 53 980 c 0
 -29.4766 980 -99 908 -177 908 c 0
 -233.887 908 -264.309 952.844 -277 967 c 1
 -326 937 l 1
 -272.936 859.818 -208.05 850 -177 850 c 0
 -98.1172 850 -42 924 53 924 c 0
 114.5 924 137 873 137 843 c 0
 137 814.5 119.5 770 110 755 c 1
 110 0 l 1
EndSplineSet
EndChar

StartChar: u0B5F
Encoding: 167 2911 167
Width: 676
Flags: HW
LayerCount: 3
Fore
SplineSet
115 534 m 0
 115 612.667 189 711 298 711 c 0
 384.8 711 447.039 677.864 508 614 c 1
 508 154 l 1
 493.628 140.022 424.499 57 314 57 c 0
 236.6 57 185 117.932 185 199 c 0
 185 258.365 210.896 308.733 232.86 343.431 c 1
 261.428 367.354 l 1
 222.424 411.422 l 1
 187 381 l 1
 159.701 398.915 115 442.2 115 534 c 0
57 534 m 0
 57 428.638 102.123 370.819 141.295 342.286 c 1
 0 221.75 l 1
 36 176.5 l 1
 133.535 259.714 l 1
 129.667 245.333 128 224.396 128 200 c 0
 128 83.2471 208.137 0 316 0 c 0
 346.562 0 370.942 4.5129 391.278 11.3632 c 1
 382 -30 l 1
 439 -38 l 1
 455.5 47.5 479.5 69 519 69 c 0
 550.016 69 567 40.5 567 6 c 0
 567 -24.5 535.596 -62.2148 491 -96 c 1
 586 -263 l 1
 637 -236 l 1
 568 -111 l 1
 621.1 -57.9004 627 -15.0352 627 7 c 0
 627 58.9906 603.537 103.368 566.93 119.197 c 1
 566 770 l 1
 508 770 l 1
 508 693 l 1
 491.799 706.904 428.2 770 298 770 c 0
 177 770 57 668.667 57 534 c 0
EndSplineSet
EndChar

StartChar: u0B60
Encoding: 168 2912 168
Width: 753
Flags: MW
LayerCount: 3
Fore
SplineSet
223 57 m 0
 291.8 57 309.998 121.073 309 169 c 0
 309 229.137 293.046 286 229 286 c 0
 172.826 286 142 242.721 142 177 c 0
 142 121.944 158.2 57 223 57 c 0
256.999 711.994 m 0
 134.001 712.703 58.9796 601.009 58.9951 481.986 c 0
 59 444.5 73 361.5 152 326 c 1
 173.333 340 198.667 347 228 347 c 0
 316.893 347 366 266.471 366 170 c 0
 366 72.541 313.582 0 221 0 c 0
 112.2 0 85 106.625 85 177 c 0
 85 217 93.667 251.667 111 281 c 1
 68.5 301.5 0 381 -0.00292969 483.984 c 0
 -0.007316 638.172 104.999 769.982 255.002 769.989 c 0
 404.085 769.989 494.124 678.826 516.002 537.989 c 1
 576.223 532.255 602.002 472.88 602.002 415.989 c 0
 602.002 376 586 352 577.002 339.989 c 1
 609.333 329.333 643.002 296.667 643.002 223.989 c 0
 643.002 203.656 637.908 156.014 583.002 106.989 c 1
 656.999 -18.334 l 1
 605.999 -46.334 l 1
 506.002 127.989 l 1
 575.437 169.275 583.002 208.79 583.002 228.989 c 0
 583.002 307.716 529.463 299.153 494.002 276.989 c 1
 455.002 320.989 l 1
 474 329.333 544.002 358.185 544.002 419.989 c 0
 544.002 458.667 530 482.989 501.002 482.989 c 0
 462 482.989 434.667 454.667 411.002 422.989 c 1
 369.002 462.989 l 1
 389.333 488.667 415.646 517.303 457.002 532.989 c 1
 428.38 700.63 305.57 711.994 256.999 711.994 c 0
EndSplineSet
EndChar

StartChar: u0B61
Encoding: 169 2913 169
Width: 502
Flags: HMW
LayerCount: 3
Fore
SplineSet
312 218 m 0
 358 218 393 188.667 393 118 c 0
 393 86.667 375.333 59 340 35 c 1
 395.025 -8.35195 465.771 -39.6007 492 -52 c 1
 468 -99 l 1
 432.45 -78.7734 356.648 -43.0464 295 10 c 1
 266.117 1.97754 242.494 0 220 0 c 0
 124.137 0 0 79.4469 0 236 c 0
 0 335.949 88.0137 400.529 179.5 456 c 0
 290.46 523.279 334 542.102 334 607 c 0
 334 674.667 306.667 712 236 712 c 0
 186 712 161 692 161 652 c 0
 161.563 618.123 202.338 602.711 213 600 c 1
 192 547 l 1
 171.615 555.625 102 589 102 652 c 0
 102 705.9 128.8 770 236 770 c 0
 341.5 770 392 713.5 392 605 c 0
 392 514.722 306.13 460.354 218 408 c 0
 150.667 368 60 319.162 60 236 c 0
 60 114.578 149.333 60 219 60 c 0
 230.706 60 253.334 61.333 253.334 61.333 c 1
 238 79 226 104 226 124 c 0
 226 178.076 255.5 218 312 218 c 0
302 75 m 1
 320.667 81.667 340 98.6667 340 122 c 0
 340 140 333.333 162 311 162 c 0
 291 162 281 149.667 281 125 c 0
 281 111 288 94.333 302 75 c 1
EndSplineSet
EndChar

StartChar: u0B66
Encoding: 170 2918 170
Width: 470
Flags: MW
LayerCount: 3
Fore
SplineSet
235 770 m 4
 376.054 770 400 549.642 400 387 c 4
 400 178 359.333 0 234 0 c 4
 107.117 0 70 220.48 70 388 c 4
 70 537.155 103 770 235 770 c 4
237 67 m 4
 328.2 67 351 194.75 351 389 c 4
 351 590.225 328 703 236 703 c 4
 146.4 703 119 546 119 390 c 4
 119 198 146.6 67 237 67 c 4
EndSplineSet
EndChar

StartChar: u0B67
Encoding: 171 2919 171
Width: 532
Flags: MW
LayerCount: 3
Fore
SplineSet
273 770 m 4
 407.802 770 462 648.464 462 496 c 4
 462 339.5 383.821 233 220 233 c 5
 220 300 l 5
 323.831 300 413 376.861 413 496 c 4
 413 607.676 374.815 703 273 703 c 4
 182.4 703 119 585.352 119 425 c 4
 119 223.558 235.6 67 406 67 c 5
 406 0 l 5
 208.375 0 70 186.25 70 427 c 4
 70 621.865 151.2 770 273 770 c 4
EndSplineSet
EndChar

StartChar: u0B68
Encoding: 172 2920 172
Width: 532
Flags: HW
LayerCount: 3
Fore
SplineSet
259 770 m 0
 124.198 770 70 648.464 70 496 c 0
 70 339.5 148.179 233 312 233 c 1
 312 300 l 1
 208.169 300 119 376.861 119 496 c 0
 119 607.676 157.185 703 259 703 c 0
 349.6 703 413 585.352 413 425 c 0
 413 223.558 296.4 67 126 67 c 1
 126 0 l 1
 323.625 0 462 186.25 462 427 c 0
 462 621.865 380.8 770 259 770 c 0
EndSplineSet
EndChar

StartChar: u0B69
Encoding: 173 2921 173
Width: 700
Flags: HW
LayerCount: 3
Fore
SplineSet
465 679 m 0
 570.52 679 630 579.559 630 459 c 0
 630 315.4 586.18 170.061 556 100 c 1
 506 123 l 1
 536.869 192.189 581 325.2 581 460 c 0
 581 563.333 543 612 475 612 c 0
 443.733 612 373 601.2 373 538 c 2
 373 163 l 1
 324 163 l 1
 324 538 l 2
 324 599.6 255.744 613 222 613 c 0
 181.6 613 119 588.3 119 460 c 0
 119 338.967 153.973 209.725 194 123 c 1
 143 100 l 1
 102.459 192.666 70 334.746 70 458 c 0
 70 578.036 119.561 679 227 679 c 0
 306.5 679 336 639 348 619 c 1
 356.5 638 388.333 679 465 679 c 0
EndSplineSet
EndChar

StartChar: u0B6A
Encoding: 174 2922 174
Width: 631
Flags: MW
LayerCount: 3
Fore
SplineSet
313 534 m 1
 405.373 573.428 512 641.4 512 713 c 1
 561 712 l 1
 561 611.268 442.297 537.601 372 500 c 1
 411.5 470 482 407.5 482 296 c 0
 482 143.5 412.5 66 313 66 c 0
 203.5 66 159 163 159 310 c 0
 159 416 233 476 263 498 c 1
 190.617 532.851 70 606.268 70 713 c 1
 119 713 l 1
 119 641.4 209.202 585.341 313 534 c 1
313 133 m 0
 387 133 433 182 433 292 c 0
 433 377 374 432.5 313 469 c 1
 274 446 208 378 208 307 c 0
 208 202 242 133 313 133 c 0
EndSplineSet
EndChar

StartChar: u0B6B
Encoding: 175 2923 175
Width: 610
Flags: MW
LayerCount: 3
Fore
SplineSet
394 404 m 1
 463.408 380.255 516 358 555 308 c 1
 509 251 l 1
 488.5 289.5 442.192 314.03 391 325 c 1
 419 283 433 233.667 433 177 c 0
 433 80.9717 372.645 0 265 0 c 0
 184 0 130 68.667 130 193 c 0
 130 270.57 164.026 325.245 211 367 c 1
 133.302 387.38 89.2354 422.529 55 491 c 1
 101 537 l 1
 138 482 160.521 464.719 210 449 c 1
 185.105 492.912 174.742 543.442 178.834 599.961 c 0
 185.766 695.739 251.783 771.766 359.173 764.371 c 0
 432.333 759.333 489.994 701.764 479.888 562.129 c 0
 474.288 484.761 443.866 442.255 394 404 c 1
352.414 698.688 m 0
 276.131 704.447 231.965 655.271 228.066 601.411 c 0
 220.616 498.48 276.965 444.369 302.423 423.579 c 1
 361.498 436.348 425.394 478.849 431.16 567.661 c 0
 436.333 647.333 405.667 694.667 352.414 698.688 c 0
267 66 m 0
 343.5 66 384 118 384 172 c 0
 384 275.2 323.893 325.102 297 344 c 1
 239 327 179 280 179 191 c 0
 179 116.667 209 66 267 66 c 0
EndSplineSet
EndChar

StartChar: u0B6C
Encoding: 176 2924 176
Width: 375
Flags: MW
LayerCount: 3
Fore
SplineSet
256 388 m 4
 256 580.784 165.433 703 55 703 c 5
 55 770 l 5
 205 770 303.792 607.484 305 389 c 4
 305 139.056 177.002 0 55 0 c 5
 55 67 l 5
 149.572 67 256 180.397 256 388 c 4
EndSplineSet
EndChar

StartChar: u0B6D
Encoding: 177 2925 177
Width: 534
Flags: HW
LayerCount: 3
Fore
SplineSet
249 703 m 0
 364 703 415 579 415 388 c 0
 415 180.397 248.572 67 154 67 c 1
 154 0 l 1
 276.002 0 464 139.056 464 389 c 0
 464 622 402 770 249 770 c 0
 133 770 70 663.399 70 536 c 0
 70 431.967 111.368 320 205 320 c 0
 283.512 320 325 382.582 325 469 c 0
 325 580.481 260.8 608 218 608 c 1
 218 541 l 1
 240.8 541 277 527.2 277 468 c 256
 277 435.2 261.4 387 207 387 c 0
 140.555 387 119 465.299 119 535 c 256
 119 598.85 159 703 249 703 c 0
EndSplineSet
EndChar

StartChar: u0B6E
Encoding: 178 2926 178
Width: 547
Flags: MW
LayerCount: 3
Fore
SplineSet
70 576 m 6
 70 671.513 125.619 732 206 732 c 2
 477 732 l 1
 477 664 l 1
 204 664 l 2
 166.837 664 119 631.325 119 570 c 2
 119 44 l 1
 70 44 l 1
 70 576 l 6
EndSplineSet
EndChar

StartChar: u0B6F
Encoding: 179 2927 179
Width: 504
Flags: HMW
LayerCount: 3
Fore
SplineSet
114 388 m 0
 114 169 235 67 349 67 c 1
 349 0 l 1
 204 0 65 111.992 65 384 c 0
 65 584 136.915 770 248 770 c 0
 333.2 770 381.2 703.2 390 684 c 1
 390 770 l 1
 439 770 l 1
 439 574 l 1
 439 573 393.5 573.354 393.5 574 c 1
 382 607.5 331 703 247 703 c 0
 163.998 703 114 548 114 388 c 0
EndSplineSet
EndChar

StartChar: u0B70
Encoding: 180 2928 180
Width: 477
Flags: HW
LayerCount: 3
Fore
SplineSet
203.562 488.146 m 0
 203.562 455.084 187.29 435.936 152.538 435.936 c 0
 117.818 435.936 102.497 455.062 102.497 488.146 c 0
 102.497 518.868 117.215 539.351 152.538 539.351 c 0
 186.867 539.351 203.562 520.244 203.562 488.146 c 0
422 658 m 1
 114 -28 l 1
 0 232 l 1
 54 254 l 1
 114 119 l 1
 367 681 l 1
 422 658 l 1
EndSplineSet
EndChar

StartChar: u0B71
Encoding: 181 2929 181
Width: 549
Flags: HMW
LayerCount: 3
Fore
SplineSet
437.999 370 m 1
 439 0 l 1
 381 0 l 1
 381 75 l 1
 334.859 37.1406 267.084 0 188 0 c 0
 80.1367 0 0 83.2471 0 200 c 0
 0 244.595 11.2881 285.506 25.6367 319.494 c 1
 16.3555 349.069 11.4922 381.398 11.4922 415.162 c 0
 11.4922 563.488 102.731 750.025 118.809 785.977 c 1
 170.867 759.354 l 1
 137.252 683.471 71.3027 544.249 71.3027 415.931 c 0
 71.3027 254.815 177.085 223.088 226.288 223.088 c 0
 302.62 223.088 381.274 276.401 381.274 372.07 c 0
 381.274 433.223 359.342 464.508 344.375 479.496 c 1
 301.818 446.296 l 1
 266.318 497.166 l 1
 282.286 507.562 372.068 555.472 372.068 642.93 c 0
 372.068 683.903 346.441 711.886 308 711.886 c 0
 285.748 711.886 252.371 700.931 252.371 635.708 c 1
 193.328 635.708 l 1
 193.328 742.579 261.448 770.192 308 770.192 c 0
 381.867 770.192 431.111 719.287 431.111 642.93 c 0
 431.111 590.635 413.219 549.461 387.014 519.92 c 1
 425.035 479.235 437.986 429.623 437.999 370 c 1
379.999 227.798 m 1
 341.2 188 276.563 163.242 224.754 163.242 c 0
 154.801 163.242 99.1387 195.199 62.2432 245.746 c 1
 58.9541 230.936 57 215.307 57 199 c 0
 57 117.932 108.6 57 186 57 c 0
 296.499 57 365.628 140.022 380 154 c 1
 379.999 227.798 l 1
EndSplineSet
EndChar

StartChar: u0B1C_u0B1E.sub
Encoding: 182 -1 182
Width: 797
Flags: MW
LayerCount: 3
Fore
SplineSet
486.024 445 m 5
 687 445 l 1
 687 0 l 1
 632 0 l 1
 632 386 l 1
 537.979 386.003 l 5
 552.722 356.605 561.744 316.911 562 261 c 4
 562.667 115.333 462 0 293 0 c 4
 126 0 0 107.333 0 254 c 4
 0 342 18 406 31.9932 435.996 c 5
 86 413 l 5
 75.333 387.333 58 337.333 58 252 c 4
 58 135.333 170.667 58 291 58 c 4
 420.002 58 500.667 126.667 501 261 c 4
 501.297 380.753 446.013 407.045 424 413 c 5
 405.637 404.363 385.646 397.354 364 392 c 5
 356 384.333 349 366.612 349 351 c 6
 349 251 l 5
 292 251 l 5
 292 350 l 6
 292 364.736 283.333 380.333 271 390 c 5
 249.333 393 223.333 402.333 209 410 c 5
 183.871 402.4 157.714 380.2 158 336 c 4
 158.129 316.112 164.112 300.859 172 288 c 5
 124 259 l 5
 118.61 270.976 92.8809 314.627 103.685 365.744 c 4
 108.926 390.54 124.894 422.046 152 441.667 c 5
 106 470.333 45 539.333 45 615 c 0
 46 707.333 75.5996 754.4 91 770 c 1
 141 750 l 1
 122.4 730.4 100.667 691.333 101 616 c 0
 101.416 522.001 217.14 440.042 325 444 c 4
 430.618 447.876 506.532 538.523 510 613 c 0
 512.181 659.824 499.489 710.673 446 710 c 0
 421.684 709.694 393 693.267 393 668 c 2
 393 605 l 1
 336 605 l 1
 336 668 l 2
 336 694.405 302.05 712.885 267 711 c 0
 225.229 708.754 217.558 678.861 217 667 c 0
 217.16 644.154 223.256 634.34 228 629 c 1
 190 586.6 l 1
 166.925 608.166 156.648 640.077 158 668 c 0
 160.835 726.568 216.058 768.574 267 770 c 0
 295.113 770.787 336.205 760.418 361 734 c 1
 367.096 743.234 386.975 770 445 770 c 0
 543.441 770 573.012 683.47 568 611 c 0
 563.296 542.974 524 488.333 480 449 c 5
 486.024 445 l 5
EndSplineSet
LCarets2: 2 0 0 
Ligature2: "'akhn' Akhand in Oriya lookup 1 subtable" u0B1C u0B4D u0B1E
EndChar

StartChar: u0B19_u0B15.sub
Encoding: 183 -1 183
Width: 678
Flags: MW
LayerCount: 3
Fore
SplineSet
105.666 350 m 1
 537 350 l 1
 537 0 l 5
 480 0 l 1
 480 291 l 1
 442 291 l 1
 442 0 l 1
 383 0 l 1
 383 87 l 1
 370.667 76 352.667 70 338 70 c 0
 296.626 70 261.333 101.333 251 121 c 1
 238.667 101.333 197.333 70 141 70 c 0
 57.665 70 16 131.076 16 208 c 0
 16 253.236 31.0918 293.737 48.8887 326.222 c 1
 20.457 363.605 0 417.494 0 483.997 c 0
 0 638.176 110 769.993 260 769.995 c 0
 313.73 769.995 366.941 755.321 410.325 714.863 c 1
 426.044 727.175 446.851 734.997 474 734.997 c 0
 544 734.997 578 667.843 578 601.997 c 0
 578 537.315 549.006 476.997 469 476.997 c 0
 394.5 476.997 367 543.997 367 609.997 c 0
 367 626.22 369.377 644.769 375.309 662.523 c 1
 346.206 692.157 307.591 711.996 262 711.996 c 0
 139 711.995 59 601.013 59 481.997 c 0
 59 429.689 68 399.333 105.666 350 c 1
382.998 289.996 m 1
 280.666 289.771 l 1
 281 188 l 2
 281.106 155.667 312.562 127.41 338 127 c 0
 358.667 126.667 380 143.333 383 157.329 c 1
 382.998 289.996 l 1
223 289.998 m 1
 95.0479 290 l 1
 82.7643 265.025 74 236.398 74 206 c 0
 74 171.678 87.4004 127 141 127 c 0
 172.333 127 223 157.666 223 188 c 2
 223 289.998 l 1
470 537.997 m 0
 505.043 537.997 523.27 568.907 522 606.997 c 0
 522 638.106 508.38 677.997 472 677.997 c 0
 431.2 677.997 424 640.947 424 611.997 c 0
 424 576.719 433.2 537.997 470 537.997 c 0
EndSplineSet
Ligature2: "'blws' Below Base Substitutions in Oriya lookup 8 subtable" u0B19 u0B15.sub
EndChar

StartChar: u0B19_u0B4D_u0B18
Encoding: 184 -1 184
Width: 804
Flags: MW
LayerCount: 3
Fore
SplineSet
528 0 m 5
 470 0 l 5
 470 88 l 5
 457.667 77 438.667 70 424 70 c 0
 382.626 70 347.333 101.333 337 121 c 1
 324.667 101.333 283.333 70 227 70 c 0
 143.665 70 102 131.076 102 208 c 0
 102 232.667 104.667 252.664 114.667 279.331 c 1
 73.3333 302 0 367 0 496 c 0
 0 639.616 105.016 769.997 289.006 769.999 c 0
 367.333 770 424.667 739.333 470 699 c 5
 470 770 l 5
 527.999 770 l 5
 528 710.5 l 5
 545.5 729.5 565.65 743 596 743 c 4
 662.5 743 703.5 691.5 704 619 c 4
 704.401 560.877 668.5 504.5 608 505 c 4
 576.001 505.264 550.724 525.342 528 546 c 5
 528 0 l 5
597 561 m 4
 633.503 561 644 592 644 622 c 4
 644 653.674 625 686.5 592 686 c 4
 556.086 685.456 540.368 636.321 531 617 c 5
 552.801 591.845 576 561 597 561 c 4
138.667 332 m 1
 150.67 353.332 166.333 376.333 185 395 c 1
 225 353 l 1
 196.004 324.004 160 264.8 160 206 c 0
 160 171.678 173.4 127 227 127 c 0
 258.333 127 309 157.667 309 188 c 2
 309 325 l 1
 367 325 l 1
 367 188 l 2
 367 155.667 398.563 127.41 424 127 c 0
 444.667 126.667 467 143.333 470 157.329 c 5
 470 625 l 5
 401.095 698.713 339.333 714.667 288.002 714.999 c 0
 137.403 715.974 58 611.625 58 499 c 0
 58 460.49 68 371.333 138.667 332 c 1
EndSplineSet
Ligature2: "'blws' Below Base Substitutions in Oriya lookup 9 subtable" u0B19 u0B18 u0B4D
EndChar

StartChar: u0B19_u0B4D_u0B16
Encoding: 185 -1 185
Width: 821
Flags: MW
AnchorPoint: "C" 266 800 basechar 0
LayerCount: 3
Fore
SplineSet
Fore
SplineSet
826 757 m 0
 919.718 757 976.161 683.408 971 606 c 1
 971 532.822 924.416 454 825 454 c 0
 780.2 454 750.102 470.617 713 512 c 1
 713 2 l 1
 656 2 l 1
 656 592 l 1
 602.642 552.87 547.529 540 489 540 c 0
 381.439 540 326.15 609.286 315 718 c 1
 192.616 718 67 638.35 67 484 c 0
 67 396.676 91.0644 349.144 110 326 c 1
 133.333 343.333 162 352 196 352 c 0
 218.4 352 271.04 347.412 308 291 c 1
 327.589 327.566 367.433 352 425 352 c 0
 516.904 352 564 269.2 564 175 c 0
 564 103.806 534.8 5 418 5 c 0
 362.056 5 330.635 31.2362 307 65 c 1
 293.553 40.6274 260.2 4 190 4 c 0
 96.6153 4 51 82.6079 51 182 c 0
 51 219.333 58.3333 251.333 73 278 c 1
 47.0027 306.258 10 369.089 10 482 c 0
 10 573.333 46.3333 647 119 703 c 1
 185 752.333 270 777 374 777 c 1
 374 672.69 397.58 597 491 597 c 0
 576.138 597 608.961 624.107 659 666 c 1
 659 778 l 1
 716 778 l 1
 716 717 l 1
 751 739 l 1
 775 751 800 757 826 757 c 0
828 513 m 0
 899.506 513 915.389 577.804 917 606 c 1
 917 641.112 899 698 827 698 c 0
 805.667 698 785.333 692.667 766 682 c 1
 717 640 l 1
 717 607 l 1
 736.237 562.114 777.158 513 828 513 c 0
419 62 m 0
 489.4 62 508.082 118.806 507 174 c 1
 507 235.056 490.8 291 426 291 c 256
 354.8 291 337 225.6 337 182 c 0
 337 127.85 353.4 62 419 62 c 0
190 62 m 0
 260.4 62 279.082 118.806 278 174 c 1
 278 235.056 261.8 291 197 291 c 0
 138.798 291 108 248.817 108 182 c 0
 108 127.85 124.4 62 190 62 c 0
EndSplineSet
SplineSet
656 699 m 1
 656 770 l 1
 713.999 770 l 1
 714 710.5 l 1
 731.5 729.5 751.65 743 782 743 c 0
 848.5 743 889.5 691.5 890 619 c 0
 890.401 560.877 854.5 504.5 794 505 c 0
 762.001 505.264 736.724 525.342 714 546 c 1
 714 0 l 1
 656 0 l 1
 656 88 l 1
783 561 m 0
 819.503 561 830 592 830 622 c 0
 830 653.674 811 686.5 778 686 c 0
 742.086 685.456 726.368 636.321 717 617 c 1
 738.801 591.845 762 561 783 561 c 0
656 157.329 m 1
 656 625 l 1
EndSplineSet
Back
SplineSet
656 699 m 1
 656 770 l 1
 713.999 770 l 1
 714 710.5 l 1
 731.5 729.5 751.65 743 782 743 c 0
 848.5 743 889.5 691.5 890 619 c 0
 890.401 560.877 854.5 504.5 794 505 c 0
 762.001 505.264 736.724 525.342 714 546 c 1
 714 0 l 1
 656 0 l 1
 656 88 l 1
783 561 m 0
 819.503 561 830 592 830 622 c 0
 830 653.674 811 686.5 778 686 c 0
 742.086 685.456 726.368 636.321 717 617 c 1
 738.801 591.845 762 561 783 561 c 0
656 157.329 m 1
 656 625 l 1
EndSplineSet
Ligature2: "'blws' Below Base Substitutions in Oriya lookup 9 subtable" u0B19 u0B16 u0B4D
LCarets2: 2 0 0 
EndChar

StartChar: u0B19_u0B4D_u0B17
Encoding: 186 -1 186
Width: 821
Flags: HW
AnchorPoint: "C" 266 800 basechar 0
LayerCount: 3
Fore
SplineSet
825 755 m 0
 920.811 755 974.75 678.507 971 606 c 1
 971 526.204 922.58 454 827 454 c 0
 781.8 454 751.554 474.151 714 513 c 1
 714 1 l 1
 657 1 l 1
 657 589 l 1
 649 601 l 2
 620.534 645.478 527.231 718 342 718 c 0
 194.668 718 66 638.016 66 483 c 0
 66 395.676 90.0644 348.144 109 325 c 1
 132.333 342.333 161 351 195 351 c 0
 217.4 351 270.04 346.412 307 290 c 1
 326.589 326.566 366.433 351 424 351 c 0
 515.904 351 563 268.2 563 174 c 0
 563 102.806 533.8 4 417 4 c 0
 361.056 4 329.635 30.2362 306 64 c 1
 292.553 39.6274 259.2 3 189 3 c 0
 95.6153 3 50 81.6079 50 181 c 0
 50 218.333 57.3333 250.333 72 277 c 1
 46.0027 305.258 9 368.089 9 481 c 0
 9 658.462 148.846 775 343 775 c 0
 520.749 775 613.103 717.814 658 678 c 1
 658 777 l 1
 715 777 l 1
 715 710 l 1
 769.892 751.642 797.258 755 825 755 c 0
829 510 m 0
 893.058 510 915.061 572.068 916 604 c 0
 916 639.112 898 696 826 696 c 0
 782 696 735.1 653.137 716 627 c 1
 716 602 l 1
 751.009 551.297 783.8 510 829 510 c 0
419 60 m 0
 489.4 60 508.082 116.806 507 172 c 1
 507 233.056 490.8 289 426 289 c 256
 354.8 289 337 223.6 337 180 c 0
 337 125.85 353.4 60 419 60 c 0
190 60 m 0
 260.4 60 279.082 116.806 278 172 c 1
 278 233.056 261.8 289 197 289 c 0
 138.798 289 108 246.817 108 180 c 0
 108 125.85 124.4 60 190 60 c 0
EndSplineSet
LCarets2: 2 0 0 
Ligature2: "'blws' Below Base Substitutions in Oriya lookup 9 subtable" u0B19 u0B17 u0B4D
EndChar

StartChar: u0B2B_u0B4D_u0B2E
Encoding: 187 -1 187
Width: 673
Flags: MW
AnchorPoint: "C" 266 800 basechar 0
LayerCount: 3
Fore
SplineSet
675 754 m 0
 762 754 818.581 686.552 820 600 c 1
 820 520.291 772.045 453 677 453 c 0
 663 453 653 453.667 647 455 c 2
 615 467 l 1
 755 246 l 1
 706 216 l 1
 561 445 l 1
 561 0 l 1
 503 0 l 1
 503 536 l 1
 501 541 l 1
 437.498 488.837 374.279 492 364 492 c 0
 232.1 492 215 575.33 215 619 c 0
 215 647.667 222.333 677.333 237 708 c 1
 154.692 691.538 68 582.902 68 455 c 0
 68 353.55 152.304 341.424 186 333 c 1
 185 321 l 1
 220 354 l 1
 257 380 l 1
 284 327 l 1
 212.937 288.239 111.663 138.45 76 2 c 1
 19 14 l 1
 38.0935 101.512 101.945 212.565 153 281 c 1
 77.1126 298.182 10 351 10 456 c 0
 10 613.8 97.3463 693.022 131 719 c 0
 155 737.667 185 752.333 221 763 c 1
 257.64 770.965 315.44 776 365 776 c 1
 309 717.333 281 664.333 281 617 c 0
 281 572.333 308.333 550 363 550 c 0
 404.6 550 435.948 563.648 467 592 c 1
 379 732 l 1
 429 762 l 1
 501 645 l 1
 501 778 l 1
 559 778 l 1
 559 693 l 1
 585.63 722.703 623.34 754 675 754 c 0
677 512 m 0
 744.2 512 761.941 569.959 761 601 c 0
 761 655.851 727.626 695 677 695 c 0
 655 695 633.333 685.667 612 667 c 1
 561 606 l 1
 576.658 567.834 620.566 512 677 512 c 0
EndSplineSet
LCarets2: 1 0 
Ligature2: "'blws' Below Base Substitutions in Oriya lookup 9 subtable" u0B2B u0B2E.sub
EndChar

StartChar: u0B15_u0B4D_u0B37
Encoding: 188 -1 188
Width: 677
Flags: MW
LayerCount: 3
Fore
SplineSet
57 534 m 0
 57 428.638 102.123 370.819 141.295 342.286 c 1
 0 221.75 l 1
 36 176.5 l 1
 133.535 259.714 l 1
 129.667 245.333 128 224.396 128 200 c 0
 128 83.2471 208.137 0 316 0 c 0
 395.084 0 462.859 37.1406 509 75 c 1
 509 0 l 1
 567 0 l 1
 566 770 l 1
 508 770 l 1
 508 693 l 1
 491.799 706.904 428.2 770.326 298 770 c 0
 177 770 57 668.667 57 534 c 0
192.001 675.594 m 1
 222.4 697.2 255.128 711 298 711 c 0
 384.8 711 447.039 677.864 508 614 c 1
 508 279.5 l 1
 192.001 675.594 l 1
150.324 633.5 m 1
 508 186 l 1
 508 154 l 1
 493.628 140.022 424.499 57 314 57 c 0
 236.6 57 185 117.932 185 199 c 0
 185 258.365 210.896 308.733 232.86 343.431 c 1
 261.428 367.354 l 1
 222.424 411.422 l 1
 187 381 l 1
 159.701 398.915 115 442.2 115 534 c 0
 115 567.328 126.726 602.085 150.324 633.5 c 1
EndSplineSet
Ligature2: "'akhn' Akhand in Oriya lookup 1 subtable" u0B15 u0B37 u0B4D
LCarets2: 2 0 0 
EndChar

StartChar: u0B1A_u0B4D_u0B1A
Encoding: 189 -1 189
Width: 829
Flags: HW
LayerCount: 3
Fore
SplineSet
360 770 m 0
 546 770 720.464 700.013 719 520 c 0
 719 458.8 704.667 397.333 691 367 c 1
 637 385 l 1
 648.667 409.333 663 449.405 663 520 c 0
 663 672.8 497.023 710 362 710 c 0
 223.355 710 60 673.4 60 523 c 0
 60 492.398 64.1807 448.508 90 419 c 1
 120.667 467.333 152.667 488 193 488 c 0
 239 488 281.599 449.002 308 389 c 1
 332.667 448 369.333 489 425 489 c 0
 490.667 489 575 401.333 575 245 c 0
 575 107.747 502.597 0 424 0 c 0
 366.332 0 327.333 48 308 100 c 1
 282.508 46.5889 244.667 0 191 0 c 0
 119.004 0 43 100.511 43 245 c 0
 43 291.901 48.293 326.862 62 363 c 1
 38.5479 378.99 0 427.4 0 524 c 0
 0 696.619 167.619 770 360 770 c 0
429 57 m 0
 483 57 520.298 145.639 519 243 c 0
 519 319.776 492.502 428 428 428 c 0
 375.8 428 341 346.048 341 243 c 0
 341 137.45 376.2 57 429 57 c 0
195 56 m 0
 259.333 56 282 161.917 282 242 c 24
 282 321.73 258.667 427 195 427 c 0
 128.372 427 104 320.188 104 242 c 0
 104 162.338 127.064 56 195 56 c 0
EndSplineSet
LCarets2: 2 0 0 
Ligature2: "'blws' Below Base Substitutions in Oriya lookup 9 subtable" u0B1A u0B1A u0B4D
EndChar

StartChar: u0B1F_u0B4D_u0B1F
Encoding: 190 -1 190
Width: 829
Flags: HW
LayerCount: 3
Fore
SplineSet
195 56 m 0
 127.064 56 104 162.338 104 242 c 0
 104 320.188 128.372 427 195 427 c 0
 258.667 427 282 321.73 282 242 c 24
 282 161.917 259.333 56 195 56 c 0
429 57 m 0
 376.2 57 341 137.45 341 243 c 0
 341 346.048 375.8 428 428 428 c 0
 492.502 428 519 319.776 519 243 c 0
 520.298 145.639 483 57 429 57 c 0
719 770 m 1
 661 770 l 1
 661 671.653 l 1
 594.818 740.816 480.12 770 360 770 c 0
 167.619 770 0 696.619 0 524 c 0
 0 427.4 38.5479 378.99 62 363 c 1
 48.293 326.862 43 291.901 43 245 c 0
 43 100.511 119.004 0 191 0 c 0
 244.667 0 282.508 46.5889 308 100 c 1
 327.333 48 366.332 0 424 0 c 0
 502.597 0 575 107.747 575 245 c 0
 575 401.333 490.667 489 425 489 c 0
 369.333 489 332.667 448 308 389 c 1
 281.599 449.002 239 488 193 488 c 0
 152.667 488 120.667 467.333 90 419 c 1
 64.1807 448.508 60 492.398 60 523 c 0
 60 673.4 223.355 710 362 710 c 0
 488.355 710 641.817 677.423 660.998 548.02 c 1
 661 372 l 1
 719 372 l 1
 719 770 l 1
EndSplineSet
LCarets2: 1 0 
Ligature2: "'blws' Below Base Substitutions in Oriya lookup 9 subtable" u0B1F u0B1F.sub
EndChar

StartChar: u0B13_u0B4D_u0B09
Encoding: 191 -1 191
Width: 810
Flags: MW
LayerCount: 3
Fore
SplineSet
284.488 60.8994 m 0
 388 60.8994 464.976 128.5 464.976 242.13 c 0
 464.976 320.352 435.239 358.819 417.146 375.855 c 1
 368.091 337.172 l 1
 332.527 388.686 l 1
 350.952 400.814 454.205 458.191 454.205 562.449 c 0
 454.205 613.472 422.422 649.039 374.238 649.039 c 0
 346.2 649.039 304.143 631.706 304.143 558.949 c 1
 245.088 558.949 l 1
 245.088 649.082 297.795 707.909 374.238 707.909 c 0
 457.197 707.909 513.261 650.594 513.261 562.449 c 0
 513.261 499.695 491.402 451.161 459.853 416.896 c 1
 506.293 368.529 521.338 313.823 521.338 241.213 c 0
 521.338 79.5 418 0 283 0 c 0
 117 0 0 197.895 0 410 c 0
 0 639.125 136.395 851 344 851 c 0
 538 851 690 736 690 425 c 0
 690 269.55 646 167 629 120 c 1
 709 -10 l 1
 660 -40 l 1
 567 112 l 1
 593 187 631 286.296 631 427 c 0
 631 670 536 796 342 796 c 0
 172.961 796 56 621.598 56 412 c 0
 56 229.773 158 60.8994 284.488 60.8994 c 0
EndSplineSet
LCarets2: 2 0 0 
Ligature2: "'blws' Below Base Substitutions in Oriya lookup 9 subtable" u0B13 u0B09 u0B4D
EndChar

StartChar: u0B1C_u0B4D_u0B1E
Encoding: 192 -1 192
Width: 686
Flags: MW
LayerCount: 3
Back
SplineSet
223 339 m 1
 208 340.5 169.5 354 147.5 363 c 1
98.998 395.002 m 1
 42.6667 437.333 0.175781 501.37 0.389648 597.752 c 0
 0.611328 697.924 32.5498 750.217 49.5869 768.823 c 1
 98.4395 749.281 l 1
 77.7803 725.234 55.8887 660.686 55.8906 580.846 c 0
 56.1143 468.99 176.775 391.704 295.36 391.704 c 0
 440 391.704 517.962 478.857 517.962 586.564 c 0
 517.962 641 491.188 710.135 441.086 709.505 c 0
 411.338 709.131 377.021 688.854 377.021 657.876 c 2
 377.021 590.434 l 1
 320.384 590.434 l 1
 320.384 657.876 l 2
 320.384 689.529 280.287 712.912 237.923 710.632 c 0
 188.271 707.959 177.654 672.14 177.439 656.822 c 0
 177.104 632.866 183.371 620.729 188.643 613.765 c 1
 150.623 571.342 l 1
 127.337 594.959 117.149 629.227 118.527 657.683 c 0
 121.643 721.989 181.925 769.544 238.138 769.544 c 0
 302.425 769.544 334.596 737.677 345.283 726.291 c 1
 350.415 734.066 370.019 769.544 439.99 769.544 c 0
 541.065 769.544 576.075 676 576.075 580.699 c 0
 576.075 509.044 551.5 435 497.5 391 c 1
383 340 m 1
 361.5 334 303.5 330.5 280.5 332 c 1
EndSplineSet
Fore
SplineSet
147.5 363 m 5
 118.504 334.004 74 274.5 74 206 c 4
 74 171.678 87.4004 127 141 127 c 4
 172.333 127 223 157.667 223 188 c 6
 223 339 l 5
 208 340.5 169.5 354 147.5 363 c 5
98.998 395.002 m 5
 42.6667 437.333 0.175781 501.37 0.389648 597.752 c 0
 0.611328 697.924 32.5498 750.217 49.5869 768.823 c 1
 98.4395 749.281 l 1
 77.7803 725.234 55.8887 660.686 55.8906 580.846 c 0
 56.1143 468.99 176.775 391.704 295.36 391.704 c 0
 440 391.704 517.962 478.857 517.962 586.564 c 0
 517.962 641 491.188 710.135 441.086 709.505 c 0
 411.338 709.131 377.021 688.854 377.021 657.876 c 2
 377.021 590.434 l 1
 320.384 590.434 l 1
 320.384 657.876 l 2
 320.384 689.529 280.287 712.912 237.923 710.632 c 0
 188.271 707.959 177.654 672.14 177.439 656.822 c 0
 177.104 632.866 183.371 620.729 188.643 613.765 c 1
 150.623 571.342 l 1
 127.337 594.959 117.149 629.227 118.527 657.683 c 0
 121.643 721.989 181.925 769.544 238.138 769.544 c 0
 302.425 769.544 334.596 737.677 345.283 726.291 c 1
 350.415 734.066 370.019 769.544 439.99 769.544 c 0
 541.065 769.544 576.075 676 576.075 580.699 c 0
 576.075 509.044 551.5 435 497.5 391 c 5
 537 391 l 5
 537 0 l 5
 480 0 l 5
 480 342 l 5
 442 342 l 5
 442 0 l 5
 383 0 l 5
 383 87 l 5
 370.667 76 352.667 70 338 70 c 4
 296.626 70 261.333 101.333 251 121 c 5
 238.667 101.333 197.333 70 141 70 c 4
 57.665 70 16 131.076 16 208 c 4
 16 306 89.5 387 98.998 395.002 c 5
383 340 m 5
 361.5 334 303.5 330.5 280.5 332 c 5
 281 188 l 6
 281.112 155.667 312.562 127.41 338 127 c 4
 358.667 126.667 380 143.333 383 157.329 c 5
 383 340 l 5
EndSplineSet
LCarets2: 2 0 0 
Ligature2: "'blws' Below Base Substitutions in Oriya lookup 9 subtable" u0B1C u0B1E u0B4D
EndChar

StartChar: u0B1A_u0B4D_u0B1B
Encoding: 193 -1 193
Width: 829
Flags: HMWO
LayerCount: 3
Back
SplineSet
0 496.002 m 0
 0 616 92 770 274.006 769.999 c 0
 417 769.998 541 656 541 512 c 0
 541 450.858 527 414 514 370 c 1
 460 388 l 1
 475.333 437.333 483 478.667 483 512 c 0
 483 635 368 715 273.002 714.999 c 256
 136 714.998 58 611.625 58 499.003 c 0
 58 434 65.3333 396.667 108 346 c 1
 122 376.667 141 409 163 435 c 1
 162.5 434.5 210 399 210 399 c 1
 134.333 299.688 116 224.6 116 181 c 0
 116 83.4004 183.85 59 224 59 c 0
 290.995 59 327 110.106 327 181 c 0
 327 207.529 313.223 247.509 286 269 c 1
 233 191 l 1
 184 224 l 1
 321 425 l 1
 371 392 l 1
 318 315 l 1
 347.736 292.698 386 232.548 386 181 c 0
 386 73.2217 327.716 0 224 0 c 0
 160.439 0 59 36.2002 59 181 c 0
 59 215 66.667 252 82 292 c 1
 32 330 0 398 0 496.002 c 0
EndSplineSet
Fore
SplineSet
446 -128 m 4
 413.502 -128 386.666 -103.447 352 -64 c 5
 398.305 -11.0873 428 -3 447 -3 c 4
 495 -3 507 -42.5996 507 -64 c 4
 507 -102.297 479.659 -128 446 -128 c 4
115 -63 m 4
 115 -25.7998 140.15 -1 174 -1 c 4
 217.684 -1 247.808 -40.5237 269 -63 c 5
 236.205 -97.8447 206.007 -127 174 -127 c 4
 138.6 -127 115 -98.4502 115 -63 c 4
506.936 42 m 5
 547.005 85.7176 575 159.655 575 245 c 0
 575 401.333 490.667 489 425 489 c 0
 369.333 489 332.667 448 308 389 c 1
 281.599 449.002 239 488 193 488 c 0
 152.667 488 120.667 467.333 90 419 c 1
 64.1807 448.508 60 492.398 60 523 c 0
 60 673.4 223.355 710 362 710 c 0
 497.023 710 663 672.8 663 520 c 0
 663 449.405 648.667 409.333 637 385 c 1
 691 367 l 1
 704.667 397.333 719 458.8 719 520 c 0
 720.464 700.013 546 770 360 770 c 0
 167.619 770 0 696.619 0 524 c 0
 0 427.4 38.5479 378.99 62 363 c 1
 48.293 326.862 43 291.901 43 245 c 0
 43 156.97 70.6709 86.5977 109 44 c 5
 63.895 15.2968 56 -34.5821 56 -60 c 4
 56 -101.55 79.2002 -182 172 -182 c 260
 212.667 -182 258 -155.667 308 -103 c 5
 360.667 -155.667 406 -182 444 -182 c 4
 530.284 -182 562 -110.637 562 -60 c 4
 562 -14.0068 532.444 28 506.936 42 c 5
360.499 22.7627 m 5
 346.222 14.4444 323.111 -7.77778 309 -23 c 5
 291.743 -5.92318 274.034 10.7002 255 26 c 5
 276.678 44.6123 294.159 71.0007 308 100 c 1
 319.091 70.1693 340.889 36.2222 360.499 22.7627 c 5
429 57 m 0
 376.2 57 341 137.45 341 243 c 0
 341 346.048 375.8 428 428 428 c 0
 492.502 428 519 319.776 519 243 c 0
 520.298 145.639 483 57 429 57 c 0
195 56 m 0
 127.064 56 104 162.338 104 242 c 0
 104 320.188 128.372 427 195 427 c 0
 258.667 427 282 321.73 282 242 c 24
 282 161.917 259.333 56 195 56 c 0
EndSplineSet
LCarets2: 2 0 0 
Ligature2: "'blws' Below Base Substitutions in Oriya lookup 9 subtable" u0B1A u0B1B u0B4D
EndChar

StartChar: u0B24_u0B4D_u0B28
Encoding: 194 -1 194
Width: 593
Flags: HW
AnchorPoint: "C" 266 800 basechar 0
LayerCount: 3
Fore
SplineSet
-44.21 67.165 m 1
 5.60742 37.8086 l 1
 62.0703 139.982 l 1
 76.8477 47.3389 144.74 0 261 0 c 0
 373.333 0 446 75.4004 446 184 c 0
 446 289.333 394 350 346 377 c 1
 318 324 l 1
 352 308 388 253.333 388 185 c 0
 388 105.7 338.667 57.001 260 57.001 c 0
 172.667 57.001 116 91.333 116 181 c 0
 116 224.6 134.333 299.688 210 399 c 1
 210 399 162.5 434.5 163 435 c 1
 141 409 122 376.667 108 346 c 1
 65.333 396.667 58 434 58 499.003 c 0
 58 611.625 136 714.998 273.002 714.999 c 0
 368 715 483 635 483 512 c 0
 483 478.667 475.333 437.333 460 388 c 1
 514 370 l 1
 527 414 541 450.858 541 512 c 0
 541 656 417 769.998 274.006 769.999 c 0
 92 770 0 616 0 496.002 c 0
 0 399.649 30.9316 332.297 79.4912 293.944 c 1
 -44.21 67.165 l 1
EndSplineSet
LCarets2: 2 0 0 
Ligature2: "'blws' Below Base Substitutions in Oriya lookup 9 subtable" u0B1E u0B1D u0B4D
EndChar

StartChar: u0B21_u0B4D_u0B21
Encoding: 195 -1 195
Width: 795
Flags: HMW
LayerCount: 3
Fore
SplineSet
0 496.002 m 0
 0 616 92 770 274.006 769.999 c 0
 417 769.998 541 656 541 512 c 0
 541 450.858 527 414 514 370 c 1
 460 388 l 1
 475.333 437.333 483 478.667 483 512 c 0
 483 635 368 715 273.002 714.999 c 0
 136 714.998 58 611.625 58 499.003 c 0
 58 434 65.333 396.667 108 346 c 1
 122 376.667 141 409 163 435 c 1
 162.5 434.5 210 399 210 399 c 1
 134.333 299.688 116 224.6 116 181 c 0
 116 83.4004 183.85 59 224 59 c 0
 290.995 59 327 110.106 327 181 c 0
 327 207.529 313.223 247.509 286 269 c 1
 233 191 l 1
 184 224 l 1
 321 425 l 1
 371 392 l 1
 318 315 l 1
 340.831 297.877 368.689 258.443 380.396 217.721 c 1
 412.522 247.094 457.088 267.14 513.91 267.14 c 0
 615.901 267.14 704.542 190.1 704.542 91.8867 c 0
 704.542 50.3027 695.325 28.4238 682.725 -12.0742 c 1
 625.556 6.01953 l 1
 628.318 14.458 643.716 57.54 643.716 91.8867 c 0
 643.716 163.537 572.503 211.304 513.237 211.304 c 0
 427.076 211.303 379.386 150.139 379.386 83.5791 c 0
 379.386 45.624 384.312 26.3662 400.049 5.16602 c 1
 413.361 29.1807 423.658 41.2568 437.569 56.8652 c 1
 486.067 21.5947 l 1
 466.752 -2.47461 418.432 -63.1758 418.432 -119.688 c 0
 418.432 -173.803 456.411 -187.331 480.246 -187.331 c 0
 518.752 -187.331 538.696 -159.105 538.696 -119.688 c 0
 538.696 -108.17 533.665 -91.6992 523.599 -79.582 c 1
 489.218 -127.625 l 1
 438.153 -94.9707 l 1
 542.593 50.5176 l 1
 594.475 18.0039 l 1
 558.016 -32.2871 l 1
 578.197 -50.915 600.195 -86.5566 600.195 -119.688 c 0
 600.195 -195.003 555.986 -245.724 480.246 -245.724 c 0
 430.683 -245.724 358.279 -217.424 358.279 -119.688 c 0
 358.279 -98.4727 362.854 -75.9443 371.745 -52.0928 c 1
 348.485 -32.9267 331.727 -4.9426 323.767 31.0498 c 1
 297.912 11.1119 264.403 5.72205e-06 224 0 c 0
 160.439 0 59 36.2002 59 181 c 0
 59 215 66.667 252 82 292 c 1
 32 330 0 398 0 496.002 c 0
EndSplineSet
Ligature2: "'blws' Below Base Substitutions in Oriya lookup 9 subtable" u0B21 u0B21 u0B4D
LCarets2: 2 0 0 
EndChar

StartChar: u0B2C_u0B4D_u0B26
Encoding: 196 -1 196
Width: 698
Flags: HMW
LayerCount: 3
Fore
SplineSet
307.998 243.801 m 1
 307.998 139.799 328.8 68.7988 399 68.7988 c 0
 450 68.7988 468 100.466 468 142.799 c 2
 468 329.799 l 1
 526 329.799 l 1
 526 0 l 1
 468 -0.201172 l 1
 468 27.7988 l 1
 449.438 15.8789 428.308 9.79883 399 9.79883 c 0
 319.667 9.79883 274.4 76.1992 268 117.799 c 1
 244.029 92.9609 207.271 77 161 77 c 0
 52.2002 77 25 183.625 25 254 c 0
 25 294 33.667 328.667 51 358 c 1
 25.667 383.333 0 428.132 0 495.799 c 0
 0 639.415 120.016 769.799 304 769.799 c 0
 486.688 769.799 590.604 641.274 588 509.799 c 0
 588 454.199 568.159 397.826 560 370.799 c 1
 506 391.799 l 1
 517.959 435.149 530 474.605 530 508.799 c 0
 530 617.002 448.791 714.799 303 714.799 c 0
 152.604 714.799 58 611.424 58 498.799 c 0
 58 457.132 71.667 423.333 92 403 c 1
 113.333 417 138.667 424 168 424 c 0
 262.667 424 308 347.667 307.998 243.801 c 1
165 131 m 0
 233.8 131 251.998 195.073 251 243 c 0
 251 303.137 235.046 360 171 360 c 0
 114.826 360 84 316.721 84 251 c 0
 84 195.944 100.2 131 165 131 c 0
EndSplineSet
LCarets2: 2 0 0 
EndChar

StartChar: u0B26_u0B4D_u0B28
Encoding: 197 -1 197
Width: 651
Flags: HMW
LayerCount: 3
Fore
SplineSet
-44.21 67.165 m 1
 5.60742 37.8086 l 1
 62.0703 139.982 l 1
 76.8477 47.3389 144.74 0 261 0 c 0
 359.083 0 426.926 57.4845 442.559 144.361 c 1
 506 37 l 1
 555.995 68.0439 l 1
 426.786 284.775 l 1
 407.315 330.334 375.882 360.191 346 377 c 1
 318 324 l 1
 352 308 388 253.333 388 185 c 0
 388 105.7 338.667 57.001 260 57.001 c 0
 172.667 57.001 116 91.333 116 181 c 0
 116 224.6 134.333 299.688 210 399 c 1
 210 399 162.5 434.5 163 435 c 1
 141 409 122 376.667 108 346 c 1
 65.333 396.667 58 434 58 499.003 c 0
 58 611.625 136 714.998 273.002 714.999 c 0
 368 715 483 635 483 512 c 0
 483 478.667 475.333 437.333 460 388 c 1
 514 370 l 1
 527 414 541 450.858 541 512 c 0
 541 656 417 769.998 274.006 769.999 c 0
 92 770 0 616 0 496.002 c 0
 0 399.649 30.9316 332.297 79.4912 293.944 c 1
 -44.21 67.165 l 1
EndSplineSet
Ligature2: "'blws' Below Base Substitutions in Oriya lookup 9 subtable" u0B26 u0B28.sub
LCarets2: 2 0 0 
EndChar

StartChar: u0B26_u0B4D_u0B26
Encoding: 198 -1 198
Width: 666
Flags: HW
AnchorPoint: "C" 266 800 basechar 0
LayerCount: 3
Fore
SplineSet
469 340 m 1
 469 157.329 l 1
 466 143.333 444.667 126.667 424 127 c 0
 398.563 127.41 367 155.667 367 188 c 2
 367 325 l 1
 309 325 l 1
 309 188 l 2
 309 157.667 258.333 127 227 127 c 0
 173.4 127 160 171.678 160 206 c 0
 160 264.8 196.004 324.004 225 353 c 1
 185 395 l 1
 166.333 376.333 150.67 353.332 138.667 332 c 1
 68 371.333 58 460.49 57.9971 498.993 c 0
 57.9971 611.615 135.997 714.991 272.999 714.992 c 256
 367.997 714.993 482.997 634.993 482.997 511.993 c 1
 482.8 512 540.8 511.993 540.997 511.993 c 1
 540.997 655.993 416.997 769.991 274.003 769.992 c 0
 91.9971 769.993 -0.00292969 615.991 -0.00292969 495.993 c 0
 0 367 73.3333 302 114.667 279.331 c 1
 104.667 252.664 102 232.667 102 208 c 0
 102 131.076 143.665 70 227 70 c 0
 283.333 70 324.667 101.333 337 121 c 1
 347.333 101.333 382.626 70 424 70 c 0
 438.667 70 456.667 76 469 87 c 1
 469 0 l 1
 528 0 l 1
 528 340 l 1
 469 340 l 1
EndSplineSet
LCarets2: 2 0 0 
Ligature2: "'blws' Below Base Substitutions in Oriya lookup 9 subtable" u0B2C u0B26 u0B4D
EndChar

StartChar: u0B26_u0B4D_u0B27
Encoding: 199 -1 199
Width: 632
Flags: HMW
LayerCount: 3
Fore
SplineSet
171.667 692 m 1
 96.9648 655.922 57.9971 580.613 57.9971 498.993 c 0
 58 460.49 68 371.333 138.667 332 c 1
 150.67 353.332 166.333 376.333 185 395 c 1
 225 353 l 1
 196.004 324.004 160 264.8 160 206 c 0
 160 171.678 173.4 127 227 127 c 0
 258.333 127 309 157.667 309 188 c 2
 309 325 l 1
 367 325 l 1
 367 188 l 2
 367 155.667 398.563 127.41 424 127 c 0
 444.667 126.667 466 143.333 469 157.329 c 1
 468.996 320.001 l 1
 171.667 692 l 1
231.664 711.335 m 1
 528 339.5 l 1
 528 0 l 1
 469 0 l 1
 469 87 l 1
 456.667 76 438.667 70 424 70 c 0
 382.626 70 347.333 101.333 337 121 c 1
 324.667 101.333 283.333 70 227 70 c 0
 143.665 70 102 131.076 102 208 c 0
 102 232.667 104.667 252.664 114.667 279.331 c 1
 73.3333 302 0 367 -0.00292969 495.993 c 0
 -0.00292969 615.991 91.9971 769.993 274.003 769.992 c 0
 416.997 769.991 540.997 655.993 540.997 511.993 c 1
 540.8 511.993 482.8 512 482.997 511.993 c 1
 482.997 634.993 367.997 714.993 272.999 714.992 c 256
 258.068 714.992 245.172 713.667 231.664 711.335 c 1
EndSplineSet
Ligature2: "'blws' Below Base Substitutions in Oriya lookup 9 subtable" u0B26 u0B27 u0B4D
EndChar

StartChar: u0B2A_u0B4D_u0B38
Encoding: 200 -1 200
Width: 752
Flags: HMW
LayerCount: 3
Fore
SplineSet
584.52 -162.697 m 1
 584.52 165.508 l 1
 572.75 183.314 541.853 215.844 483.34 215.844 c 0
 433.333 215.844 379.26 179.493 379.26 84.0742 c 0
 379.26 50.7988 397.627 23.2139 415.27 11.6836 c 1
 510.75 99.3525 l 1
 549.188 52.1816 l 1
 426.034 -61.043 l 1
 584.52 -162.697 l 1
337.425 11.5 m 1
 313.939 4.58301 285.387 0 259 0 c 0
 151.137 0 71 83.2471 71 200 c 0
 71 260.879 79.7988 286.598 102 331 c 1
 60.3008 353.935 0 412.2 0 534 c 0
 0 668.667 120 770 241 770 c 0
 371.2 770 434.799 706.94 451 693 c 1
 451 770 l 1
 509 770 l 1
 510 276.152 l 1
 535.642 272.647 560.88 264.017 583.94 248.79 c 1
 583.94 278.014 l 1
 642 278.014 l 1
 642 -272 l 17
 641.936 -271.935 328.5 -69.5293 328.339 -69.375 c 9
 370.079 -30.7422 l 1
 357.88 -21.1512 346.45 -7.29579 337.425 11.5 c 1
321.205 66.5 m 1
 319.137 80.0961 318 95.0678 318 111.5 c 0
 318 191.514 368.766 261.564 451.482 275.5 c 1
 451 614 l 1
 390.039 677.864 327.8 711 241 711 c 0
 132 711 58 612.667 58 534 c 0
 58 442.2 102.701 398.915 130 381 c 1
 130 381 149.556 410.444 156 417 c 1
 199 378 l 1
 179.793 348.915 128 282.954 128 199 c 0
 128 117.932 179.6 57 257 57 c 0
 279.207 57 302.448 61.0283 321.205 66.5 c 1
EndSplineSet
LCarets2: 2 0 0 
Ligature2: "'blws' Below Base Substitutions in Oriya lookup 9 subtable" u0B26 u0B26 u0B4D
EndChar

StartChar: u0B2E_u0B4D_u0B2E
Encoding: 201 -1 201
Width: 751
Flags: HMW
LayerCount: 3
Fore
SplineSet
513.714 317.932 m 1
 540.429 314.149 563.91 305.393 583.832 293.166 c 1
 583.832 320.017 l 1
 640.306 320.017 l 1
 640.907 -142.884 l 1
 584.401 -142.884 l 1
 584.401 217.066 l 1
 572.79 233.028 542.089 262.387 484.682 262.387 c 0
 445.644 262.387 382.111 229.702 382.111 143.856 c 0
 382.111 85.7246 413.695 56.3242 445.842 43.0254 c 1
 523.492 108.973 l 1
 561.654 65.8545 l 1
 363 -102 l 1
 327.515 -57.3945 l 1
 399.285 2.94531 l 1
 352.903 29.1016 323.912 76.9258 323.912 143.856 c 0
 323.912 250.162 394.716 305.321 457.428 317.426 c 1
 457 617 l 1
 437.952 646.074 378.6 711 261 711 c 0
 180.904 711 60 644.472 60 482 c 0
 60 374 118.5 308.5 197 281 c 1
 326.994 391.401 l 1
 365.998 347.333 l 1
 50.5 80.75 l 1
 14.5 126 l 1
 149.5 239.5 l 1
 58.04 277.608 0 360.5 0 482 c 0
 0 683.87 153.2 770 259 770 c 0
 341.625 770 407.509 743.409 456 703 c 1
 456 770 l 1
 513 770 l 1
 513.714 317.932 l 1
EndSplineSet
LCarets2: 1 0 
Ligature2: "'blws' Below Base Substitutions in Oriya lookup 9 subtable" u0B28 u0B28.sub
EndChar

StartChar: u0B33_u0B4D_u0B2B
Encoding: 202 -1 202
Width: 908
Flags: HMW
LayerCount: 3
Fore
SplineSet
729.558 145.335 m 0
 745.333 145.335 750.836 157.879 750.836 176.696 c 0
 750.836 194.513 741.229 210.335 726.1 210.22 c 0
 712.472 210.015 701.986 188.001 696.636 175.42 c 1
 711.854 157.802 722.974 145.335 729.558 145.335 c 0
412.22 121.42 m 0
 412.22 78.0605 429.341 53.6533 444.01 40.7881 c 1
 453.841 54.9736 454.451 54.7451 462.523 62.9561 c 1
 504.428 24.9502 l 1
 480.664 -11.0303 456.319 -43.7979 456.319 -89.6299 c 0
 456.319 -134.949 484.428 -168.09 526.59 -168.09 c 0
 585.058 -168.09 623.814 -127.954 637.81 -113.484 c 1
 637.81 167.369 l 1
 602.642 203.198 566.805 221.93 516.51 221.93 c 0
 453.936 221.93 412.22 164.883 412.22 121.42 c 0
401.136 -0 m 1
 355 0 l 1
 355 262 l 2
 355 278.667 344 290 327 290 c 0
 309.987 290 299 277.333 299 262 c 10
 299 0 l 1
 242 0 l 1
 242 262 l 2
 242 278 232 290.667 214 290 c 0
 197.8 290 187 277.333 187 262 c 2
 187 0 l 1
 130 0 l 1
 130 270 l 1
 78.1918 291.687 0 382.486 0 488.998 c 0
 0 634 92 770 274.006 769.999 c 0
 417 769.998 541 656 541 512 c 0
 541 450.858 527 414 514 370 c 1
 460 388 l 1
 475.333 437.333 483 478.667 483 512 c 0
 483 635 368 715 273.002 714.999 c 256
 136 714.998 58 618 58.001 491.999 c 0
 58.0015 419.831 99.909 346.631 148 324 c 1
 162 340.667 183.667 349 213 349 c 0
 235 349 253.667 343 269 331 c 1
 283.667 343 303 349.13 327 349 c 0
 388.667 348.667 412 308 412 262 c 2
 412 242 l 1
 438.195 265.334 472.4 280.835 507.666 280.835 c 0
 561.667 280.835 597 273.333 637.81 244.783 c 1
 637.81 281.1 l 1
 696.35 281.1 l 1
 696.35 255.803 l 1
 709.726 263.617 721.175 264.09 728.189 264.09 c 0
 776.6 264.09 806.845 226.541 807.229 175.027 c 0
 807.435 107.142 747.088 70.6895 696.393 105.73 c 1
 697 -226 l 1
 638.439 -226 l 1
 638.439 -189.697 l 1
 609.457 -209.379 571.505 -226 527.85 -226 c 0
 453.871 -226 398.41 -168.485 398.41 -89 c 0
 398.41 -53.6191 402.487 -36.4668 414.681 -10.623 c 1
 410.27 -7.6403 405.699 -4.11878 401.136 -0 c 1
EndSplineSet
LCarets2: 2 0 0 
Ligature2: "'blws' Below Base Substitutions in Oriya lookup 9 subtable" u0B2A u0B38 u0B4D
EndChar

StartChar: u0B37_u0B4D_u0B2B
Encoding: 203 -1 203
Width: 909
Flags: HMW
LayerCount: 3
Fore
SplineSet
730.558 145.335 m 0
 746.333 145.335 751.836 157.879 751.836 176.696 c 0
 751.836 194.513 742.229 210.335 727.1 210.22 c 0
 713.472 210.015 702.986 188.001 697.636 175.42 c 1
 712.854 157.802 723.974 145.335 730.558 145.335 c 0
378.9 27.75 m 1
 344.024 11.4053 302.389 1.27157e-06 259 0 c 0
 151.137 0 71 83.2471 71 200 c 0
 71 260.879 79.7988 286.598 102 331 c 1
 60.3008 353.935 0 412.2 0 534 c 0
 0 668.667 120 770 241 770 c 0
 371.2 770 434.799 706.94 451 693 c 1
 451 770 l 1
 509 770 l 1
 509.667 280.833 l 1
 548.047 283.137 597.852 274.501 638.81 244.783 c 1
 638.81 281.1 l 1
 697.35 281.1 l 1
 697.35 255.803 l 1
 710.726 263.617 722.175 264.09 729.189 264.09 c 0
 777.6 264.09 807.845 226.541 808.229 175.027 c 0
 808.435 107.142 748.088 70.6895 697.393 105.73 c 1
 698 -226 l 1
 639.439 -226 l 1
 639.439 -189.697 l 1
 610.457 -209.379 572.505 -226 528.85 -226 c 0
 454.871 -226 399.41 -168.485 399.41 -89 c 0
 399.41 -53.6191 403.487 -36.4668 415.681 -10.623 c 1
 403.477 -2.36993 390.046 10.008 378.9 27.75 c 1
135.001 675.594 m 1
 451 279.5 l 1
 451 614 l 1
 390.039 677.864 327.8 711 241 711 c 0
 198.128 711 165.4 697.2 135.001 675.594 c 1
413.22 121.42 m 0
 413.22 78.0605 430.341 53.6533 445.01 40.7881 c 1
 454.841 54.9736 455.451 54.7451 463.523 62.9561 c 1
 505.428 24.9502 l 1
 481.664 -11.0303 457.319 -43.7979 457.319 -89.6299 c 0
 457.319 -134.949 485.428 -168.09 527.59 -168.09 c 0
 586.058 -168.09 624.814 -127.954 638.81 -113.484 c 1
 638.81 167.369 l 1
 603.642 203.198 567.805 221.93 517.51 221.93 c 0
 454.936 221.93 413.22 164.883 413.22 121.42 c 0
409.198 239.091 m 1
 93.3242 633.5 l 1
 69.7256 602.085 58 567.328 58 534 c 0
 58 442.2 102.701 398.915 130 381 c 1
 165.424 411.422 l 1
 204.428 367.354 l 1
 175.86 343.431 l 1
 153.896 308.733 128 258.365 128 199 c 0
 128 117.932 179.6 57 257 57 c 0
 296.023 57 329.886 67.3541 358 81.3652 c 1
 346 167.25 376.5 210.25 409.198 239.091 c 1
EndSplineSet
LCarets2: 2 0 0 
Ligature2: "'blws' Below Base Substitutions in Oriya lookup 9 subtable" u0B2E u0B2E.sub
EndChar

StartChar: u0B37_u0B4D_u0B15
Encoding: 204 -1 204
Width: 735
Flags: HMW
LayerCount: 3
Fore
SplineSet
411 -163 m 0
 447.69 -163 453.764 -131.105 454 -102 c 24
 454.237 -72.7949 443.5 -40 412 -40 c 0
 378.25 -40 370 -74.25 370 -98 c 0
 370 -130.492 378.666 -163 411 -163 c 0
510.223 13.4082 m 1
 519.457 15.6686 530.835 17 545 17 c 0
 617 17 635 -26.7998 635 -71 c 2
 635 -253 l 1
 577 -253 l 1
 577 -71 l 2
 577 -51 566.333 -41 545 -41 c 0
 525 -41 515 -51 515 -71 c 2
 515 -250 l 1
 457 -250 l 1
 457 -208 l 1
 444.333 -215.333 429.333 -219 412 -219 c 0
 350.863 -219 314 -172.75 314 -98 c 0
 314 -27.8887 357.5 17.7207 412.25 17.7207 c 0
 428.661 17.7207 441.6 14.9874 452 10.7139 c 1
 452 75 l 1
 405.859 37.1406 338.084 0 259 0 c 0
 151.137 0 71 83.2471 71 200 c 0
 71 260.879 79.7988 286.598 102 331 c 1
 60.3008 353.935 0 412.2 0 534 c 0
 0 668.667 120 770 241 770 c 0
 371.2 770 434.799 706.94 451 693 c 1
 451 770 l 1
 509 770 l 1
 510.223 13.4082 l 1
135.001 675.594 m 1
 451 279.5 l 1
 451 614 l 1
 390.039 677.864 327.8 711 241 711 c 0
 198.128 711 165.4 697.2 135.001 675.594 c 1
93.3242 633.5 m 1
 69.7256 602.085 58 567.328 58 534 c 0
 58 442.2 102.701 398.915 130 381 c 1
 165.424 411.422 l 1
 204.428 367.354 l 1
 175.86 343.431 l 1
 153.896 308.733 128 258.365 128 199 c 0
 128 117.932 179.6 57 257 57 c 0
 367.499 57 436.628 140.022 451 154 c 1
 451 186 l 1
 93.3242 633.5 l 1
EndSplineSet
LCarets2: 1 0 
Ligature2: "'blws' Below Base Substitutions in Oriya lookup 9 subtable" u0B33 u0B2B u0B4D
EndChar

StartChar: u0B38_u0B4D_u0B2A
Encoding: 205 -1 205
Width: 266
Flags: MW
AnchorPoint: "C" 266 800 basechar 0
LayerCount: 3
Fore
SplineSet
417.22 121.42 m 0
 417.22 78.0605 434.341 53.6533 449.01 40.7881 c 1
 458.841 54.9738 459.451 54.7449 467.523 62.9561 c 1
 509.428 24.9502 l 1
 485.664 -11.0304 461.319 -43.7979 461.319 -89.6299 c 0
 461.319 -134.949 489.428 -168.09 531.59 -168.09 c 0
 590.058 -168.09 628.814 -127.954 642.81 -113.484 c 1
 642.81 167.369 l 1
 607.642 203.198 571.805 221.93 521.51 221.93 c 0
 458.936 221.93 417.22 164.883 417.22 121.42 c 0
456.667 266.822 m 1
 457 617 l 1
 437.952 646.074 378.6 711 261 711 c 0
 180.904 711 60 644.472 60 482 c 0
 60 417 103 360 147 343 c 1
 305.994 477.401 l 1
 344.998 433.333 l 1
 127.339 249.104 l 1
 359.334 111.333 l 1
 355.051 189.79 403.763 243.085 456.667 266.822 c 1
512.667 280.833 m 1
 551.047 283.137 601.852 274.501 642.81 244.783 c 1
 642.81 281.1 l 1
 702 281.1 l 1
 702 -226 l 1
 643.439 -226 l 1
 643.439 -189.697 l 1
 614.457 -209.379 576.505 -226 532.85 -226 c 0
 458.871 -226 403.41 -168.485 403.41 -89 c 0
 403.41 -53.6191 407.487 -36.4668 419.681 -10.623 c 1
 406.235 -1.53014 391.3 12.5695 379.573 33.333 c 1
 28.5 241 l 1
 99.5 301.5 l 1
 49 330 0 399 0 482 c 0
 0 683.87 153.2 770 259 770 c 0
 341.625 770 407.509 743.409 456 703 c 1
 456 770 l 1
 513 770 l 1
 512.667 280.833 l 1
EndSplineSet
Ligature2: "'blws' Below Base Substitutions in Oriya lookup 9 subtable" u0B37 u0B2B u0B4D
EndChar

StartChar: u0B37_u0B4D_u0B2A
Encoding: 206 -1 206
Width: 808
Flags: HMW
LayerCount: 3
Fore
SplineSet
413.22 121.42 m 0
 413.22 78.0605 430.341 53.6533 445.01 40.7881 c 1
 454.841 54.9736 455.451 54.7451 463.523 62.9561 c 1
 505.428 24.9502 l 1
 481.664 -11.0303 457.319 -43.7979 457.319 -89.6299 c 0
 457.319 -134.949 485.428 -168.09 527.59 -168.09 c 0
 586.058 -168.09 624.814 -127.954 638.81 -113.484 c 1
 638.81 167.369 l 1
 603.642 203.198 567.805 221.93 517.51 221.93 c 0
 454.936 221.93 413.22 164.883 413.22 121.42 c 0
378.5 28.1133 m 1
 343.331 11.449 302.908 -3.17891e-07 259 0 c 0
 151.137 0 71 83.2471 71 200 c 0
 71 260.879 79.7988 286.598 102 331 c 1
 60.3008 353.935 0 412.2 0 534 c 0
 0 668.667 120 770 241 770 c 0
 371.2 770 434.799 706.94 451 693 c 1
 451 770 l 1
 509 770 l 1
 509.667 280.833 l 1
 548.047 283.137 597.852 274.501 638.81 244.783 c 1
 638.81 281.1 l 1
 698 281.1 l 1
 698 -226 l 1
 639.439 -226 l 1
 639.439 -189.697 l 1
 610.457 -209.379 572.505 -226 528.85 -226 c 0
 454.871 -226 399.41 -168.485 399.41 -89 c 0
 399.41 -53.6191 403.487 -36.4668 415.681 -10.623 c 1
 402.235 -1.53027 390 10 378.5 28.1133 c 1
135.001 675.594 m 1
 451 279.5 l 1
 451 614 l 1
 390.039 677.864 327.8 711 241 711 c 0
 198.128 711 165.4 697.2 135.001 675.594 c 1
357.5 82 m 1
 347 168.5 375.928 209.987 408.808 238.75 c 1
 93.3242 633.5 l 1
 69.7256 602.085 58 567.328 58 534 c 0
 58 442.2 102.701 398.915 130 381 c 1
 165.424 411.422 l 1
 204.428 367.354 l 1
 175.86 343.431 l 1
 153.896 308.733 128 258.365 128 199 c 0
 128 117.932 179.6 57 257 57 c 0
 297.186 57 328.901 67.3525 357.5 82 c 1
EndSplineSet
LCarets2: 2 0 0 
Ligature2: "'blws' Below Base Substitutions in Oriya lookup 9 subtable" u0B37 u0B15.sub
EndChar

StartChar: u0B2E_u0B4D_u0B16
Encoding: 207 -1 207
Width: 812
Flags: MW
LayerCount: 3
Fore
SplineSet
417.22 121.42 m 0
 417.22 78.0605 434.341 53.6533 449.01 40.7881 c 1
 458.841 54.9738 459.451 54.7449 467.523 62.9561 c 1
 509.428 24.9502 l 1
 485.664 -11.0304 461.319 -43.7979 461.319 -89.6299 c 0
 461.319 -134.949 489.428 -168.09 531.59 -168.09 c 0
 590.058 -168.09 628.814 -127.954 642.81 -113.484 c 1
 642.81 167.369 l 1
 607.642 203.198 571.805 221.93 521.51 221.93 c 0
 458.936 221.93 417.22 164.883 417.22 121.42 c 0
456.667 266.822 m 1
 457 617 l 1
 437.952 646.074 378.6 711 261 711 c 0
 180.904 711 60 644.472 60 482 c 0
 60 417 103 360 147 343 c 1
 305.994 477.401 l 1
 344.998 433.333 l 1
 127.339 249.104 l 1
 359.334 111.333 l 1
 355.051 189.79 403.763 243.085 456.667 266.822 c 1
512.667 280.833 m 1
 551.047 283.137 601.852 274.501 642.81 244.783 c 1
 642.81 281.1 l 1
 702 281.1 l 1
 702 -226 l 1
 643.439 -226 l 1
 643.439 -189.697 l 1
 614.457 -209.379 576.505 -226 532.85 -226 c 0 269 c 1
 233 191 l 1
 184 224 l 1
 321 425 l 1
 371 392 l 1
 318 315 l 1
 340.831 297.877 368.689 258.443 380.396 217.721 c 1
 412.522 247.094 457.088 267.14 513.91 267.14 c 0
 615.901 267.14 704.542 190.1 704.542 91.8867 c 0
 704.542 50.3027 695.325 28.4238 682.725 -12.0742 c 1
 625.556 6.01953 l 1 269 c 1
 233 191 l 1
 184 224 l 1
 321 425 l 1
 371 392 l 1
 318 315 l 1
 340.831 297.877 368.689 258.443 380.396 217.721 c 1
 412.522 247.094 457.088 267.14 513.91 267.14 c 0
 615.901 267.14 704.542 190.1 704.542 91.8867 c 0
 704.542 50.3027 695.325 28.4238 682.725 -12.0742 c 1
 625.556 6.01953 l 1


 458.871 -226 403.41 -168.485 403.41 -89 c 0
 403.41 -53.6191 407.487 -36.4668 419.681 -10.623 c 1
 406.235 -1.53014 391.3 12.5695 379.573 33.333 c 1
 28.5 241 l 1 269 c 1
 233 191 l 1
 184 224 l 1
 321 425 l 1
 371 392 l 1
 318 315 l 1
 340.831 297.877 368.689 258.443 380.396 217.721 c 1
 412.522 247.094 457.088 267.14 513.91 267.14 c 0
 615.901 267.14 704.542 190.1 704.542 91.8867 c 0
 704.542 50.3027 695.325 28.4238 682.725 -12.0742 c 1
 625.556 6.01953 l 1

 99.5 301.5 l 1
 49 330 0 399 0 482 c 4 269 c 1
 233 191 l 1
 184 224 l 1
 321 425 l 1
 371 392 l 1
 318 315 l 1
 340.831 297.877 368.689 258.443 380.396 217.721 c 1
 412.522 247.094 457.088 267.14 513.91 267.14 c 0
 615.901 267.14 704.542 190.1 704.542 91.8867 c 0
 704.542 50.3027 695.325 28.4238 682.725 -12.0742 c 1
 625.556 6.01953 l 1

 0 683.87 153.2 770 259 770 c 0
 341.625 770 407.509 743.409 456 703 c 1
 456 770 l 1
 513 770 l 1
 512.667 280.833 l 1
EndSplineSet
LCarets2: 2 0 0 
Ligature2: "'blws' Below Base Substitutions in Oriya lookup 9 subtable" u0B38 u0B2A u0B4D
EndChar

StartChar: u0B30.sub
Encoding: 208 -1 208
Width: 14
Flags: HW
LayerCount: 3
Fore
SplineSet
-258 -183 m 6
 -185.419 -183 -157 -159.862 -157 -86 c 6
 -157 0 l 5
 -113 0 l 5
 -112 -86 l 5
 -112 -183.121 -139.954 -227 -258 -227 c 6
 -473 -227 l 5
 -473 -183 l 5
 -258 -183 l 6
-258 -183 m 2
 -185.419 -183 -157 -159.862 -157 -86 c 2
 -157 0 l 1
 -113 0 l 1
 -112 -86 l 2
 -112 -183.121 -139.954 -227 -258 -227 c 2
 -473 -227 l 1
 -473 -183 l 1
 -258 -183 l 2
EndSplineSet
EndChar

StartChar: u0B30.reph
Encoding: 209 -1 209
Width: 14
Flags: MW
LayerCount: 3
Fore
SplineSet
95 1064 m 1
 79 1017 l 1
 42.3521 950.023 -7.76738 937.872 -85 925 c 1
 -122.333 920.333 -141 908.667 -141 890 c 0
 -141 882.667 -130 869.333 -108 850 c 1
 -75 827 l 1
 -114 785 l 1
 -160 824 l 1
 -190.667 852 -206 873.333 -206 888 c 0
 -206 930 -187 957 -149 969 c 1
 -35 994 l 1
 -11 1003.33 6.33333 1018 17 1038 c 1
 25 1066 l 1
 95 1064 l 1
EndSplineSet
Ligature2: "'rphf' Reph Form in Oriya lookup 2 subtable" u0B30 u0B4D
EndChar

StartChar: u0B32.sub
Encoding: 210 -1 210
Width: 14
Flags: HMW
LayerCount: 3
Fore
SplineSet
-66 -36 m 256
 -24.8 -36 16 -52 16 -116 c 2
 16 -278 l 1
 93 -278 l 1
 93 -323 l 1
 -28 -323 l 1
 -28 -116 l 2
 -28 -92 -41 -80 -67 -80 c 0
 -89.2 -80 -104 -87.2 -104 -116 c 2
 -104 -323 l 1
 -148 -323 l 1
 -148 -116 l 2
 -148 -92 -161 -80 -187 -80 c 0
 -209.2 -80 -224 -87.2 -224 -116 c 2
 -224 -323 l 1
 -268 -323 l 1
 -268 -116 l 2
 -268 -76.0242 -251.6 -36 -186 -36 c 0
 -160 -36 -140 -43 -126 -57 c 1
 -112.667 -43 -92.6667 -36 -66 -36 c 256
EndSplineSet
EndChar

StartChar: u0B38_u0B4D_u0B16
Encoding: 211 -1 211
Width: 715
Flags: HW
AnchorPoint: "C" 266 800 basechar 0
LayerCount: 3
Fore
SplineSet
551 348 m 1
 523.979 320.014 497.969 283.638 494 238 c 1
 494 214.667 504.667 203 526 203 c 0
 552.667 203 571 225.333 581 270 c 1
 589 326 l 1
 647 322 l 1
 645 -166 l 1
 587 -166 l 1
 587 174 l 1
 558 152 l 1
 548 146.667 536.667 144 524 144 c 0
 468.8 144 432 192.986 432 252 c 0
 432 266.667 432.667 276.333 434 281 c 1
 386.639 265.64 346 216.903 346 161 c 0
 346 140.397 351.498 78.7506 397 63 c 1
 416.333 69 433 72 447 72 c 0
 511.806 72 546 16.9604 546 -54 c 256
 546 -125.594 514.19 -174 444 -174 c 0
 378.288 -174 345 -120.004 345 -47 c 0
 345 -20.3333 348.667 0.333333 356 15 c 1
 334.667 27.6667 317 50.3333 303 83 c 1
 301 78 l 1
 34 240 l 1
 106 301 l 1
 36.8293 356.337 8 445.736 8 533 c 0
 8 694.173 119.961 775 243 775 c 0
 373.2 775 443.799 710.94 460 697 c 1
 460 778 l 1
 518 778 l 1
 518 347 l 1
 551 348 l 1
287 162 m 2
 287 233.6 333.366 311.674 458 341 c 1
 458 619 l 1
 397.039 682.864 327.8 717 241 717 c 0
 169.702 717 64 679.77 64 535 c 0
 64 451.954 92.0791 374.097 151 343 c 1
 309 477 l 1
 348 433 l 1
 132 250 l 1
 287 157 l 1
 287 162 l 2
442 -113 m 0
 478 -113 487 -75.8 487 -51 c 0
 487 -3.41953 470.6 13 446 13 c 0
 427.6 13 400 1.4 400 -45 c 0
 400 -96.25 416.8 -113 442 -113 c 0
EndSplineSet
LCarets2: 2 0 0 
Ligature2: "'blws' Below Base Substitutions in Oriya lookup 9 subtable" u0B38 u0B16 u0B4D
EndChar

StartChar: u0B36_u0B4D_u0B1A
Encoding: 212 -1 212
Width: 866
Flags: HMW
LayerCount: 3
Back
SplineSet
726 205.999 m 1
 766 243 l 1
 747.667 261.333 682.667 313 606 313 c 0
 507 313 422 230.333 422 127 c 0
 422 64.8926 447 13.667 490 -17 c 1
 484.2 -30.2002 479 -48.4492 479 -80 c 0
 479 -180 537.8 -205 577 -205 c 0
 660.2 -205 681 -143.4 681 -85 c 256
 681 -14.04 646.806 41 582 41 c 0
 562.667 41 546 37 532 29 c 1
 485.942 44.9434 481 111.704 481 130 c 0
 481 200.336 536.164 260 606 260 c 0
 654 260 700.362 228.561 726 205.999 c 1
578 -152 m 260
 616.23 -152 623 -118.968 623 -88 c 4
 623 -42.2002 606.6 -24 579 -24 c 4
 547 -24 535 -49.5479 535 -84 c 4
 535 -116.098 544.608 -152 578 -152 c 260
244 54 m 0
 179.2 54 163 119.944 163 175 c 0
 163 240.721 193.826 286 250 286 c 0
 314.046 286 330 227.137 330 167 c 0
 330.998 119.073 312.8 54 244 54 c 0
171 329 m 1
 65.0605 364.592 55 432 55 457 c 0
 55 488.844 71.4326 548 138 548 c 0
 156.667 548 173.333 543 188 533 c 1
 302 444 l 1
 338 490 l 1
 229 576 l 1
 219.667 588 215 602.333 215 619 c 0
 215 679 257.667 711 319 711 c 0
 398.967 711 456.5 661.5 490 613 c 1
 490 0 l 1
 548 0 l 1
 549 770 l 1
 491 770 l 1
 491 698 l 1
 449 736 389 770 320 770 c 0
 196.333 770 163 683 163 622 c 0
 163 615.745 163.285 609.975 163.754 604.5 c 1
 145 606 l 0
 47 606.5 0 536.806 0 456 c 0
 0 383.5 49.4971 319.935 130 284 c 1
 112.667 254.667 104 218 104 178 c 0
 104 107.625 131.2 0 240 0 c 0
 346.333 0 385.254 81.1875 386.997 168.326 c 24
 388.786 257.758 345.667 350.333 247 350 c 0
 217.667 349.901 192.333 343 171 329 c 1
EndSplineSet
Fore
SplineSet
578 -152 m 256
 616.23 -152 623 -118.968 623 -88 c 0
 623 -42.2002 606.6 -24 579 -24 c 0
 547 -24 535 -49.5479 535 -84 c 0
 535 -116.098 544.608 -152 578 -152 c 256
171 329 m 1
 192.333 343 217.667 349.901 247 350 c 0
 345.667 350.333 388.785 257.758 386.997 168.326 c 0
 385.254 81.1875 346.333 0 240 0 c 0
 131.2 0 104 107.625 104 178 c 0
 104 218 112.667 254.667 130 284 c 1
 49.4971 319.935 0 383.5 0 456 c 0
 0 536.806 47 606.5 145 606 c 1
 163.754 604.5 l 1
 163.285 609.975 163 615.745 163 622 c 0
 163 683 196.333 770 320 770 c 0
 389 770 449 736 491 698 c 1
 491 770 l 1
 549 770 l 1
 549 303.316 l 1
 567.334 309.6 585.922 313 606 313 c 0
 682.667 313 747.667 261.333 766 243 c 1
 726 205.999 l 1
 700.362 228.561 654 260 606 260 c 0
 536.164 260 481 200.336 481 130 c 0
 481 111.704 485.942 44.9434 532 29 c 1
 546 37 562.667 41 582 41 c 0
 646.806 41 681 -14.04 681 -85 c 0
 681 -143.4 660.2 -205 577 -205 c 0
 537.8 -205 479 -180 479 -80 c 0
 479 -48.4492 484.2 -30.2002 490 -17 c 1
 447 13.667 422 64.8926 422 127 c 0
 422 185.103 448.874 236.671 490 270.684 c 1
 490 613 l 1
 456.5 661.5 398.967 711 319 711 c 0
 257.667 711 215 679 215 619 c 0
 215 602.333 219.667 588 229 576 c 1
 338 490 l 1
 302 444 l 1
 188 533 l 1
 173.333 543 156.667 548 138 548 c 0
 71.4326 548 55 488.844 55 457 c 0
 55 432 65.0605 364.592 171 329 c 1
244 54 m 0
 312.8 54 330.998 119.073 330 167 c 0
 330 227.137 314.046 286 250 286 c 0
 193.826 286 163 240.721 163 175 c 0
 163 119.944 179.2 54 244 54 c 0
EndSplineSet
LCarets2: 2 0 0 
Ligature2: "'blws' Below Base Substitutions in Oriya lookup 9 subtable" u0B23 u0B22 u0B4D
EndChar

StartChar: u0B23_u0B4D_u0B20
Encoding: 213 -1 213
Width: 826
Flags: MW
LayerCount: 3
Fore
SplineSet
511 769.996 m 1
 510.998 323.001 l 1
 532.331 338.334 559.331 346.001 591.998 346.001 c 0
 699.198 346.001 725.998 239.201 725.998 168.001 c 0
 725.998 89.1523 697.598 0.000976562 583.998 0.000976562 c 0
 555.998 0.000976562 532.571 8 510.998 23.001 c 1
 510.998 0.000976562 l 1
 452 0 l 1
 452 610 l 1
 419.348 660.938 360.967 711 281 711 c 0
 216.41 711 177 671.234 177 604 c 0
 177 577.333 182 560.333 192 553 c 1
 226.272 533.809 265.629 498.932 294 474 c 1
 252 432 l 1
 235.66 447.173 202.36 480.321 163 500 c 1
 95.1367 500 70.4688 442.127 61 379 c 1
 242.566 379 393 333.4 393 151 c 0
 393 55.375 330.885 0 249 0 c 0
 112.396 0 0 136.836 0 317 c 0
 0 441.007 33.9844 525.286 131 552 c 1
 128.369 569.702 123.855 585.521 125 607 c 0
 125 675.725 156.4 770 282 770 c 0
 307.451 770 374.532 767.749 453 698 c 1
 453 770 l 1
 511 769.996 l 1
583.998 60.001 m 0
 641.927 60.001 667.732 104.412 668.998 169.001 c 0
 668.998 226.625 653.397 288.001 590.998 288.001 c 0
 542.604 288.001 523.009 261.035 510.998 225.001 c 1
 510.998 126.001 l 1
 513.181 114.214 525.598 60.001 583.998 60.001 c 0
249 53 m 0
 290.496 53 335.473 83.1133 334 145 c 0
 334 285 208.667 320 101 320 c 0
 78.6567 320 65.3333 318.667 59 318 c 1
 59 162.043 138.934 53 249 53 c 0
EndSplineSet
LCarets2: 2 0 0 
Ligature2: "'blws' Below Base Substitutions in Oriya lookup 9 subtable" u0B23 u0B20 u0B4D
EndChar

StartChar: u0B36_u0B4D_u0B1A
Encoding: 214 -1 214
Width: 645
Flags: MW
AnchorPoint: "C" 266 800 basechar 0
LayerCount: 3
Fore
SplineSet
365 785 m 0
 449 785 527.776 749.321 575 708 c 1
 575 769 l 1
 633 769 l 1
 633 303 l 1
 649.667 308.333 667.333 311 686 311 c 0
 719 311 773.236 305.506 851 237 c 1
 811 200 l 1
 770.333 240.667 728.333 261 685 261 c 0
 612.729 261 558 201.514 558 131 c 0
 558 112.704 562.942 45.9432 609 30 c 1
 623 38 639.667 42 659 42 c 0
 718.4 42 758 -5.925 758 -84 c 256
 758 -142.4 737.2 -204 654 -204 c 0
 594.6 -204 555 -156.475 555 -79 c 0
 555 -56.3333 559.667 -35.3333 569 -16 c 1
 523.667 13.3333 501 61.3333 501 128 c 0
 501 192 525 242 573 278 c 1
 573 625 l 1
 542.909 690.915 444.161 731 369 731 c 0
 259.016 731 226 659.6 226 612 c 0
 226 595.333 230.667 581 240 569 c 1
 349 484 l 1
 313 438 l 1
 199 526 l 1
 184.333 536 167.667 541 149 541 c 0
 82.4329 541 66 483.844 66 452 c 0
 66 427 76.0609 361.592 182 327 c 1
 203.333 341 229.333 348 260 348 c 0
 367.2 348 394 241.2 394 170 c 0
 394 93.925 365.6 2 252 2 c 0
 143.2 2 116 108.625 116 179 c 0
 116 217 124.333 250.667 141 280 c 1
 60.497 314.935 11 382.6 11 451 c 1
 12 481 l 2
 12 488.333 15 499 21 513 c 1
 44.58 583.74 120.116 599 156 599 c 1
 171 598 l 1
 171 629.2 173.263 647.31 185 676 c 1
 202.596 725.018 239.883 764.787 325 781 c 128
 339 783.667 352.333 785 365 785 c 0
655 -153 m 256
 696.633 -153 699.934 -110.465 703 -89 c 1
 703 -39.6141 685.8 -25 660 -25 c 256
 625.572 -25 613 -50.5479 613 -85 c 0
 613 -136.25 629.8 -153 655 -153 c 256
246 53 m 0
 303.867 53 330 97.0502 330 163 c 0
 330 220.225 314.6 282 253 282 c 256
 196.826 282 166 238.721 166 173 c 0
 166 119 182 53 246 53 c 0
EndSplineSet
LCarets2: 2 0 0 
Ligature2: "'blws' Below Base Substitutions in Oriya lookup 9 subtable" u0B36 u0B1A u0B4D
EndChar

StartChar: u0B37_u0B4D_u0B23
Encoding: 215 -1 215
Width: 803
Flags: MW
AnchorPoint: "C" 266 800 basechar 0
LayerCount: 3
Fore
SplineSet
657 20 m 1
 677.387 -1.74605 691 -40.4993 691 -84 c 0
 691 -184.319 594.613 -210 537 -210 c 0
 413.766 -210 340.425 -110.654 323 9 c 1
 303.667 3.66667 284 1 264 1 c 0
 156.137 1 76 84.2475 76 201 c 0
 76 261.879 84.7989 287.598 107 332 c 1
 65.3003 354.935 5 413.2 5 535 c 0
 5 724.6 127.625 772 239 772 c 0
 369.2 772 439.799 707.94 456 694 c 1
 456 775 l 1
 514 775 l 1
 514 304 l 1
 571 309 l 1
 583 309 l 1
 592 308 l 1
 587 251 l 1
 423.8 251 383 142.202 383 31 c 0
 383 -109.699 468.188 -151 536 -151 c 0
 591.133 -151 629 -129.975 629 -83 c 0
 629 -55.212 623.36 -37.1066 611 -22 c 1
 592 -36 l 1
 559 10 l 1
 598 42 l 1
 614.667 58.6667 623 78.6667 623 102 c 0
 623 125.061 611.435 136.507 589 139 c 1
 569.667 139 560 126 560 100 c 1
 502 100 l 1
 502 156.032 535.421 198 589 198 c 256
 640.512 198 682 161.671 682 101 c 0
 682 84.3333 679.667 70 675 58 c 1
 672.993 45.9577 671.832 39.776 657 20 c 1
456 620 m 1
 395.039 683.864 325.8 718 239 718 c 0
 193.667 718 156.667 708.667 128 690 c 1
 449 285 l 1
 456 290 l 1
 456 620 l 1
318 73 m 1
 318 159.886 346.819 215.114 400 255 c 1
 87 648 l 1
 70.3333 623.333 62 587.667 62 541 c 0
 62 449.2 106.701 405.915 134 388 c 1
 160 424 l 1
 203 385 l 1
 168 332 l 1
 144 286.667 132 244.667 132 206 c 0
 132 124.932 183.6 64 261 64 c 0
 283.667 64 302.667 67 318 73 c 1
EndSplineSet
LCarets2: 2 0 0 
Ligature2: "'blws' Below Base Substitutions in Oriya lookup 9 subtable" u0B37 u0B23 u0B4D
EndChar

StartChar: u0B23_u0B4D_u0B13
Encoding: 216 -1 216
Width: 679
Flags: HW
AnchorPoint: "C" 266 800 basechar 0
LayerCount: 3
Fore
SplineSet
822 230 m 1
 847.933 202.338 855.968 160.032 855 131 c 0
 855 52.7656 769.59 2 677 2 c 0
 619.667 2 570 24.3333 528 69 c 0
 483.333 116.333 461 180 461 260 c 2
 460 615 l 1
 443.333 641 421 664 393 684 c 0
 361.667 705.333 327 716 289 716 c 0
 224.41 716 185 676.234 185 609 c 0
 185 582.333 190 565.333 200 558 c 1
 216.667 548.667 239.667 532 269 508 c 1
 302 479 l 1
 260 437 l 1
 232 463 l 1
 210 481.667 189.667 495.667 171 505 c 1
 103.137 505 78.469 447.127 69 384 c 1
 250.566 384 401 338.4 401 156 c 0
 401 60.3748 338.885 5 257 5 c 0
 120.396 5 8 141.836 8 322 c 0
 8 446.007 41.9847 530.286 139 557 c 1
 133 593 l 1
 133 612 l 2
 133 680.725 164.4 774 290 774 c 0
 315.451 774 382.532 772.749 461 703 c 1
 461 775 l 1
 519 775 l 1
 519 441 l 1
 536.202 460.352 598.2 521 717 521 c 2
 726 521 l 1
 734 520 l 1
 729 463 l 1
 702.333 463 680.667 461.667 664 459 c 1
 567.333 437 519 370 519 258 c 0
 519 138.311 588.85 58 678 58 c 0
 776.488 58 797 99.4 797 127 c 0
 797 152.158 790.551 174.493 780 189 c 1
 761 175 l 1
 728 221 l 1
 761.175 245.881 791 265.897 791 311 c 0
 791 337 779.333 350 756 350 c 0
 736.667 350 727 337 727 311 c 1
 669 311 l 1
 669 367.211 702.412 407 756 407 c 0
 811.649 407 849 369.301 849 311 c 0
 849 291.121 842.855 253.462 822 230 c 1
255 55 m 0
 296.496 55 341.473 85.1131 340 147 c 1
 340 287 217.7 322 107 322 c 2
 84 322 l 1
 65 320 l 1
 65 315 l 2
 65 177.46 137.542 55 255 55 c 0
EndSplineSet
LCarets2: 1 0 
Ligature2: "'blws' Below Base Substitutions in Oriya lookup 9 subtable" u0B23 u0B13 u0B4D
EndChar

StartChar: u0B37_u0B4D_u0B36
Encoding: 217 -1 217
Width: 489
Flags: MW
AnchorPoint: "C" 266 800 basechar 0
LayerCount: 3
Fore
SplineSet
246 777 m 0
 376.2 777 446.799 712.94 463 699 c 1
 463 780 l 1
 521 780 l 1
 521 345 l 1
 552.741 341.473 584.193 316.672 597 306 c 1
 597 335 l 1
 655 335 l 1
 652 158 l 1
 594 158 l 1
 594 207 l 1
 581.014 241.236 537.675 289 497 289 c 0
 468.1 289 436 265 436 229 c 0
 436 223 438.333 216.333 443 209 c 1
 514 155 l 1
 478 109 l 1
 403 166 l 2
 395.667 171.333 387 174 377 174 c 0
 357.667 174 345.333 167.667 340 155 c 1
 335 126 l 1
 335 87.9204 369.215 65.7551 397 54 c 1
 412.333 62 429.667 66 449 66 c 0
 513.556 66 546 10.9519 546 -59 c 0
 546 -111.65 525.8 -178 445 -178 c 0
 381.546 -178 345 -119.826 345 -51 c 0
 345 -29.6667 349 -9.33333 357 10 c 1
 343 17 l 1
 304 9 l 1
 267 5 l 1
 201.825 5 116.143 38.7626 87 144 c 1
 34 21 l 1
 -20 44 l 1
 110 338 l 1
 48.8245 374.414 10 440.363 10 540 c 0
 10 729.6 135.306 777 246 777 c 0
417 315 m 1
 424.3 322.3 441.998 335.555 461 344 c 1
 461 621 l 1
 400.039 684.864 330.8 719 244 719 c 0
 196.667 719 158.333 708.333 129 687 c 1
 417 315 l 1
217 478 m 1
 90 640 l 1
 82.6667 625.333 77.3333 610.667 74 596 c 1
 69 539 l 1
 69 515.92 67.5915 436.406 138 388 c 1
 180 441 l 1
 217 478 l 1
277 126 m 0
 277 209.2 344.905 230 381 230 c 1
 388 261 l 1
 254 434 l 1
 211.198 398.166 139 311.403 139 205 c 0
 139 123.152 191 63 269 63 c 1
 295 65 l 1
 283 84.3333 277 104.667 277 126 c 0
448 -124 m 256
 481.017 -124 492.211 -94.1307 491 -59 c 1
 491 -7.51016 475.4 7 452 7 c 0
 413.6 7 404 -26 404 -56 c 0
 404 -89.7177 414.807 -124 448 -124 c 256
EndSplineSet
LCarets2: 1 0 
Ligature2: "'blws' Below Base Substitutions in Oriya lookup 9 subtable" u0B37 u0B36 u0B4D
EndChar

StartChar: u0B13_u0B01
Encoding: 218 -1 218
Width: 634
Flags: MW
LayerCount: 3
Fore
SplineSet
257.054 1024.65 m 0
 257.054 1052.22 249.02 1069.36 232.951 1069.36 c 0
 216.116 1069.36 207.699 1047.5 207.699 1029.12 c 24
 207.699 1011.1 209.957 991.597 232.951 989.995 c 0
 249.02 989.995 257.054 1000.06 257.054 1024.65 c 0
235 1125 m 0
 277.487 1125 314.4 1087.79 313 1029 c 0
 313 974.446 280.596 937 235 937 c 0
 201.025 937 154 965.502 154 1033 c 0
 154 1085 187.587 1125 235 1125 c 0
189.617 826.807 m 1
 203.612 821.804 218.155 819 233 819 c 0
 336.667 819 390 910 409 987 c 1
 353 1003 l 1
 332.667 941.333 309.333 877 233 877 c 0
 156.667 877 126.83 944.899 110 1001 c 1
 53 986 l 1
 63.0183 942.656 95.7327 889.655 139.609 855.151 c 1
 92.3574 782.343 0 596.355 0 408 c 0
 0 98 127 0 267 0 c 0
 374.557 0 523.5 78 524 261 c 0
 524.219 341.068 506.71 401.29 454 454 c 1
 489.874 491.111 515 544.289 515 614 c 0
 515 709.487 453.625 770 364 770 c 0
 270.677 770 224 692.67 224 614 c 1
 282 614 l 1
 282 673.4 314.8 713 364 713 c 0
 419.8 713 457 672.237 457 614 c 0
 457 498.8 346.056 436.966 323 422 c 1
 358 372 l 1
 412 414 l 1
 432.059 396.256 469 353.2 469 262 c 0
 469 132.375 374.03 59 269 59 c 0
 161 59 59 135 59 409 c 0
 59 567.14 143.904 752.295 189.617 826.807 c 1
EndSplineSet
Ligature2: "'abvs' Above Base Substitutions in Oriya lookup 6 subtable" u0B13 u0B01
EndChar

StartChar: u0B3E_u0B02
Encoding: 219 -1 219
Width: 283
Flags: MW
LayerCount: 3
Fore
SplineSet
147 1099 m 0
 199.657 1099 262.457 1043.07 261 960 c 1
 261 878.628 206.573 821 146 821 c 0
 82.0362 821 31 880.467 31 959 c 0
 31 1035.28 79.49 1099 147 1099 c 0
173 0 m 1
 116 0 l 1
 116 770 l 1
 173 770 l 1
 173 0 l 1
147 877 m 0
 170.559 877 204 904.502 204 958 c 0
 204 1000.08 181.2 1040 147 1040 c 0
 123.944 1040 90 1013.72 90 958 c 0
 90 917.257 111.499 877 147 877 c 0
EndSplineSet
Ligature2: "'abvs' Above Base Substitutions in Oriya lookup 6 subtable" u0B3E u0B02
EndChar

StartChar: u0020
Encoding: 220 -1 220
Width: 651
Flags: MW
LayerCount: 3
Fore
SplineSet
724 179.25 m 5
 760 134 l 5
 1075.5 400.583 l 5
 1036.49 444.651 l 5
 724 179.25 l 5
738.378 660.229 m 5
 687.723 632.345 l 5
 897.503 276.539 l 5
 947.498 307.583 l 5
 738.378 660.229 l 5
EndSplineSet
EndChar

StartChar: u0021
Encoding: 221 9676 221
Width: 299
Flags: HW
LayerCount: 3
Fore
SplineSet
147 776 m 0
 166.2 776 195 763.6 195 690 c 2
 195 668 l 1
 194 653 l 1
 177.866 502.035 172 432.935 172 330 c 1
 168 179 l 1
 129 179 l 1
 128 267 l 1
 128 421.4 119.26 519.096 101 653 c 1
 101 742.955 110.2 776 147 776 c 0
147 118 m 1
 165.4 118 193 93.6 193 57 c 0
 193 22.6541 174.307 -2.3041 146 -5 c 1
 120.419 -5 98 23.5862 98 56 c 0
 98 90.4617 118.859 115.32 147 118 c 1
EndSplineSet
EndChar

StartChar: u0027
Encoding: 222 -1 222
Width: 228
Flags: MW
LayerCount: 3
Fore
SplineSet
121 637 m 4
 139 637 166 614.85 166 576 c 4
 166 539.397 150.235 519.839 119 517 c 5
 77.9969 517 61 577.507 61 621 c 4
 61 693.197 95.995 750.869 143 781 c 5
 158 732 l 5
 118 710.667 98 676.333 98 629 c 5
 106 634.333 113.667 637 121 637 c 4
EndSplineSet
EndChar

StartChar: u25CC
Encoding: 223 -1 223
Width: 755
Flags: MW
LayerCount: 3
Fore
SplineSet
580.594 200.396 m 0
 600.669 184.85 620.636 176.975 631.045 190.416 c 0
 641.605 204.055 628.833 221.219 608.758 236.766 c 0
 588.684 252.312 558.173 262.906 550.399 252.869 c 0
 542.625 242.829 560.518 215.942 580.594 200.396 c 0
483.71 88.4238 m 0
 497.524 67.1191 513.771 53.0918 528.035 62.3418 c 0
 542.508 71.7266 536.121 92.1465 522.306 113.45 c 0
 508.492 134.755 483.193 154.83 472.54 147.924 c 0
 461.887 141.016 469.896 109.728 483.71 88.4238 c 0
174 200 m 0
 153.925 184.454 133.958 176.579 123.549 190.021 c 0
 112.988 203.659 125.761 220.823 145.836 236.37 c 0
 165.91 251.917 196.421 262.511 204.194 252.474 c 0
 211.969 242.434 194.076 215.547 174 200 c 0
270.884 88.0283 m 0
 257.069 66.7236 240.822 52.6963 226.559 61.9463 c 0
 212.086 71.3311 218.473 91.751 232.288 113.055 c 0
 246.102 134.359 271.4 154.435 282.054 147.528 c 0
 292.707 140.62 284.697 109.332 270.884 88.0283 c 0
399.963 64.6113 m 0
 399.963 39.2197 393.963 18.6113 376.963 18.6113 c 0
 359.713 18.6113 353.963 39.2197 353.963 64.6113 c 0
 353.963 90.0029 364.267 120.611 376.963 120.611 c 0
 389.659 120.611 399.963 90.0029 399.963 64.6113 c 0
119.869 399.028 m 0
 94.5137 397.695 74.248 390.622 75.1406 373.645 c 0
 76.0469 356.419 96.9277 351.759 122.285 353.092 c 0
 147.641 354.424 177.666 366.321 177 379 c 0
 176.333 391.679 145.226 400.361 119.869 399.028 c 0
173.869 566.466 m 0
 153.794 582.012 133.827 589.887 123.418 576.445 c 0
 112.857 562.807 125.63 545.643 145.705 530.096 c 0
 165.779 514.549 196.29 503.955 204.063 513.992 c 0
 211.838 524.032 193.945 550.919 173.869 566.466 c 0
270.753 678.438 m 0
 256.938 699.742 240.691 713.77 226.428 704.52 c 0
 211.955 695.135 218.342 674.715 232.157 653.411 c 0
 245.971 632.106 271.27 612.031 281.923 618.938 c 0
 292.576 625.846 284.566 657.134 270.753 678.438 c 0
634.463 399.424 m 0
 659.818 398.091 680.084 391.018 679.191 374.04 c 0
 678.285 356.814 657.404 352.154 632.047 353.487 c 0
 606.691 354.819 576.666 366.717 577.332 379.396 c 0
 577.999 392.074 609.106 400.757 634.463 399.424 c 0
580.463 566.861 m 0
 600.538 582.407 620.505 590.282 630.914 576.841 c 0
 641.475 563.202 628.702 546.038 608.627 530.491 c 0
 588.553 514.944 558.042 504.351 550.269 514.388 c 0
 542.494 524.428 560.387 551.314 580.463 566.861 c 0
483.579 678.833 m 0
 497.394 700.138 513.641 714.165 527.904 704.915 c 0
 542.377 695.53 535.99 675.11 522.175 653.807 c 0
 508.361 632.502 483.062 612.427 472.409 619.333 c 0
 461.756 626.241 469.766 657.529 483.579 678.833 c 0
354.5 702.25 m 0
 354.5 727.642 360.5 748.25 377.5 748.25 c 0
 394.75 748.25 400.5 727.642 400.5 702.25 c 0
 400.5 676.858 390.196 646.25 377.5 646.25 c 0
 364.804 646.25 354.5 676.858 354.5 702.25 c 0
EndSplineSet
EndChar

StartChar: u002C
Encoding: 224 -1 224
Width: 228
Flags: MW
LayerCount: 3
Fore
SplineSet
126 770 m 0
 167.51 770 187 710.55 187 667 c 0
 187 593.46 147.379 537.075 105 510 c 1
 89 556 l 1
 125.554 575.072 151 620.977 151 660 c 1
 143 654.667 135.333 652 128 652 c 0
 101.879 652 81 681.062 81 711 c 0
 81 746.4 99 770 126 770 c 0
EndSplineSet
EndChar

StartChar: u0028
Encoding: 225 -1 225
Width: 274
Flags: MW
LayerCount: 3
Fore
SplineSet
101 264 m 0
 101 109.373 137.19 -65.7042 259 -189 c 1
 254 -221 l 1
 103.32 -114.387 34 81.7141 34 267 c 0
 34 464.536 103.235 649.464 254 755 c 1
 259 725 l 1
 135.2 601.2 101 394.499 101 264 c 0
EndSplineSet
EndChar

StartChar: u0029
Encoding: 226 -1 226
Width: 343
Flags: MW
LayerCount: 3
Fore
SplineSet
192 252 m 0
 192 390.852 154.935 582.375 33 709 c 1
 42 743 l 1
 192.843 634.627 261 428.085 261 252 c 0
 261 57.2 191.352 -127.02 41 -235 c 1
 33 -200 l 1
 131.305 -100.419 192 63.3899 192 252 c 0
EndSplineSet
EndChar

StartChar: u002E
Encoding: 227 -1 227
Width: 228
Flags: MW
LayerCount: 3
Fore
SplineSet
95 118 m 1
 122.42 118 141 88.7166 141 56 c 0
 141 23.2213 122.57 -2.40273 94 -5 c 1
 68.4188 -5 46 23.5862 46 56 c 0
 46 90.4617 66.8593 115.32 95 118 c 1
EndSplineSet
EndChar

StartChar: u002D
Encoding: 228 -1 228
Width: 361
Flags: MW
LayerCount: 3
Fore
SplineSet
294 267 m 1
 68 267 l 1
 68 346 l 1
 294 346 l 1
 294 267 l 1
EndSplineSet
EndChar

StartChar: u002F
Encoding: 229 -1 229
Width: 306
Flags: MW
LayerCount: 3
Fore
SplineSet
299 757 m 1
 31 -263 l 1
 -13 -263 l 1
 255 757 l 1
 299 757 l 1
EndSplineSet
EndChar

StartChar: u003A
Encoding: 230 -1 230
Width: 228
Flags: MW
LayerCount: 3
Fore
SplineSet
107 367 m 1
 131.811 367 154.772 341.038 152 305 c 1
 152 270.976 133.318 247.732 106 245 c 1
 78.9723 245 60 274.213 60 306 c 0
 60 338.779 78.4301 364.403 107 367 c 1
109 123 m 1
 133.811 123 156.772 97.0382 154 61 c 1
 154 26.9762 135.318 3.73183 108 1 c 1
 80.9723 1 62 30.2132 62 62 c 0
 62 94.7787 80.4301 120.403 109 123 c 1
EndSplineSet
EndChar

StartChar: u0038
Encoding: 231 -1 231
Width: 520
Flags: HW
LayerCount: 3
Fore
SplineSet
259 770 m 0
 407.8 770 444.075 491.697 445 377 c 0
 445 203.377 408 0 260 0 c 0
 114.377 0 75 183.011 75 376 c 0
 75 561.678 129 770 259 770 c 0
259.85 58.3604 m 256
 376.387 58.3604 393.2 211.09 393.2 375.3 c 0
 393.2 539.052 364.756 708.14 258.8 708.14 c 0
 152.188 708.14 124.4 532.679 124.4 374.24 c 0
 124.4 196.08 151.49 58.3604 259.85 58.3604 c 256
EndSplineSet
EndChar

StartChar: u003F
Encoding: 232 -1 232
Width: 398
Flags: HMW
LayerCount: 3
Fore
SplineSet
323 68 m 1
 323 0 l 1
 75 0 l 1
 75 67.5 l 1
 174 67.5 l 1
 174 687.449 l 1
 109.274 633.624 l 1
 82.3535 686.341 l 1
 179.264 770 l 1
 207.226 770 l 1
 224 738.524 l 17
 224.028 738.472 224.12 727.485 224 68 c 1
 323 68 l 1
EndSplineSet
EndChar

StartChar: u0030
Encoding: 233 -1 233
Width: 519
Flags: HMW
LayerCount: 3
Fore
SplineSet
257.439 769.12 m 0
 324.256 769.198 424.479 734.89 424.479 530.021 c 0
 424.479 375.98 257.872 160.414 180.199 61.3008 c 1
 444 61 l 1
 444 0 l 1
 113 0 l 1
 96.6396 56.9795 l 1
 206.772 179.229 376 386.98 376 531 c 0
 376 621.474 346.191 706.651 258.64 706.651 c 0
 172.042 706.651 144.131 616.94 115.307 542.98 c 1
 75.04 574.12 l 1
 114.347 671.223 137.973 768.98 257.439 769.12 c 0
EndSplineSet
EndChar

StartChar: u0031
Encoding: 234 -1 234
Width: 507
Flags: HMW
LayerCount: 3
Fore
SplineSet
329 403 m 1
 370 381.5 432 329.5 432 197 c 0
 432 68.627 366.5 0 255 0 c 0
 182.333 0 131 40.667 75 98 c 1
 106.332 144.662 l 1
 138.054 107.984 181.004 62 248 62 c 0
 326 62 382 113.42 382 200 c 0
 382 323.2 293.375 363 221.5 363 c 1
 194 386 l 1
 194 406 l 1
 218.5 430.5 l 1
 249.593 439.323 370 471 370 581 c 0
 370 650.5 334 708 269 708 c 0
 182.5 708 153 659.5 137 601.5 c 1
 95 609 l 1
 106 678 155.5 770 263 770 c 0
 373 770 419 685.5 419 573 c 0
 419 478.5 366.694 424.915 329 403 c 1
EndSplineSet
EndChar

StartChar: u0032
Encoding: 235 -1 235
Width: 560
Flags: MW
LayerCount: 3
Fore
SplineSet
345.6 63.7607 m 0,0,-1
395 62 m 0,1,-1
133.591 396.16 m 0,2,-1
189.333 369.334 m 0,3,-1
485 185 m 1,4,-1
 395 185 l 1,5,-1
 395 0 l 1,6,-1
 345 0 l 1,7,-1
 345 185 l 1,8,-1
 98 185 l 1,9,-1
 75 221 l 1,10,-1
 75 274 l 1,11,-1
 306.204 753.609 l 1,12,-1
 331.205 770.008 l 1,13,-1
 365 770 l 1,14,-1
 395 734 l 1,15,-1
 395 247 l 1,16,-1
 485 247 l 1,17,-1
 485 185 l 1,4,-1
345 247 m 1,18,-1
 344.999 704.667 l 1,19,-1
 132 247 l 1,20,-1
 345 247 l 1,18,-1
EndSplineSet
EndChar

StartChar: u0033
Encoding: 236 -1 236
Width: 467
Flags: MW
LayerCount: 3
Fore
SplineSet
139 566 m 1
 217.281 555.041 383 506.2 383 267 c 0
 383 187 365.167 122.5 329.5 73.5 c 0
 293.833 24.5 250 0 198 0 c 0
 111.705 0 86.6588 8.97905 24 73 c 1
 63 131 l 1
 98.733 92.7147 135.31 78 198 78 c 0
 272.4 78 322 156.009 322 266 c 0
 322 444.4 194.196 489 105 489 c 0
 83 489 72 504.667 72 536 c 0
 72 546.667 72.6667 554.333 74 559 c 2
 146 766 l 1
 171 787 l 1
 354 787 l 1
 354 708 l 1
 192 708 l 1
 139 566 l 1
EndSplineSet
EndChar

StartChar: u0034
Encoding: 237 -1 237
Width: 467
Flags: MW
LayerCount: 3
Fore
SplineSet
427 203 m 1
 335 203 l 1
 335 0 l 1
 275 0 l 1
 275 203 l 1
 38 203 l 1
 15 239 l 1
 15 304 l 1
 239 772 l 1
 264 788 l 1
 305 788 l 1
 335 752 l 1
 335 281 l 1
 427 281 l 1
 427 203 l 1
275 281 m 1
 275 703 l 1
 72 281 l 1
 275 281 l 1
EndSplineSet
EndChar

StartChar: u0035
Encoding: 238 -1 238
Width: 467
Flags: MW
LayerCount: 3
Fore
SplineSet
139 566 m 1
 217.281 555.041 383 506.2 383 267 c 0
 383 187 365.167 122.5 329.5 73.5 c 128
 293.833 24.5 250 0 198 0 c 0
 111.705 0 86.6588 8.97905 24 73 c 1
 63 131 l 1
 98.733 92.7147 135.31 78 198 78 c 0
 272.4 78 322 156.009 322 266 c 0
 322 444.4 194.196 489 105 489 c 0
 83 489 72 504.667 72 536 c 0
 72 546.667 72.6667 554.333 74 559 c 2
 146 766 l 1
 171 787 l 1
 354 787 l 1
 354 708 l 1
 192 708 l 1
 139 566 l 1
EndSplineSet
EndChar

StartChar: u0036
Encoding: 239 -1 239
Width: 467
Flags: MW
LayerCount: 3
Fore
SplineSet
253 463 m 0
 343.808 463 423.397 357.54 422 222 c 1
 422 97.516 353.67 1 240 1 c 0
 162.4 1 46 59.3 46 341 c 0
 46 475.667 69.3333 582 116 660 c 0
 166 745.333 240 788 338 788 c 1
 338 709 l 1
 156.4 709 111 524.265 111 385 c 1
 139 437 186.333 463 253 463 c 0
243 79 m 0
 312 79 360.633 147.378 358 229 c 1
 358 313.641 311.6 382 242 382 c 256
 173.595 382 126 316.541 126 229 c 0
 126 147.775 172.8 79 243 79 c 0
EndSplineSet
EndChar

StartChar: u0037
Encoding: 240 -1 240
Width: 467
Flags: MW
LayerCount: 3
Fore
SplineSet
411 723 m 1
 214 0 l 1
 160 23 l 1
 344 710 l 1
 104 710 l 1
 71 632 l 1
 20 665 l 1
 62 771 l 1
 85 789 l 1
 384 789 l 1
 412 761 l 1
 411 723 l 1
EndSplineSet
EndChar

StartChar: u0038
Encoding: 241 -1 241
Width: 623
Flags: MW
LayerCount: 3
Back
SplineSet
513 770 m 1
 513 770 512 -68 513 -66 c 1
 513 -116.637 482.284 -182 396 -182 c 0
 358 -182 312.667 -155.667 260 -103 c 1
 210 -155.667 164.667 -182 124 -182 c 0
 31.2002 -182 8 -107.55 8 -66 c 0
 8 -24.4502 31.2002 56 124 56 c 0
 164.667 56 210 29.667 260 -23 c 1
 294.635 11.6346 326.098 34.8809 354.389 46.7373 c 1
 28.5 241 l 1
 99.5 301.5 l 1
 49 330 0 399 0 482 c 0
 0 683.87 153.2 770 259 770 c 0
 341.625 770 407.509 743.409 456 703 c 1
 456 770 l 1
 513 770 l 1
457 54 m 9
 457 617 l 1
 437.952 646.074 378.6 711 261 711 c 0
 180.904 711 60 644.472 60 482 c 0
 60 417 103 360 147 343 c 1
 305.994 477.401 l 1
 344.998 433.333 l 1
 127.339 249.104 l 1
 287.32 151.251 457 55 457 54 c 9
67 -63 m 0
 67 -98.4502 90.5996 -127 126 -127 c 0
 158.007 -127 188.205 -97.8447 221 -63 c 1
 188.205 -28.1553 158.007 1 126 1 c 0
 90.5996 1 67 -27.5498 67 -63 c 0
459 -64 m 0
 459 -25.7031 431.659 2 398 2 c 0
 365.502 2 338.666 -24.5527 304 -64 c 1
 338.666 -103.447 365.502 -128 398 -128 c 0
 431.659 -128 459 -102.297 459 -64 c 0
EndSplineSet
Fore
SplineSet
1777 258 m 0
 1777 207.363 1745.28 142 1659 142 c 0
 1621 142 1575.67 168.333 1523 221 c 1
 1473 168.333 1427.67 142 1387 142 c 0
 1294.2 142 1271 216.45 1271 258 c 0
 1271 299.55 1294.2 380 1387 380 c 0
 1427.67 380 1473 353.667 1523 301 c 1
 1575.67 353.667 1621 380 1659 380 c 0
 1745.28 380 1777 308.637 1777 258 c 0
1330 261 m 0
 1330 225.55 1353.6 197 1389 197 c 0
 1421.01 197 1451.21 226.155 1484 261 c 1
 1451.21 295.845 1421.01 325 1389 325 c 0
 1353.6 325 1330 296.45 1330 261 c 0
1722 260 m 0
 1722 298.297 1694.66 326 1661 326 c 0
 1628.5 326 1601.67 299.447 1567 260 c 1
 1601.67 220.553 1628.5 196 1661 196 c 0
 1694.66 196 1722 221.703 1722 260 c 0
EndSplineSet
Ligature2: "'blws' Below Base Substitutions in Oriya lookup 8 subtable" u0B38 u0B25.sub
EndChar

StartChar: u0039
Encoding: 242 -1 242
Width: 467
Flags: MW
LayerCount: 3
Fore
SplineSet
215 789 m 0
 293 789 410 731.969 410 449 c 0
 410 313.667 386.667 207 340 129 c 0
 290 43.6667 215.667 1 117 1 c 1
 117 79 l 1
 192.333 79 250.667 111 292 175 c 0
 328 232.333 346 308.333 346 403 c 1
 315.333 350.333 268 324 204 324 c 0
 98.1246 324 35 443.712 35 567 c 0
 35 692.664 100.317 789 215 789 c 0
215 408 m 0
 279.921 408 334.372 476.297 333 560 c 1
 333 639.314 284.596 709 215 709 c 256
 144.8 709 98 642.499 98 560 c 0
 98 471.725 144.8 408 215 408 c 0
EndSplineSet
EndChar

StartChar: u0952
Encoding: 243 2386 243
Width: 20
Flags: HMW
LayerCount: 3
Fore
SplineSet
-141 -303.5 m 1
 -105.28 -357.696 -68.4 -389 45 -389 c 1
 46 -438 l 1
 -66.7824 -438 -122.5 -406.5 -162 -347 c 1
 -190.5 -391 -219.5 -421 -266 -421 c 0
 -337.35 -421 -376 -364.858 -376 -314 c 0 269 c 1
 233 191 l 1
 184 224 l 1
 321 425 l 1
 371 392 l 1
 318 315 l 1
 340.831 297.877 368.689 258.443 380.396 217.721 c 1
 412.522 247.094 457.088 267.14 513.91 267.14 c 0
 615.901 267.14 704.542 190.1 704.542 91.8867 c 0
 704.542 50.3027 695.325 28.4238 682.725 -12.0742 c 1
 625.556 6.01953 l 1

 -376 -253.19 -335.888 -211 -272 -211 c 0
 -250.161 -211 -207.5 -215.5 -173 -257 c 1
 -160 -209.5 -160 -162 -160 -135 c 1
 -116 -135 l 1
 -116 -163.644 -119.5 -247 -141 -303.5 c 1
-333 -314 m 0
 -333 -341.65 -312.375 -371 -268 -371 c 0
 -237.6 -371 -208.617 -341.794 -192 -305 c 1
 -209.513 -279.703 -229.393 -252 -273 -252 c 0
 -310.536 -252 -333 -278.96 -333 -314 c 0
EndSplineSet
EndChar

StartChar: u007E
Encoding: 244 126 244
Width: 165
Flags: MW
LayerCount: 3
Fore
SplineSet
53 480 m 1
 68.6299 476.874 94.2859 454 109 454 c 0
 119.667 454 126.667 463.333 130 482 c 1
 162 481 l 1
 162 433 146.333 409 115 409 c 0
 95.5 409 66.25 432 50 432 c 0
 40 432 35 424.333 35 409 c 1
 5 409 l 1
 5 446.686 18.8922 480 53 480 c 1
EndSplineSet
EndChar

StartChar: u0B3E_u0B01
Encoding: 245 2881 245
Width: 285
Flags: HW
LayerCount: 3 
Fore
SplineSet
101 1019.67 m 0
 101 1047.08 122.205 1069.33 148.333 1069.33 c 0
 174.461 1069.33 195.667 1047.08 195.667 1019.67 c 0
 195.667 992.251 174.461 970 148.333 970 c 0
 122.205 970 101 992.251 101 1019.67 c 0
151 868 m 0
 212.667 868 262 926 292 1011 c 1
 348 994 l 1
 321 908 251.333 810 153 810 c 0
 54.667 810 -19 908 -49 997 c 1
 5 1015 l 1
 25.333 945 80 868 151 868 c 0
175 0 m 1
 117 0 l 1
 117 770 l 1
 175 770 l 1
 175 0 l 1
EndSplineSet
Ligature2: "'abvs' Above Base Substitutions in Oriya lookup 6 subtable" u0B3E u0B01
EndChar

StartChar: u0B42
Encoding: 246 2882 246
Width: 14
Flags: MW
LayerCount: 3
Fore
SplineSet
-220 -375 m 0
 -170.457 -375 -119.607 -324.187 -115 -300 c 1
 -91.6667 -340 -72.3333 -365.333 -57 -376 c 0
 -28.3333 -394.667 6.33333 -404 47 -404 c 1
 46 -449 l 1
 -54.2 -449 -93.1629 -404.317 -121 -373 c 1
 -132.235 -385.099 -177.273 -420 -227 -420 c 0
 -280.62 -420 -338 -373.867 -338 -304 c 0
 -338 -252.731 -305.319 -210.022 -259 -195 c 1
 -205 -186 l 1
 -180 -178 l 1
 -172.667 -173.333 -165 -160 -157 -138 c 1
 -113 -138 l 1
 -122.343 -200.735 -162.069 -222.621 -193 -228 c 2
 -237 -235 l 1
 -289.984 -249.129 -290 -289.003 -290 -299 c 0
 -290 -335.525 -262 -375 -220 -375 c 0
EndSplineSet
EndChar

StartChar: u0951
Encoding: 247 2385 247
Width: 14
Flags: MW
LayerCount: 3
Fore
SplineSet
-246 1118 m 1
 -304 1118 l 1
 -304 1372 l 1
 -246 1372 l 1
 -246 1118 l 1
EndSplineSet
LCarets2: 2 0 0 
EndChar

StartChar: u0953
Encoding: 248 2387 248
Width: 14
Flags: HW
LayerCount: 3
Fore
SplineSet
-194 1118 m 1
 -252 1118 l 1
 -252 1372 l 1
 -194 1372 l 1
 -194 1118 l 1
-310 1118 m 1
 -368 1118 l 1
 -368 1372 l 1
 -310 1372 l 1
 -310 1118 l 1
EndSplineSet
LCarets2: 2 0 0 
EndChar

StartChar: u0B38_u0B4D_u0B0F
Encoding: 249 -1 249
Width: 645
Flags: HW
AnchorPoint: "C" 266 800 basechar 0
LayerCount: 3
Fore
SplineSet
237 776 m 0
 367.2 776 437.799 711.94 454 698 c 1
 454 779 l 1
 512 779 l 1
 512 250 l 1
 536 258 562 262 590 262 c 1
 593 -331 l 1
 183 18 l 1
 220 61 l 1
 533 -205 l 1
 533 201 l 1
 445.865 183.859 384 80.3292 384 9 c 1
 326 9 l 1
 326 25.6667 328.667 42.3333 334 59 c 1
 28 241 l 1
 100 302 l 1
 30.8293 357.337 2 446.736 2 534 c 0
 2 695.173 113.961 776 237 776 c 0
353 115 m 1
 385.423 177.685 432.045 208.665 453 222 c 1
 453 619 l 1
 392.039 682.864 322.8 717 236 717 c 0
 164.702 717 59 679.77 59 535 c 0
 59 451.954 87.0791 374.097 146 343 c 1
 304 477 l 1
 343 433 l 1
 125 250 l 1
 353 115 l 1
EndSplineSet
LCarets2: 2 0 0 
Ligature2: "'blws' Below Base Substitutions in Oriya lookup 9 subtable" u0B38 u0B0F u0B4D
EndChar

StartChar: u0B1A_u0B4D_u0B38
Encoding: 250 -1 250
Width: 899
Flags: HMW
AnchorPoint: "C" 259 800 basechar 0
LayerCount: 3
Fore
SplineSet
433.469 0.46875 m 1
 430.48 0.157227 427.01 9.93411e-09 424 0 c 0
 366.332 0 327.333 48 308 100 c 1
 282.508 46.5889 244.667 0 191 0 c 0
 119.004 0 43 100.511 43 245 c 0
 43 291.901 48.293 326.862 62 363 c 1
 38.5479 378.99 0 427.4 0 524 c 0
 0 696.619 167.619 770 360 770 c 0
 546 770 720.464 700.013 719 520 c 0
 719 458.8 704.667 397.333 691 367 c 1
 637 385 l 1
 648.667 409.333 663 449.405 663 520 c 0
 663 672.8 497.023 710 362 710 c 0
 223.355 710 60 673.4 60 523 c 0
 60 492.398 64.1807 448.508 90 419 c 1
 120.667 467.333 152.667 488 193 488 c 0
 239 488 281.599 449.002 308 389 c 1
 332.667 448 369.333 489 425 489 c 0
 488.488 489 570.334 406.167 574.668 259 c 1
 606.729 261.154 648.166 253.609 683.939 229.986 c 1
 683.939 259.21 l 1
 742 259.21 l 1
 742 -289.992 l 17
 736.557 -284.578 428.5 -88 428.339 -88.1787 c 1
 470.078 -49.5459 l 1
 455.492 -37.0686 442.702 -20.3359 433.469 0.46875 c 1
419.954 58 m 1
 415.949 156.009 465.04 217.366 519 244 c 1
 519 320.776 492.502 428 428 428 c 0
 375.8 428 341 346.048 341 243 c 0
 341 144.295 372.75 65.25 419.954 58 c 1
195 56 m 0
 259.333 56 282 161.917 282 242 c 24
 282 321.73 258.667 427 195 427 c 0
 128.372 427 104 320.188 104 242 c 0
 104 162.338 127.064 56 195 56 c 0
684.52 -181.501 m 1
 684.52 146.704 l 1
 672.75 164.51 641.854 197.04 583.34 197.04 c 0
 543.784 197.04 479.26 160.688 479.26 65.2705 c 0
 479.26 31.9951 497.627 4.41016 515.27 -7.12012 c 1
 610.75 80.5488 l 1
 649.188 33.3779 l 1
 526.033 -79.8467 l 1
 684.52 -181.501 l 1
EndSplineSet
Refer: 281 -1 S 1 0 0 1 -7 0 0
LCarets2: 1 0 
Ligature2: "'blws' Below Base Substitutions in Oriya lookup 9 subtable" u0B1A u0B38 u0B4D
EndChar

StartChar: u0B33_u0B4D_u0B38
Encoding: 251 -1 251
Width: 798
Flags: HMW
LayerCount: 3
Fore
SplineSet
630.25 -158.381 m 1
 630.25 169.824 l 1
 618.48 187.63 587.584 220.16 529.07 220.16 c 0
 489.515 220.16 424.99 183.809 424.99 88.3906 c 0
 424.99 55.1152 443.357 27.5303 461 16 c 1
 556.48 103.669 l 1
 594.918 56.498 l 1
 471.764 -56.7266 l 1
 630.25 -158.381 l 1
392.425 0 m 1
 355 0 l 1
 355 262 l 2
 355 278.667 344 290 327 290 c 0
 309.987 290 299 277.333 299 262 c 2
 299 0 l 1
 242 0 l 1
 242 262 l 2
 242 278 232 290.667 214 290 c 0
 197.8 290 187 277.333 187 262 c 2
 187 0 l 1
 130 0 l 1
 130 270 l 1
 78.1918 291.687 0 382.486 0 488.998 c 0
 0 634 92 770 274.006 769.999 c 0
 417 769.998 541 656 541 512 c 0
 541 450.858 527 414 514 370 c 1
 460 388 l 1
 475.333 437.333 483 478.667 483 512 c 0
 483 635 368 715 273.002 714.999 c 0
 136 714.998 58.001 618 58.001 491.999 c 0
 58.001 419.831 99.909 346.631 148 324 c 1
 162 340.667 183.667 349 213 349 c 0
 235 349 253.667 343 269 331 c 1
 283.667 343 303 349.13 327 349 c 0
 388.667 348.666 411.738 308.002 412 262 c 2
 412.2 226.8 l 1
 427.6 247.2 466.4 282.4 527.91 282.33 c 0
 562.882 282.29 598.292 273.826 629.67 253.106 c 1
 629.67 282.33 l 1
 687.73 282.33 l 1
 687.73 -267.684 l 17
 687.666 -267.619 374.23 -65.2129 374.069 -65.0586 c 9
 415.809 -26.4258 l 1
 407.37 -19.207 399.418 -10.2754 392.425 0 c 1
EndSplineSet
Ligature2: "'blws' Below Base Substitutions in Oriya lookup 9 subtable" u0B33 u0B38 u0B4D
EndChar

StartChar: u0B38_u0B4D_u0B2B
Encoding: 253 -1 253
Width: 923
Flags: MW
LayerCount: 3
Fore
SplineSet
628 414 m 0
 628 247.696 594.808 183.575 572 141 c 1
 656 -16 l 1
 605 -44 l 1
 506 133 l 1
 534 191 l 1
 558 247.667 570 320.333 570 409 c 0
 570 595.24 466.659 715 292 715 c 0
 230.667 715 177.167 692.167 131.5 646.5 c 0
 85.8333 600.833 63 547 63 485 c 0
 63 455.667 67.3333 429 76 405 c 1
 86 383 98 364.333 112 349 c 1
 167 438 l 1
 214 402 l 1
 138.333 302.687 120 227.6 120 184 c 0
 120 86.4 213.038 62 256 62 c 0
 317.673 62 385 106.315 385 184 c 0
 385 198.667 382.333 213 377 227 c 1
 291.922 227 254 322.787 254 374 c 0
 254 388.667 256.333 402 261 414 c 1
 248.333 418.667 236.667 428.333 226 443 c 1
 204 480 l 1
 194 503.333 189 525 189 545 c 0
 189 585.038 201.344 607.229 228 625 c 1
 246.667 639 267 646 289 646 c 0
 301.667 646 310.333 645.333 315 644 c 1
 319.667 644 327 641.333 337 636 c 1
 311 585 l 1
 289 590 l 2
 287.309 590 250 588.006 250 544 c 0
 250 511.607 271.046 472.514 297 468 c 1
 308 468 l 1
 320 471.333 331.333 476 342 482 c 1
 351 489 l 1
 384 443 l 1
 366 432 l 1
 329 413 l 1
 318 397 l 1
 315.333 389.667 314 381 314 371 c 0
 314 359 317.5 344.167 324.5 326.5 c 0
 331.5 308.833 348 297 374 291 c 1
 411 289 l 1
 442.244 234.734 443 212.618 443 187 c 0
 443 78.4 357.477 6 255 6 c 0
 194.203 6 62 42.2 62 187 c 0
 62 221 69.6667 258 85 298 c 1
 39.0225 332.831 3 402.524 3 490 c 0
 3 567.333 31.1667 634.833 87.5 692.5 c 0
 143.833 750.167 211.333 779 290 779 c 0
 388 779 467.333 749.333 528 690 c 0
 594.667 626 628 534 628 414 c 0
EndSplineSet
LCarets2: 2 0 0 
Ligature2: "'blws' Below Base Substitutions in Oriya lookup 9 subtable" u0B38 u0B2B u0B4D
EndChar

StartChar: u0B1E_u0B4D_u0B25
Encoding: 254 -1 254
Width: 588
Flags: MW
AnchorPoint: "C" 266 800 basechar 0
LayerCount: 3
Fore
SplineSet
395 774 m 0
 483.51 774 517.581 712.057 519 617 c 0
 519 586.333 507.333 552.333 484 515 c 1
 484 0 l 1
 427 0 l 1
 427 68 l 1
 327 25 l 1
 282.333 8.33333 249 8.67362e-19 227 0 c 0
 115.995 0 4 71.6678 4 199 c 0
 4 250.333 20.3333 295 53 333 c 0
 63 343.667 79.6667 357.333 103 374 c 1
 91 403 l 1
 89 435 l 1
 90 454 l 1
 39.681 495.513 6 559.905 6 610 c 0
 6 658 8.66667 689.667 14 705 c 1
 44 765 l 1
 98 742 l 1
 72 692 l 1
 66.6667 678 64 650.667 64 610 c 0
 64 576.667 81 542.333 115 507 c 1
 130.333 523.667 149.667 532 173 532 c 0
 220.355 532 259 495.811 259 441 c 1
 275 441 l 2
 390.131 441 461 551.387 461 614 c 0
 461 672.43 446.588 714 395 714 c 0
 371 714 353.667 703 343 681 c 1
 343 609 l 1
 285 609 l 1
 285 679 l 1
 270 697 l 1
 255.333 709 238 715 218 715 c 0
 203.91 715 169.09 700.359 166 671 c 1
 166 649.932 172.1 637.9 177 633 c 1
 138 589 l 1
 123 610 l 1
 112.333 629.333 107 650 107 672 c 0
 107 725.742 178.627 774 218 774 c 256
 250.774 774 289.867 761.775 311 738 c 1
 329.293 756.293 359.731 774 395 774 c 0
199 437 m 0
 199 463.667 189.333 477 170 477 c 0
 160.667 477 153.667 473.333 149 466 c 1
 144 437 l 1
 144 409 152.667 395 170 395 c 0
 189.333 395 199 409 199 437 c 0
227 61 m 0
 266.6 61 342.314 90.2252 425 134 c 1
 425 443 l 1
 381.569 406.808 334.4 385 274 385 c 1
 246 386 l 1
 232 354.667 207 339 171 339 c 0
 156.333 339 142.333 343 129 351 c 1
 84.0038 314.039 63 257.961 63 202 c 0
 63 104.908 157.571 61 227 61 c 0
EndSplineSet
LCarets2: 2 0 0 
Ligature2: "'blws' Below Base Substitutions in Oriya lookup 9 subtable" u0B1E u0B25.sub
EndChar

StartChar: u0B26_u0B4D_u0B2D
Encoding: 255 -1 255
Width: 742
Flags: MW
AnchorPoint: "C" 266 800 basechar 0
LayerCount: 3
Fore
SplineSet
628 414 m 0
 628 247.696 594.808 183.575 572 141 c 1
 656 -16 l 1
 605 -44 l 1
 506 133 l 1
 534 191 l 1
 558 247.667 570 320.333 570 409 c 0
 570 595.24 466.659 715 292 715 c 0
 230.667 715 177.167 692.167 131.5 646.5 c 128
 85.8333 600.833 63 547 63 485 c 0
 63 455.667 67.3333 429 76 405 c 1
 86 383 98 364.333 112 349 c 1
 167 438 l 1
 214 402 l 1
 138.333 302.687 120 227.6 120 184 c 0
 120 86.4 213.038 62 256 62 c 0
 317.673 62 385 106.315 385 184 c 0
 385 198.667 382.333 213 377 227 c 1
 291.922 227 254 322.787 254 374 c 0
 254 388.667 256.333 402 261 414 c 1
 248.333 418.667 236.667 428.333 226 443 c 1
 204 480 l 1
 194 503.333 189 525 189 545 c 0
 189 585.038 201.344 607.229 228 625 c 1
 246.667 639 267 646 289 646 c 0
 301.667 646 310.333 645.333 315 644 c 1
 319.667 644 327 641.333 337 636 c 1
 311 585 l 1
 289 590 l 2
 287.309 590 250 588.006 250 544 c 0
 250 511.607 271.046 472.514 297 468 c 1
 308 468 l 1
 320 471.333 331.333 476 342 482 c 1
 351 489 l 1
 384 443 l 1
 366 432 l 1
 329 413 l 1
 318 397 l 1
 315.333 389.667 314 381 314 371 c 0
 314 359 317.5 344.167 324.5 326.5 c 128
 331.5 308.833 348 297 374 291 c 1
 411 289 l 1
 442.244 234.734 443 212.618 443 187 c 0
 443 78.4 357.477 6 255 6 c 0
 194.203 6 62 42.2 62 187 c 0
 62 221 69.6667 258 85 298 c 1
 39.0225 332.831 3 402.524 3 490 c 0
 3 567.333 31.1667 634.833 87.5 692.5 c 128
 143.833 750.167 211.333 779 290 779 c 0
 388 779 467.333 749.333 528 690 c 0
 594.667 626 628 534 628 414 c 0
EndSplineSet
Ligature2: "'blws' Below Base Substitutions in Oriya lookup 9 subtable" u0B26 u0B2D u0B4D
EndChar

StartChar: u0B37_u0B4D_u0B20
Encoding: 256 -1 256
Width: 718
Flags: MW
AnchorPoint: "C" 266 800 basechar 0
LayerCount: 3
Fore
SplineSet
514 310 m 1
 581.177 293.878 616.676 222.719 618 138 c 1
 618 61.925 589.6 -30 476 -30 c 0
 432.667 -30 397.667 -12 371 24 c 1
 337.667 7.33333 302 -1 264 -1 c 0
 156.137 -1 76 82.2475 76 199 c 0
 76 259.879 84.7989 285.598 107 330 c 1
 65.3003 352.935 5 411.2 5 533 c 0
 5 722.6 127.625 770 239 770 c 0
 369.2 770 439.799 705.94 456 692 c 1
 456 773 l 1
 514 773 l 1
 514 310 l 1
455 614 m 1
 394.039 677.864 324.8 712 238 712 c 0
 192.667 712 155.667 702.667 127 684 c 1
 424 301 l 1
 455 312 l 1
 455 614 l 1
477 22 m 0
 544.2 22 562.005 85.7803 561 135 c 1
 561 203.289 541.375 254 483 254 c 256
 424.491 254 395 204.816 395 142 c 0
 395 85.8961 411.4 22 477 22 c 0
133 197 m 0
 133 115.932 184.6 55 262 55 c 1
 302 59 l 1
 316.667 61.6667 331 66 345 72 c 1
 339.667 93.3333 337 117 337 143 c 0
 337 194.333 350.667 235.333 378 266 c 1
 240 445 l 1
 88 639 l 1
 71.3333 614.333 63 578.667 63 532 c 0
 63 440.2 107.701 396.915 135 379 c 1
 161 415 l 1
 204 376 l 1
 169 323 l 1
 145 277.667 133 235.667 133 197 c 0
EndSplineSet
Ligature2: "'blws' Below Base Substitutions in Oriya lookup 9 subtable" u0B37 u0B20 u0B4D
EndChar

StartChar: u0B1F.sub
Encoding: 257 -1 257
Width: 20
Flags: HMW
LayerCount: 3
Fore
SplineSet
-257 -24 m 0
 -213.676 -24 -190.605 -34.8835 -166 -52 c 1
 -166 -33 l 1
 -115 -33 l 1
 -115 -237 l 1
 -163 -237 l 1
 -163 -120 l 1
 -191.667 -91.3333 -222.333 -77 -255 -77 c 0
 -310.464 -77 -355 -118.745 -355 -179 c 0
 -355 -187.737 -354.76 -238.12 -319 -256 c 1
 -307 -248.667 -291.667 -245 -273 -245 c 0
 -217.181 -245 -185 -288.974 -185 -356 c 0
 -185 -418.186 -219.536 -461 -278 -461 c 0
 -336.429 -461 -367 -411 -367 -349 c 0
 -367 -326.579 -360.147 -309.853 -354 -293 c 1
 -390 -268.333 -408 -229.667 -408 -177 c 0
 -408 -81.5888 -335.623 -24 -257 -24 c 0
-281 -411 m 256
 -255.8 -411 -239 -386 -239 -356 c 0
 -239 -329.169 -246.4 -298 -276 -298 c 256
 -309.6 -298 -318 -331.6 -318 -354 c 0
 -318 -383.754 -308.785 -411 -281 -411 c 256
EndSplineSet
LCarets2: 1 0 
Ligature2: "'blwf' Below Base Forms in Oriya lookup 3 subtable" u0B30 u0B4D
EndChar

StartChar: u0B33.sub
Encoding: 258 -1 258
Width: 20
Flags: MW
LayerCount: 3
Fore
SplineSet
-71 -35 m 4
 -11.2 -35 10.7587 -64.8012 11 -115 c 6
 12 -323 l 5
 -32 -323 l 5
 -32 -116 l 6
 -32 -92 -45 -80 -71 -80 c 4
 -93 -80 -108 -91.6 -108 -114 c 6
 -108 -322 l 5
 -152 -322 l 5
 -152 -115 l 6
 -152 -91 -165 -79 -191 -79 c 4
 -215.667 -79 -228 -91 -228 -115 c 6
 -228 -322 l 5
 -272 -322 l 5
 -272 -115 l 6
 -272 -66.8 -251.6 -35 -190 -35 c 4
 -165.333 -35 -145.333 -41.3333 -130 -54 c 5
 -115.333 -41.3333 -95.6667 -35 -71 -35 c 4
EndSplineSet
LCarets2: 1 0 
Ligature2: "'blwf' Below Base Forms in Oriya lookup 3 subtable" u0B33 u0B4D
EndChar

StartChar: u0B5F.sub
Encoding: 259 -1 259
Width: 455
Flags: HMW
LayerCount: 3
Fore
SplineSet
166 372 m 0
 236.667 372 274 404 287 422 c 1
 287 770 l 1
 345 770 l 1
 344 0 l 1
 286 0 l 1
 286 348 l 1
 274 335.333 236.667 314 163 314 c 0
 62 314 0 411 0 538 c 0
 0 661 32 745.333 49 776 c 1
 103 753 l 1
 85.3333 724 58 639 58 539 c 0
 58 460 90 372 166 372 c 0
EndSplineSet
LCarets2: 1 0 
Ligature2: "'blwf' Below Base Forms in Oriya lookup 3 subtable" u0B1F u0B4D
EndChar

StartChar: u0B24.sub
Encoding: 260 -1 260
Width: 14
Flags: MW
LayerCount: 3
Fore
SplineSet
-169 -31 m 0
 -120.506 -31 -73.9326 -68.579 -77 -156 c 1
 -77 -204 -91.6667 -237 -121 -255 c 1
 -144.269 -278.269 -225.114 -300 -332 -300 c 0
 -486.2 -300 -560.902 -223.013 -589 -193 c 1
 -550 -157 l 1
 -498.631 -211.871 -427.427 -248 -332 -248 c 1
 -268 -247 l 1
 -236 -243 l 1
 -258 -221 -269 -189 -269 -147 c 0
 -269 -77.5057 -233.752 -31 -169 -31 c 0
-173 -215 m 256
 -135.4 -215 -124.92 -181.167 -126 -152 c 1
 -126 -101 -142.8 -83 -168 -83 c 256
 -201.409 -83 -216 -109.708 -216 -146 c 0
 -216 -199.923 -198.8 -215 -173 -215 c 256
EndSplineSet
LCarets2: 1 0 
Ligature2: "'blwf' Below Base Forms in Oriya lookup 3 subtable" u0B24 u0B4D
EndChar

StartChar: u0B28.sub
Encoding: 261 -1 261
Width: 14
Flags: MW
LayerCount: 3
Fore
SplineSet
-324 -323 m 1
 -324 -114.3 -274.4 -35 -200 -35 c 2
 -87 -35 l 1
 -89 -323 l 1
 -133 -323 l 1
 -133 -80 l 1
 -201 -80 l 2
 -248.4 -80 -280 -144.4 -280 -323 c 1
 -324 -323 l 1
EndSplineSet
LCarets2: 1 0 
Ligature2: "'pstf' Post Base Forms in Oriya lookup 4 subtable" u0B5F u0B4D
EndChar

StartChar: u0B2E.sub
Encoding: 262 -1 262
Width: 285
Flags: MW
LayerCount: 3
Fore
SplineSet
-249 -206 m 0
 -249 -158 -231.555 -125.154 -187 -86 c 1
 -224 -63 l 1
 -263 -42 l 1
 -243 -3 l 1
 -235.667 -6.33333 -228.167 -10.3333 -220.5 -15 c 2
 -153 -59 l 1
 -123.667 -43.6667 -94.3333 -36 -65 -36 c 2
 110 -36 l 1
 113 -323 l 1
 69 -323 l 1
 69 -80 l 1
 -61 -80 l 1
 -89 -82 l 1
 -111 -89 l 1
 -67.6667 -125 -46 -164 -46 -206 c 0
 -46 -275.191 -81.8617 -321 -144 -321 c 0
 -190.142 -321 -249 -288.578 -249 -206 c 0
-205 -206 m 0
 -205 -247.277 -186.324 -276 -147 -276 c 0
 -111 -276 -93.3333 -253.333 -94 -208 c 0
 -94 -175.333 -113.333 -143.667 -152 -113 c 1
 -188.695 -141.718 -205 -168.8 -205 -206 c 0
EndSplineSet
Ligature2: "'abvs' Above Base Substitutions in Oriya lookup 6 subtable" u0B3E u0B01
EndChar

StartChar: u0B2C.sub
Encoding: 263 -1 263
Width: 14
Flags: MW
LayerCount: 3
Fore
SplineSet
-218 -47 m 1
 -246.239 -47 -280 -79.9859 -280 -140 c 0
 -280 -202 -251.667 -233 -195 -233 c 0
 -180.333 -233 -170.333 -230.667 -165 -226 c 1
 -147 -205 l 1
 -147 -36 l 1
 -101 -36 l 1
 -102 -323 l 1
 -148 -323 l 1
 -148 -266 l 1
 -160 -273.333 -176 -277 -196 -277 c 0
 -281.689 -277 -325 -227.177 -325 -140 c 0
 -325 -65.1684 -273.18 -1 -218 -1 c 1
 -218 -47 l 1
EndSplineSet
Ligature2: "'blwf' Below Base Forms in Oriya lookup 3 subtable" u0B2C u0B4D
EndChar

StartChar: u0B2E.sub
Encoding: 264 -1 264
Width: 798
Flags: HW
LayerCount: 3
Fore
SplineSet
630.25 -158.381 m 1
 630.25 169.824 l 1
 618.48 187.63 587.584 220.16 529.07 220.16 c 0
 489.515 220.16 424.99 183.809 424.99 88.3906 c 0
 424.99 55.1152 443.357 27.5303 461 16 c 1
 556.48 103.669 l 1
 594.918 56.498 l 1
 471.764 -56.7266 l 1
 630.25 -158.381 l 1
392.425 0 m 1
 355 0 l 1
 355 262 l 2
 355 278.667 344 290 327 290 c 0
 309.987 290 299 277.333 299 262 c 2
 299 0 l 1
 242 0 l 1
 242 262 l 2
 242 278 232 290.667 214 290 c 0
 197.8 290 187 277.333 187 262 c 2
 187 0 l 1
 130 0 l 1
 130 270 l 1
 78.1918 291.687 0 382.486 0 488.998 c 0
 0 634 92 770 274.006 769.999 c 0
 417 769.998 541 656 541 512 c 0
 541 450.858 527 414 514 370 c 1
 460 388 l 1
 475.333 437.333 483 478.667 483 512 c 0
 483 635 368 715 273.002 714.999 c 0
 136 714.998 58.001 618 58.001 491.999 c 0
 58.001 419.831 99.909 346.631 148 324 c 1
 162 340.667 183.667 349 213 349 c 0
 235 349 253.667 343 269 331 c 1
 283.667 343 303 349.13 327 349 c 0
 388.667 348.666 411.738 308.002 412 262 c 2
 412.2 226.8 l 1
 427.6 247.2 466.4 282.4 527.91 282.33 c 0
 562.882 282.29 598.292 273.826 629.67 253.106 c 1
 629.67 282.33 l 1
 687.73 282.33 l 1
 687.73 -267.684 l 17
 687.666 -267.619 374.23 -65.2129 374.069 -65.0586 c 9
 415.809 -26.4258 l 1
 407.37 -19.207 399.418 -10.2754 392.425 0 c 1
EndSplineSet
Ligature2: "'blws' Below Base Substitutions in Oriya lookup 9 subtable" u0B33 u0B38 u0B4D
EndChar

StartChar: u0B15.sub
Encoding: 265 -1 265
Width: 19
Flags: MW
LayerCount: 3
Fore
SplineSet
-1 -106 m 6
 -1 -299 l 5
 -59 -299 l 5
 -59 -106 l 6
 -59 -86 -69.6667 -76 -91 -76 c 4
 -111 -76 -121 -86 -121 -106 c 6
 -121 -296 l 5
 -179 -296 l 5
 -179 -247 l 5
 -191.667 -254.333 -206.667 -258 -224 -258 c 4
 -285.136 -258 -322 -207.75 -322 -133 c 4
 -322 -62.8889 -278.5 -17.2797 -223.75 -17.2797 c 4
 -190.5 -17.2797 -171.5 -28.5 -159 -41 c 5
 -149 -28.75 -131.25 -18 -91 -18 c 4
 -19 -18 -1 -61.8 -1 -106 c 6
-225 -198 m 4
 -188.31 -198 -182.237 -166.105 -182 -137 c 28
 -181.763 -107.795 -192.5 -75 -224 -75 c 4
 -257.75 -75 -266 -109.25 -266 -133 c 4
 -266 -165.492 -257.334 -198 -225 -198 c 4
EndSplineSet
LCarets2: 1 0 
Ligature2: "'blwf' Below Base Forms in Oriya lookup 3 subtable" u0B32 u0B4D
EndChar

StartChar: u0B25.sub
Encoding: 266 -1 266
Width: 14
Flags: MW
LayerCount: 3
Fore
SplineSet
-358.5 -322.5 m 1
 -311.5 -322.5 l 1
 -311.5 -198 -221 -83 -133 -83 c 1
 -133 -323 l 1
 -87 -323 l 1
 -87 -34 l 1
 -261.5 -34 -358.5 -171 -358.5 -322.5 c 1
EndSplineSet
LCarets2: 1 0 
Ligature2: "'blwf' Below Base Forms in Oriya lookup 3 subtable" u0B28 u0B4D
EndChar

StartChar: u0B1E_u0B4D_u0B1D
Encoding: 267 -1 267
Width: 593
Flags: MW
AnchorPoint: "C" 266 800 basechar 0
LayerCount: 3
Fore
SplineSet
393 772 m 0
 481.384 772 516 710.566 516 614 c 0
 516 583.333 504.333 549.333 481 512 c 1
 481 507 l 1
 573 634 l 1
 619 601 l 1
 491 422 l 1
 627 274 l 1
 584 237 l 1
 485 344 l 1
 485 0 l 1
 428 0 l 1
 428 58 l 1
 377.763 26.4226 307.666 0 227 0 c 0
 115.995 0 4 71.6678 4 199 c 0
 4 317.751 58.7028 354.277 97 383 c 1
 87.3846 406.077 87 423 87 433 c 2
 88 452 l 1
 37.681 493.513 4 557.905 4 608 c 0
 4 656 6.66667 687.667 12 703 c 1
 42 763 l 1
 96 740 l 1
 70 690 l 1
 64.6667 676 62 648.667 62 608 c 0
 62 574.667 79 540.333 113 505 c 1
 128.333 521.667 147.667 530 171 530 c 0
 218.355 530 257 493.811 257 439 c 1
 273 439 l 2
 388.131 439 459 549.387 459 612 c 0
 459 670.43 444.588 712 393 712 c 0
 369 712 351.667 701 341 679 c 1
 341 607 l 1
 283 607 l 1
 283 677 l 1
 268 695 l 1
 253.333 707 236 713 216 713 c 0
 201.91 713 167.09 698.359 164 669 c 1
 164 647.932 170.1 635.9 175 631 c 1
 136 587 l 1
 121 608 l 1
 110.333 627.333 105 648 105 670 c 0
 105 723.742 176.627 772 216 772 c 256
 248.774 772 287.867 759.775 309 736 c 1
 327.293 754.293 357.731 772 393 772 c 0
197 436 m 0
 197 462.667 187.333 476 168 476 c 0
 158.667 476 151.667 472.333 147 465 c 1
 142 436 l 1
 142 408 150.667 394 168 394 c 0
 187.333 394 197 408 197 436 c 0
224 58 m 0
 293.768 58 363.278 76.8094 423 128 c 1
 423 441 l 1
 379.569 404.808 332.4 383 272 383 c 1
 244 384 l 1
 230 352.667 205 337 169 337 c 0
 157 337 146 339.333 136 344 c 1
 90.8607 311.171 60 278.01 60 199 c 0
 60 101.908 154.571 58 224 58 c 0
EndSplineSet
LCarets2: 1 0 
Ligature2: "'blwf' Below Base Forms in Oriya lookup 3 subtable" u0B15 u0B4D
EndChar

StartChar: u0B38.sub
Encoding: 268 -1 268
Width: 0
Flags: MW
LayerCount: 3
Fore
SplineSet
-71 -166 m 0
 -71 -216.637 -102.72 -282 -189 -282 c 0
 -227 -282 -272.33 -255.667 -325 -203 c 1
 -375 -255.667 -420.33 -282 -461 -282 c 0
 -553.8 -282 -577 -207.55 -577 -166 c 0
 -577 -124.45 -553.8 -44 -461 -44 c 0
 -420.33 -44 -375 -70.333 -325 -123 c 1
 -272.33 -70.333 -227 -44 -189 -44 c 0
 -102.72 -44 -71 -115.363 -71 -166 c 0
-518 -163 m 0
 -518 -198.45 -494.4 -227 -459 -227 c 0
 -426.99 -227 -396.79 -197.845 -364 -163 c 1
 -396.79 -128.155 -426.99 -99 -459 -99 c 0
 -494.4 -99 -518 -127.55 -518 -163 c 0
-126 -164 m 0
 -126 -125.703 -153.34 -98 -187 -98 c 0
 -219.5 -98 -246.33 -124.553 -281 -164 c 1
 -246.33 -203.447 -219.5 -228 -187 -228 c 0
 -153.34 -228 -126 -202.297 -126 -164 c 0
EndSplineSet
LCarets2: 1 0 
Ligature2: "'blwf' Below Base Forms in Oriya lookup 3 subtable" u0B25 u0B4D
EndChar

StartChar: u0B2D.sub
Encoding: 269 -1 269
Width: 14
Flags: MW
LayerCount: 3
Fore
SplineSet
-97 -9 m 2
 -60.0134 -9 7 -38.1262 7 -113 c 0
 7 -173.83 -21.711 -200.933 -60 -225 c 1
 -7 -329 l 1
 -49 -350 l 1
 -131 -197 l 1
 -89.6 -197 -38 -180.2 -38 -113 c 0
 -38 -80.7156 -61.2911 -55.1051 -97 -52 c 1
 -174 -52 l 1
 -174 -9 l 1
 -97 -9 l 2
EndSplineSet
EndChar

StartChar: u0B38.sub
Encoding: 270 -1 270
Width: 14
Flags: MW
LayerCount: 3
Fore
SplineSet
-234 -151 m 1
 -200.278 -222.491 -56.3674 -281 8 -281 c 1
 7 -323 l 1
 -22 -323 -71.455 -314.76 -138 -283 c 1
 -215.333 -249 -262.333 -204.667 -279 -150 c 1
 -256.925 -83.776 -193.203 -25.5856 -124 -6 c 1
 -124 -49 l 1
 -149.328 -54.7564 -201.664 -89.4082 -234 -151 c 1
EndSplineSet
EndChar

StartChar: u0B20.small
Encoding: 271 -1 271
Width: 14
Flags: MW
LayerCount: 3
Fore
SplineSet
227 652 m 0
 361.885 652 444.597 538.923 446 393 c 1
 446 256.076 358.4 132 227 132 c 0
 168.333 132 116.5 156.333 71.5 205 c 0
 26.5 253.667 4 316 4 392 c 0
 4 538.505 93.2 652 227 652 c 0
227 190 m 256
 319.851 190 390.33 287.61 389 394 c 1
 389 509.315 334.555 595 227 595 c 0
 127.02 595 63 508.01 63 393 c 0
 63 268.18 139.713 190 227 190 c 256
EndSplineSet
Ligature2: "'rphf' Reph Form in Oriya lookup 2 subtable" u0B30 u0B4D
EndChar

StartChar: u0B30.sub.alt
Encoding: 272 -1 272
Width: 14
Flags: MW
LayerCount: 3
Fore
SplineSet
-258 -306 m 2
 -186.121 -306 -157 -282.948 -157 -211 c 2
 -157 -175 l 1
 -113 -175 l 1
 -112 -211 l 1
 -112 -308.121 -139.954 -352 -258 -352 c 2
 -525 -352 l 1
 -525 -306 l 1
 -258 -306 l 2
EndSplineSet
EndChar

StartChar: u0B23_u0B4D_u0B22
Encoding: 273 -1 273
Width: 631
Flags: HW
LayerCount: 3
Fore
SplineSet
488 -132 m 0
 519.2 -132 529 -92.4004 529 -66 c 0
 529 -35.5195 521 -6 485 -6 c 0
 453 -6 444 -36.9277 444 -67 c 0
 444 -101.088 455.324 -132 488 -132 c 0
510 49.002 m 1
 567.367 36.252 586 -19.4004 586 -65 c 0
 586 -119.667 567.333 -158 530 -180 c 1
 644 -273 l 1
 605 -317 l 1
 440 -176 l 1
 387.432 -150.768 385 -83.1408 385 -66 c 0
 385 -4.55078 404.595 32.7471 452 49.001 c 1
 452 610 l 1
 419.348 660.938 360.967 711 281 711 c 0
 216.41 711 177 671.234 177 604 c 0
 177 577.333 182 560.333 192 553 c 1
 226.272 533.809 265.629 498.932 294 474 c 1
 252 432 l 1
 235.66 447.173 202.36 480.321 163 500 c 1
 95.1367 500 70.4688 442.127 61 379 c 1
 242.566 379 393 333.4 393 151 c 0
 393 55.375 330.885 0 249 0 c 0
 112.396 0 0 136.836 0 317 c 0
 0 441.007 33.9844 525.286 131 552 c 1
 128.369 569.702 123.855 585.521 125 607 c 0
 125 675.725 156.4 770 282 770 c 0
 307.451 770 374.532 767.749 453 698 c 1
 453 770 l 1
 511 770 l 1
 510 49.002 l 1
249 53 m 0
 290.496 53 335.473 83.1133 334 145 c 0
 334 285 208.667 320 101 320 c 0
 78.6567 320 65.3333 318.667 59 318 c 1
 59 162.043 138.934 53 249 53 c 0
EndSplineSet
EndChar

StartChar: u0B36_u0B25.sub
Encoding: 274 -1 274
Width: 623
Flags: MW
LayerCount: 3
Fore
SplineSet
323 780 m 0
 396.191 780 457.896 729.807 494 690 c 1
 494 774 l 1
 551 774 l 1
 551 -46 l 1
 553 -61 l 1
 553 -127.65 508.425 -182 434 -182 c 0
 396 -182 350.667 -155.667 298 -103 c 1
 248 -155.667 202.667 -182 162 -182 c 256
 69.2 -182 46 -101.55 46 -60 c 0
 46 6.24727 90.9094 61 163 61 c 1
 174 60 l 1
 164 88.6667 159 119.667 159 153 c 0
 159 188.333 165.333 219 178 245 c 1
 109.541 267.82 7 353.482 7 460 c 0
 7 478.667 10.8333 499.667 18.5 523 c 0
 32.9971 567.122 89.7308 602 151 602 c 1
 166 601 l 1
 166 735.185 260.2 780 323 780 c 0
306 321 m 0
 395.416 321 439 241.532 439 144 c 0
 439 110 434 81.3333 424 58 c 1
 439 59 l 1
 461 59 480 52.3333 496 39 c 1
 495 585 l 1
 478.333 621 455.333 652.333 426 679 c 1
 392 708.333 359.333 723 328 723 c 0
 268.468 723 225 667.819 225 612 c 0
 225 595.333 229.667 581 239 569 c 1
 348 484 l 1
 312 438 l 1
 198 526 l 1
 183.333 536 166.667 541 148 541 c 0
 126.22 541 89.2616 534.002 74 495 c 1
 69 470 l 1
 68 455 l 1
 68 374.7 161.211 292 219 292 c 1
 243.667 311.333 272.667 321 306 321 c 0
300 31 m 0
 366.4 31 383 93.0777 383 145 c 0
 383 206.228 367.8 261 307 261 c 0
 272.2 261 220 241.175 220 151 c 0
 220 97 236 31 300 31 c 0
344 -62 m 1
 378.666 -101.447 405.502 -126 438 -126 c 256
 466.121 -126 497.056 -103.738 500 -64 c 1
 496 -41 l 1
 486 -14.3333 467 -1 439 -1 c 0
 424.333 -1 408.667 -6.33333 392 -17 c 1
 370 -36 l 2
 357.333 -48 348.667 -56.6667 344 -62 c 1
104 -61 m 0
 104 -96.45 127.6 -125 163 -125 c 0
 195.392 -125 224.687 -95.3126 259 -61 c 1
 226 -26 l 1
 204.667 -8 184 1 164 1 c 0
 131.1 1 104 -22.3 104 -61 c 0
EndSplineSet
LCarets2: 1 0 
Ligature2: "'blws' Below Base Substitutions in Oriya lookup 8 subtable" u0B38 u0B25.sub
EndChar

